<svg width="960" height="691" viewBox="0 0 960 691" fill="none" xmlns="http://www.w3.org/2000/svg">
<path d="M456.31 504.69H378.57V684.95H456.31V504.69Z" fill="#231F20"/>
<path d="M250.08 670H579.89C583.633 670.003 587.222 671.491 589.868 674.139C592.514 676.787 594 680.377 594 684.12V684.12H236C236 680.382 237.482 676.797 240.121 674.15C242.761 671.503 246.342 670.011 250.08 670V670Z" fill="white"/>
<path d="M594.51 684.65H235.51V684.14C235.515 680.257 237.061 676.535 239.807 673.79C242.554 671.046 246.277 669.503 250.16 669.5H579.86C583.743 669.503 587.466 671.046 590.212 673.79C592.959 676.535 594.504 680.257 594.51 684.14V684.65ZM236.51 683.65H593.51C593.375 680.122 591.88 676.782 589.337 674.332C586.794 671.882 583.401 670.513 579.87 670.51H250.11C246.58 670.513 243.189 671.881 240.646 674.329C238.103 676.776 236.607 680.113 236.47 683.64L236.51 683.65Z" fill="#231F20"/>
<path d="M832.06 254L862.06 447.48C856.6 425.89 777.27 300.48 819.06 169.98L831.16 248.1L817.16 254H832.06Z" fill="#95A6A3"/>
<path d="M861.53 447.55C860.6 443.85 857.44 437 853.06 427.55C832.38 382.74 783.96 277.8 818.56 169.81L819.21 167.81L831.69 248.41L819.63 253.5H832.49L832.55 253.92L862.55 447.4L861.53 447.55ZM818.87 172.13C785.64 279.03 833.47 382.68 853.97 427.13C856.81 433.28 859.14 438.32 860.69 442.13L831.63 254.46H814.63L830.55 247.75L818.87 172.13Z" fill="#231F20"/>
<path d="M901.76 173.6L866.76 179.67L899.99 185.85L894.58 223.64L866.76 220.24L893.14 233.74L862.3 449.33C862.3 449.33 799.89 144.27 915.3 79.17L901.76 173.6Z" fill="#607A75"/>
<path d="M862.4 452.26L861.82 449.43C861.67 448.67 846.2 372.15 845.03 288.67C844.34 239.62 848.65 197.79 857.84 164.34C869.35 122.45 888.59 93.65 915.02 78.73L915.91 78.23L902.2 174L869.62 179.66L900.62 185.42L895 224.2L869.5 221.08L893.68 233.46V233.81L862.4 452.26ZM914.63 80.11C888.89 95.04 870.12 123.45 858.81 164.6C849.65 197.95 845.35 239.69 846.03 288.6C847.03 362.82 859.42 431.53 862.24 446.28L892.61 234L864 219.4L894.13 223.09L899.4 186.26L864 179.65L901.36 173.17L914.63 80.11Z" fill="#231F20"/>
<path d="M936.34 330.64L921.91 323L932.69 336.46L862.32 449.3C862.32 449.3 875.55 301.01 958.77 294.64L936.34 330.64Z" fill="#2B4E47"/>
<path d="M861.63 451.37L861.82 449.28C861.82 448.91 865.29 411.71 878.82 374.22C886.82 352.17 896.67 334.33 908.17 321.22C922.57 304.75 939.57 295.66 958.68 294.22L959.68 294.15L936.48 331.35L923.77 324.64L933.27 336.51L861.63 451.37ZM957.82 295.26C939.37 296.93 922.95 305.88 908.97 321.86C897.56 334.86 887.75 352.63 879.81 374.56C868.14 406.78 863.98 438.77 863.04 447.22L932.04 336.53L920 321.46L936.16 329.98L957.82 295.26Z" fill="#607A75"/>
<path d="M917 396.32L901.57 412.57L917 634.72C917.003 638.215 916.641 641.7 915.92 645.12C915.58 646.73 915.16 648.29 914.68 649.84C912.156 657.81 907.689 665.027 901.68 670.84C905.289 674.643 907.301 679.687 907.3 684.93H826.1C826.097 679.64 828.144 674.554 831.81 670.74C825.829 664.949 821.385 657.759 818.88 649.82C818.39 648.28 817.98 646.71 817.63 645.1C816.908 641.68 816.546 638.195 816.55 634.7L832 412.57L816.57 396.32H917Z" fill="white"/>
<path d="M907.78 685.45H825.6V685C825.595 679.753 827.562 674.696 831.11 670.83C825.243 665.023 820.88 657.873 818.4 650C817.92 648.49 817.5 646.89 817.14 645.24C816.413 641.784 816.048 638.262 816.05 634.73L831.47 412.73L815.39 395.8H918.18L902.1 412.73L917.52 634.67C917.522 638.212 917.157 641.744 916.43 645.21C916.1 646.76 915.68 648.36 915.17 649.97C912.666 657.87 908.268 665.038 902.36 670.85C904 672.667 905.313 674.754 906.24 677.02C907.261 679.532 907.784 682.218 907.78 684.93V685.45ZM826.61 684.45H906.77C906.655 679.505 904.701 674.781 901.29 671.2L900.95 670.84L901.31 670.5C907.271 664.741 911.708 657.59 914.22 649.69C914.72 648.11 915.13 646.54 915.45 645.02C916.164 641.633 916.522 638.181 916.52 634.72L901.07 412.38L901.23 412.22L915.85 396.82H817.72L832.5 412.38V412.6L817.07 634.76C817.079 638.207 817.437 641.645 818.14 645.02C818.49 646.63 818.9 648.21 819.37 649.68C821.866 657.537 826.267 664.655 832.18 670.4L832.54 670.75L832.19 671.11C828.724 674.701 826.733 679.461 826.61 684.45V684.45Z" fill="#231F20"/>
<path d="M840.54 16.61V540.68C840.541 542.706 840.143 544.712 839.369 546.584C838.595 548.456 837.459 550.157 836.027 551.59C834.595 553.023 832.895 554.16 831.023 554.935C829.152 555.711 827.146 556.11 825.12 556.11H23.7998C17.6998 556.11 11.8497 553.687 7.53635 549.373C3.22301 545.06 0.799805 539.21 0.799805 533.11V24.21C0.799805 18.11 3.22301 12.2599 7.53635 7.94655C11.8497 3.63321 17.6998 1.21001 23.7998 1.21001H825.12C829.206 1.21 833.125 2.83186 836.016 5.71935C838.908 8.60683 840.535 12.5238 840.54 16.61V16.61Z" fill="white"/>
<path d="M825.12 556.61H23.8003C17.5648 556.602 11.587 554.122 7.17789 549.712C2.76875 545.303 0.288212 539.325 0.280273 533.09V24.21C0.288212 17.9746 2.76875 11.9968 7.17789 7.58762C11.587 3.17848 17.5648 0.697941 23.8003 0.690002H825.12C829.334 0.70586 833.37 2.3895 836.346 5.37279C839.321 8.35608 840.995 12.3963 841 16.61V540.68C840.998 544.895 839.325 548.938 836.349 551.924C833.373 554.909 829.336 556.594 825.12 556.61V556.61ZM23.8003 1.69C17.83 1.69794 12.1066 4.07312 7.88499 8.29472C3.66339 12.5163 1.28821 18.2398 1.28027 24.21V533.09C1.28821 539.06 3.66339 544.784 7.88499 549.005C12.1066 553.227 17.83 555.602 23.8003 555.61H825.12C829.07 555.594 832.854 554.014 835.642 551.217C838.431 548.419 839.998 544.63 840 540.68V16.61C839.998 12.6538 838.425 8.86037 835.627 6.0629C832.83 3.26543 829.037 1.69265 825.08 1.69H23.8003Z" fill="#231F20"/>
<path d="M827.3 12.46H17.4697V544.84H827.3V12.46Z" fill="white"/>
<path d="M827.81 545.34H17V12H827.84L827.81 545.34ZM17.97 544.34H826.8V13H18L17.97 544.34Z" fill="#231F20"/>
<path d="M538.48 106.75H89.3701V189.79H538.48V106.75Z" fill="white"/>
<path d="M539 190.29H88.8701V106.29H539V190.29ZM89.8901 189.29H538V107.29H89.8701L89.8901 189.29Z" fill="#231F20"/>
<path d="M538.47 214.66H90.4199V229.14H538.47V214.66Z" fill="white"/>
<path d="M539 229.64H89.9199V214.15H539V229.64ZM90.9399 228.64H538V215.16H90.9199L90.9399 228.64Z" fill="#231F20"/>
<path d="M538.47 254.15H90.4199V268.63H538.47V254.15Z" fill="white"/>
<path d="M539 269.14H89.9199V253.65H539V269.14ZM90.9399 268.14H538V254.65H90.9199L90.9399 268.14Z" fill="#231F20"/>
<path d="M538.47 293.65H90.4199V308.13H538.47V293.65Z" fill="white"/>
<path d="M539 308.63H89.9199V293.15H539V308.63ZM90.9399 307.63H538V294.15H90.9199L90.9399 307.63Z" fill="#231F20"/>
<path d="M538.47 333.15H90.4199V347.63H538.47V333.15Z" fill="white"/>
<path d="M539 348.13H89.9199V332.65H539V348.13ZM90.9399 347.13H538V333.65H90.9199L90.9399 347.13Z" fill="#231F20"/>
<path d="M538.47 372.64H90.4199V387.12H538.47V372.64Z" fill="white"/>
<path d="M539 387.63H89.9199V372.14H539V387.63ZM90.9399 386.63H538V373.14H90.9199L90.9399 386.63Z" fill="#231F20"/>
<path d="M538.47 412.14H90.4199V426.62H538.47V412.14Z" fill="white"/>
<path d="M539 427.12H89.9199V411.64H539V427.12ZM90.9399 426.12H538V412.64H90.9199L90.9399 426.12Z" fill="#231F20"/>
<path d="M538.47 451.64H90.4199V466.12H538.47V451.64Z" fill="white"/>
<path d="M539 466.62H89.9199V451.14H539V466.62ZM90.9399 465.62H538V452.14H90.9199L90.9399 465.62Z" fill="#231F20"/>
<path d="M317.14 487.06H90.4199V501.54H317.14V487.06Z" fill="white"/>
<path d="M317.65 502.05H89.9199V486.56H317.65V502.05ZM90.9199 501.05H316.64V487.57H90.9199V501.05Z" fill="#231F20"/>
<path d="M793.62 103.49H561.52V498.29H793.62V103.49Z" fill="white"/>
<path d="M794.12 498.79H561V103H794.1L794.12 498.79ZM562.02 497.79H793.12V104H562L562.02 497.79Z" fill="#231F20"/>
<path d="M793.153 103.255L561.198 498.139L562.06 498.645L794.016 103.761L793.153 103.255Z" fill="#231F20"/>
<path d="M827.3 12.46H17.4697V51.36H827.3V12.46Z" fill="#231F20"/>
<path d="M827.81 51.86H17V12H827.84L827.81 51.86ZM17.97 50.86H826.8V13H18L17.97 50.86Z" fill="#231F20"/>
<path d="M36.1595 38.44C40.2409 38.44 43.5495 35.1314 43.5495 31.05C43.5495 26.9686 40.2409 23.66 36.1595 23.66C32.0781 23.66 28.7695 26.9686 28.7695 31.05C28.7695 35.1314 32.0781 38.44 36.1595 38.44Z" fill="white"/>
<path d="M36.16 39C34.5971 39.002 33.0687 38.5403 31.7683 37.6735C30.4678 36.8066 29.4537 35.5735 28.8542 34.1301C28.2548 32.6868 28.0969 31.098 28.4006 29.5649C28.7043 28.0318 29.4559 26.6232 30.5603 25.5174C31.6648 24.4116 33.0724 23.6582 34.6051 23.3525C36.1378 23.0469 37.7268 23.2028 39.1709 23.8004C40.615 24.398 41.8494 25.4106 42.7179 26.71C43.5864 28.0093 44.05 29.5371 44.05 31.1C44.0474 33.1927 43.2156 35.199 41.7368 36.6797C40.258 38.1604 38.2527 38.9947 36.16 39V39ZM36.16 24.21C34.7945 24.208 33.459 24.6113 32.3228 25.3687C31.1866 26.1261 30.3006 27.2036 29.7772 28.4649C29.2537 29.7261 29.1162 31.1143 29.3821 32.4537C29.648 33.7931 30.3054 35.0235 31.271 35.989C32.2366 36.9546 33.4669 37.612 34.8063 37.8779C36.1457 38.1438 37.5339 38.0063 38.7951 37.4829C40.0564 36.9594 41.1339 36.0734 41.8913 34.9372C42.6487 33.801 43.052 32.4656 43.05 31.1C43.0553 30.1914 42.881 29.2906 42.5373 28.4495C42.1935 27.6084 41.6869 26.8435 41.0468 26.1986C40.4066 25.5538 39.6453 25.0418 38.8067 24.6919C37.9681 24.3421 37.0687 24.1613 36.16 24.16V24.21Z" fill="#231F20"/>
<path d="M63.3998 38.44C67.4811 38.44 70.7898 35.1314 70.7898 31.05C70.7898 26.9686 67.4811 23.66 63.3998 23.66C59.3184 23.66 56.0098 26.9686 56.0098 31.05C56.0098 35.1314 59.3184 38.44 63.3998 38.44Z" fill="white"/>
<path d="M63.4002 39C61.8373 39.002 60.309 38.5403 59.0085 37.6735C57.708 36.8066 56.6939 35.5735 56.0945 34.1301C55.495 32.6868 55.3371 31.098 55.6408 29.5649C55.9445 28.0318 56.6961 26.6232 57.8006 25.5174C58.905 24.4116 60.3126 23.6582 61.8453 23.3525C63.3781 23.0469 64.967 23.2028 66.4111 23.8004C67.8552 24.398 69.0896 25.4106 69.9582 26.71C70.8267 28.0093 71.2902 29.5371 71.2902 31.1C71.2902 33.1935 70.4593 35.2014 68.9799 36.6826C67.5005 38.1639 65.4937 38.9974 63.4002 39V39ZM63.4002 24.21C62.0347 24.208 60.6993 24.6113 59.563 25.3687C58.4268 26.1261 57.5409 27.2036 57.0174 28.4649C56.4939 29.7261 56.3564 31.1143 56.6223 32.4537C56.8883 33.7931 57.5456 35.0235 58.5112 35.989C59.4768 36.9546 60.7072 37.612 62.0466 37.8779C63.386 38.1438 64.7742 38.0063 66.0354 37.4829C67.2966 36.9594 68.3741 36.0734 69.1315 34.9372C69.889 33.801 70.2922 32.4656 70.2902 31.1C70.2942 30.1917 70.119 29.2916 69.7748 28.4511C69.4305 27.6106 68.924 26.8461 68.2841 26.2016C67.6441 25.557 66.8834 25.0449 66.0454 24.6946C65.2074 24.3443 64.3085 24.1626 63.4002 24.16V24.21Z" fill="#231F20"/>
<path d="M90.6302 38.44C94.7116 38.44 98.0202 35.1314 98.0202 31.05C98.0202 26.9686 94.7116 23.66 90.6302 23.66C86.5489 23.66 83.2402 26.9686 83.2402 31.05C83.2402 35.1314 86.5489 38.44 90.6302 38.44Z" fill="white"/>
<path d="M90.6305 39C89.068 39 87.5406 38.5367 86.2415 37.6686C84.9423 36.8006 83.9298 35.5667 83.3318 34.1232C82.7339 32.6797 82.5774 31.0912 82.8823 29.5588C83.1871 28.0263 83.9395 26.6187 85.0443 25.5139C86.1492 24.409 87.5568 23.6566 89.0892 23.3518C90.6217 23.047 92.2101 23.2034 93.6537 23.8014C95.0972 24.3993 96.331 25.4119 97.1991 26.711C98.0671 28.0102 98.5305 29.5375 98.5305 31.1C98.5305 32.1375 98.3261 33.1647 97.9291 34.1232C97.5321 35.0817 96.9502 35.9526 96.2166 36.6861C95.483 37.4197 94.6121 38.0016 93.6537 38.3987C92.6952 38.7957 91.6679 39 90.6305 39V39ZM90.6305 24.21C89.2649 24.208 87.9295 24.6113 86.7933 25.3687C85.657 26.1261 84.7711 27.2036 84.2476 28.4649C83.7241 29.7261 83.5867 31.1143 83.8526 32.4537C84.1185 33.7931 84.7758 35.0235 85.7414 35.989C86.707 36.9546 87.9374 37.612 89.2768 37.8779C90.6162 38.1438 92.0044 38.0063 93.2656 37.4829C94.5268 36.9594 95.6043 36.0734 96.3618 34.9372C97.1192 33.801 97.5224 32.4656 97.5205 31.1C97.5257 30.1914 97.3515 29.2906 97.0077 28.4495C96.6639 27.6084 96.1574 26.8435 95.5172 26.1986C94.877 25.5538 94.1158 25.0418 93.2772 24.6919C92.4386 24.3421 91.5391 24.1613 90.6305 24.16V24.21Z" fill="#231F20"/>
<path d="M572.8 646C552.25 617.9 522.1 637.77 490.58 646.19C459.06 654.61 456.32 640.91 456.32 640.91L524.32 572.82L572.8 646Z" fill="#231F20"/>
<path d="M472.81 649.37C466.66 649.37 462.81 648.02 460.36 646.52C456.5 644.12 455.85 641.09 455.83 640.97C455.812 640.889 455.815 640.804 455.838 640.724C455.86 640.644 455.902 640.57 455.96 640.51L523.96 572.42C524.012 572.368 524.075 572.329 524.144 572.305C524.213 572.28 524.287 572.272 524.36 572.28C524.435 572.285 524.507 572.307 524.571 572.345C524.636 572.383 524.69 572.437 524.73 572.5L573.19 645.68C573.257 645.789 573.281 645.919 573.255 646.045C573.229 646.17 573.156 646.281 573.05 646.354C572.945 646.427 572.816 646.457 572.689 646.438C572.563 646.419 572.448 646.351 572.37 646.25C556.37 624.38 534.04 632.13 510.37 640.33C503.95 642.55 497.31 644.85 490.65 646.63C484.846 648.306 478.849 649.227 472.81 649.37V649.37ZM456.88 641C457.63 642.976 459.044 644.631 460.88 645.68C464.94 648.18 473.35 650.2 490.4 645.68C497.03 643.91 503.65 641.62 510.05 639.4C531.69 631.89 552.24 624.76 568.13 639.9L524.21 573.58L456.88 641Z" fill="#231F20"/>
<path d="M515.98 466.01L538.4 684.14H512.64L533.94 678.68L501.08 466.01H515.98Z" fill="white"/>
<path d="M538.4 684.65H512.64C512.507 684.667 512.373 684.631 512.267 684.549C512.161 684.468 512.092 684.348 512.075 684.215C512.057 684.082 512.094 683.948 512.175 683.842C512.257 683.736 512.377 683.667 512.51 683.65L533.37 678.3L500.59 466.09C500.577 466.019 500.58 465.947 500.599 465.878C500.618 465.808 500.653 465.744 500.7 465.69C500.747 465.636 500.806 465.592 500.871 465.561C500.936 465.53 501.007 465.513 501.08 465.51H516C516.123 465.512 516.242 465.558 516.334 465.641C516.426 465.724 516.485 465.837 516.5 465.96L538.9 684.09C538.908 684.16 538.901 684.23 538.88 684.298C538.86 684.365 538.825 684.427 538.78 684.48C538.732 684.534 538.674 684.577 538.608 684.606C538.543 684.636 538.471 684.651 538.4 684.65V684.65ZM516.61 683.65H537.85L515.53 466.51H501.67L534.43 678.61C534.448 678.733 534.421 678.858 534.353 678.961C534.284 679.065 534.18 679.139 534.06 679.17L516.61 683.65Z" fill="#231F20"/>
<path d="M508.23 466.01L505.62 684.14H479.85L501.15 678.68L493.33 466.01H508.23Z" fill="white"/>
<path d="M505.62 684.65H479.85C479.728 684.649 479.61 684.604 479.518 684.523C479.426 684.442 479.367 684.331 479.35 684.21C479.334 684.088 479.364 683.964 479.434 683.862C479.505 683.761 479.61 683.689 479.73 683.66L500.63 678.3L492.83 466C492.829 465.866 492.879 465.738 492.97 465.64C493.064 465.542 493.193 465.484 493.33 465.48H508.23C508.365 465.48 508.494 465.534 508.59 465.63C508.637 465.677 508.674 465.733 508.698 465.795C508.722 465.857 508.733 465.924 508.73 465.99L506.12 684.12C506.124 684.188 506.114 684.256 506.091 684.321C506.067 684.385 506.031 684.443 505.984 684.493C505.938 684.543 505.881 684.582 505.818 684.609C505.756 684.636 505.688 684.65 505.62 684.65ZM483.82 683.65H505.12L507.73 466.52H493.85L501.65 678.68C501.653 678.794 501.617 678.906 501.548 678.997C501.479 679.088 501.381 679.153 501.27 679.18L483.82 683.65Z" fill="#231F20"/>
<path d="M487.62 375.86C487.62 375.86 504.46 367.52 512.84 387.34C521.22 407.16 535.84 391.06 545.73 416.7C560.14 454.02 497.16 464.34 485.8 435.64C477.23 414 495.47 419.73 484.92 401.94C474.37 384.15 487.62 375.86 487.62 375.86Z" fill="#231F20"/>
<path d="M515.18 452.62C502.4 452.62 489.83 447.19 485.33 435.82C480.94 424.72 483.47 420.63 485.71 417.03C487.79 413.68 489.59 410.78 484.49 402.19C473.82 384.19 487.22 375.52 487.35 375.44C487.63 375.3 494.44 372.01 501.67 374.69C506.67 376.53 510.53 380.74 513.25 387.18C517.06 396.18 522.18 397.59 527.6 399.06C534.08 400.81 540.78 402.63 546.15 416.55C552.89 434.01 542.7 445.15 530.92 449.76C525.893 451.67 520.558 452.639 515.18 452.62V452.62ZM487.86 376.3C487.09 376.8 475.31 384.74 485.35 401.68C490.76 410.8 488.72 414.08 486.56 417.56C484.4 421.04 482.05 424.82 486.26 435.45C492.46 451.1 514.6 455.05 530.6 448.79C545.28 443.05 550.76 431.12 545.27 416.88C540.08 403.43 533.63 401.68 527.39 399.99C521.73 398.46 516.39 396.99 512.39 387.54C509.78 381.36 506.08 377.35 501.39 375.6C494.76 373.14 488.29 376.1 487.86 376.3Z" fill="#231F20"/>
<path d="M489.62 413.12L471.36 461L438.57 453.64L432.57 451.98L416.12 456.48C416.12 456.48 423.24 468.78 438.19 461.19L465.52 476.89C469.05 478.918 473.176 479.655 477.19 478.974C481.204 478.294 484.856 476.238 487.52 473.16L502.52 455.84L489.62 413.12Z" fill="white"/>
<path d="M474.27 479.7C471.112 479.709 468.008 478.885 465.27 477.31L438.18 461.74C423.18 469.21 415.76 456.84 415.68 456.74C415.642 456.673 415.62 456.599 415.615 456.522C415.61 456.446 415.623 456.369 415.652 456.298C415.68 456.226 415.725 456.163 415.782 456.111C415.839 456.06 415.906 456.022 415.98 456L432.44 451.51C432.526 451.49 432.615 451.49 432.7 451.51L438.7 453.17L471.05 460.43L489.15 412.96C489.185 412.86 489.252 412.775 489.341 412.717C489.429 412.659 489.535 412.632 489.64 412.64C489.745 412.644 489.846 412.681 489.928 412.746C490.011 412.81 490.071 412.899 490.1 413L503 455.68C503.024 455.76 503.028 455.846 503.01 455.928C502.993 456.01 502.955 456.086 502.9 456.15L487.9 473.47C486.209 475.427 484.116 476.996 481.764 478.071C479.412 479.146 476.856 479.702 474.27 479.7V479.7ZM438.27 460.7C438.358 460.702 438.444 460.726 438.52 460.77L465.85 476.47C469.275 478.442 473.28 479.16 477.176 478.499C481.073 477.839 484.617 475.841 487.2 472.85L502 455.71L489.62 414.71L471.88 461.21C471.836 461.322 471.753 461.414 471.647 461.471C471.541 461.528 471.418 461.545 471.3 461.52L438.51 454.16L432.66 452.53L417 456.77C418.59 459.06 425.37 467.17 438.06 460.77C438.109 460.725 438.167 460.691 438.23 460.67L438.27 460.7Z" fill="#231F20"/>
<path d="M483.32 470.3V434.3C483.32 433.11 483.32 431.94 483.47 430.78C484.82 415.01 495.18 402.78 507.75 402.78C514.5 402.78 520.61 406.31 525.04 412.01C526.459 413.856 527.673 415.851 528.66 417.96C531.859 424.963 532.616 432.836 530.81 440.32L523.81 470.32L572.8 646C572.8 646 548.8 649.42 520.04 627.39C491.28 605.36 456.32 640.91 456.32 640.91L483.32 470.3Z" fill="#F5CFCE"/>
<path d="M569.21 646.63C561.36 646.63 541.84 644.63 519.74 627.75C507.97 618.75 493.74 618.24 477.61 626.29C469.936 630.208 462.883 635.239 456.68 641.22C456.607 641.3 456.509 641.354 456.402 641.374C456.295 641.394 456.185 641.378 456.088 641.329C455.991 641.281 455.912 641.202 455.864 641.104C455.815 641.007 455.8 640.897 455.82 640.79L482.82 470.26V434.26C482.82 433.07 482.82 431.87 482.97 430.7C484.36 414.46 494.97 402.21 507.75 402.21C514.44 402.21 520.75 405.56 525.44 411.65C526.877 413.511 528.107 415.523 529.11 417.65C532.356 424.756 533.123 432.746 531.29 440.34L524.37 470.25L573.29 645.78C573.306 645.85 573.308 645.922 573.296 645.992C573.284 646.062 573.258 646.13 573.22 646.19C573.181 646.25 573.13 646.301 573.069 646.339C573.009 646.377 572.941 646.401 572.87 646.41C571.656 646.56 570.434 646.634 569.21 646.63V646.63ZM499.08 619.63C506.797 619.625 514.29 622.222 520.35 627C546.2 646.8 568.35 645.9 572.16 645.57L523.37 470.44C523.35 470.358 523.35 470.272 523.37 470.19L530.37 440.19C532.131 432.826 531.388 425.085 528.26 418.19C527.289 416.115 526.091 414.153 524.69 412.34C520.17 406.51 514.17 403.34 507.8 403.34C495.59 403.34 485.37 415.19 484.02 430.91C483.92 432.05 483.87 433.22 483.87 434.38V470.38C483.876 470.406 483.876 470.434 483.87 470.46L457.05 639.47C463.076 633.879 469.843 629.145 477.16 625.4C484.83 621.58 492.19 619.68 499.08 619.68V619.63Z" fill="#231F20"/>
<path d="M506.55 411.86L510.69 407L506.29 388.19L496.8 386L501.14 404.55L500.35 408.89C500.198 409.662 500.307 410.463 500.66 411.167C501.013 411.87 501.59 412.436 502.299 412.776C503.009 413.116 503.812 413.211 504.581 413.045C505.351 412.879 506.043 412.462 506.55 411.86V411.86Z" fill="white"/>
<path d="M503.89 413.63C503.274 413.63 502.665 413.49 502.11 413.22C501.299 412.845 500.636 412.209 500.228 411.413C499.82 410.617 499.691 409.708 499.86 408.83L500.63 404.59L496.31 386.15C496.29 386.066 496.293 385.979 496.317 385.896C496.342 385.814 496.388 385.739 496.45 385.68C496.509 385.62 496.582 385.576 496.662 385.551C496.743 385.527 496.828 385.523 496.91 385.54L506.4 387.7C506.492 387.72 506.576 387.765 506.643 387.83C506.711 387.896 506.758 387.979 506.78 388.07L511.18 406.88C511.196 406.957 511.194 407.036 511.175 407.112C511.156 407.188 511.12 407.259 511.07 407.32L506.93 412.19C506.559 412.636 506.094 412.996 505.569 413.245C505.044 413.494 504.471 413.625 503.89 413.63V413.63ZM497.47 386.7L501.63 404.46C501.651 404.529 501.651 404.601 501.63 404.67L500.84 409.01C500.719 409.67 500.819 410.352 501.125 410.949C501.43 411.546 501.924 412.026 502.53 412.315C503.136 412.603 503.82 412.683 504.477 412.543C505.133 412.403 505.725 412.05 506.16 411.54L510.16 406.86L505.89 388.6L497.47 386.7Z" fill="#231F20"/>
<path d="M495.56 404.85C503.243 404.85 509.47 398.622 509.47 390.94C509.47 383.258 503.243 377.03 495.56 377.03C487.878 377.03 481.65 383.258 481.65 390.94C481.65 398.622 487.878 404.85 495.56 404.85Z" fill="white"/>
<path d="M495.57 405.36C492.67 405.359 489.838 404.485 487.442 402.851C485.047 401.217 483.199 398.899 482.14 396.2V396.2C481.1 393.546 480.87 390.644 481.48 387.859C482.09 385.075 483.511 382.534 485.565 380.558C487.619 378.582 490.213 377.259 493.019 376.757C495.824 376.255 498.716 376.596 501.327 377.738C503.939 378.879 506.154 380.77 507.691 383.17C509.228 385.57 510.019 388.372 509.964 391.222C509.908 394.071 509.009 396.841 507.38 399.179C505.75 401.518 503.464 403.321 500.81 404.36C499.142 405.021 497.364 405.36 495.57 405.36V405.36ZM483.07 395.83C484.036 398.3 485.713 400.429 487.889 401.946C490.064 403.464 492.641 404.302 495.293 404.354C497.945 404.407 500.553 403.672 502.787 402.242C505.022 400.813 506.782 398.752 507.845 396.322C508.908 393.892 509.227 391.201 508.761 388.59C508.295 385.979 507.064 383.564 505.226 381.652C503.387 379.74 501.023 378.416 498.432 377.848C495.841 377.28 493.14 377.493 490.67 378.46C487.363 379.761 484.706 382.319 483.281 385.575C481.857 388.831 481.781 392.518 483.07 395.83V395.83Z" fill="#231F20"/>
<path d="M494.39 388L491.749 389L488.569 384.07L489.799 389.76L486.289 391.14L482.39 386.49L484.249 391.93L479.669 393.73C479.669 393.73 476.119 382 490.489 378C504.859 374 508.489 385.88 508.489 385.88C508.489 385.88 510.769 388.46 507.549 397.95C507.756 395.376 507.723 392.788 507.45 390.22C507.378 389.766 507.143 389.355 506.789 389.063C506.435 388.77 505.986 388.618 505.527 388.634C505.068 388.65 504.631 388.833 504.298 389.149C503.965 389.466 503.759 389.893 503.719 390.35L503.309 396.29C503.309 396.29 499.76 385.85 494.39 388Z" fill="#231F20"/>
<path d="M507.57 398.44H507.47C507.35 398.418 507.243 398.351 507.17 398.252C507.098 398.154 507.066 398.031 507.08 397.91C507.275 395.372 507.238 392.821 506.97 390.29C506.92 389.958 506.75 389.656 506.492 389.441C506.234 389.226 505.906 389.114 505.57 389.125C505.235 389.136 504.915 389.27 504.672 389.501C504.428 389.733 504.278 390.045 504.25 390.38L503.83 396.32C503.82 396.436 503.772 396.546 503.692 396.631C503.612 396.717 503.506 396.772 503.39 396.79C503.275 396.803 503.159 396.777 503.061 396.715C502.962 396.653 502.888 396.56 502.85 396.45C502.85 396.39 500.64 390.08 497.27 388.52C496.853 388.314 496.396 388.199 495.93 388.183C495.464 388.168 495.001 388.252 494.57 388.43L491.93 389.43C491.821 389.47 491.701 389.472 491.591 389.435C491.48 389.399 491.385 389.327 491.32 389.23L489.64 386.62L490.29 389.62C490.318 389.737 490.303 389.859 490.248 389.966C490.193 390.072 490.102 390.155 489.99 390.2L486.47 391.57C486.374 391.609 486.268 391.616 486.168 391.591C486.067 391.566 485.977 391.51 485.91 391.43L483.73 388.84L484.73 391.74C484.773 391.862 484.766 391.996 484.712 392.113C484.658 392.231 484.561 392.323 484.44 392.37L479.87 394.16C479.805 394.187 479.736 394.201 479.665 394.201C479.595 394.201 479.525 394.187 479.46 394.16C479.339 394.092 479.246 393.982 479.2 393.85C478.391 390.716 478.779 387.393 480.29 384.53C482.11 381.21 485.5 378.85 490.36 377.53C504.36 373.64 508.58 384.53 508.97 385.66C509.37 386.22 511.04 389.32 508.06 398.12C508.023 398.218 507.955 398.302 507.867 398.359C507.779 398.417 507.675 398.445 507.57 398.44ZM495.82 387.17C496.467 387.178 497.105 387.324 497.69 387.6C500.17 388.75 501.99 391.97 502.98 394.1L503.25 390.3C503.283 389.708 503.536 389.149 503.96 388.734C504.384 388.32 504.949 388.079 505.542 388.06C506.134 388.041 506.713 388.246 507.163 388.632C507.612 389.019 507.9 389.561 507.97 390.15C508.124 391.398 508.204 392.653 508.21 393.91C509.55 388.04 508.15 386.22 508.13 386.2C508.088 386.146 508.054 386.085 508.03 386.02C507.89 385.56 504.33 374.66 490.62 378.47C486.03 379.75 482.85 381.95 481.15 385.02C479.876 387.481 479.48 390.304 480.03 393.02L483.62 391.61L481.91 386.61C481.872 386.499 481.874 386.378 481.916 386.268C481.958 386.158 482.038 386.067 482.14 386.01C482.243 385.955 482.362 385.937 482.477 385.959C482.591 385.98 482.695 386.041 482.77 386.13L486.44 390.5L489.22 389.41L488.08 384.14C488.052 384.026 488.066 383.906 488.12 383.801C488.173 383.697 488.262 383.615 488.37 383.57C488.479 383.523 488.602 383.516 488.715 383.551C488.829 383.586 488.926 383.66 488.99 383.76L491.99 388.34L494.25 387.46C494.752 387.269 495.284 387.171 495.82 387.17V387.17Z" fill="#231F20"/>
<path d="M505.3 471.65C502.878 471.636 500.466 471.347 498.11 470.79C491.61 469.29 486.34 464 482.85 455.5C482.799 455.377 482.8 455.238 482.852 455.116C482.903 454.993 483.001 454.895 483.125 454.845C483.248 454.795 483.386 454.795 483.509 454.847C483.632 454.898 483.729 454.997 483.78 455.12C487.14 463.31 492.17 468.39 498.33 469.81C510.61 472.65 518.58 467.81 525.33 462.04C525.38 461.998 525.439 461.966 525.502 461.947C525.564 461.927 525.63 461.92 525.696 461.927C525.761 461.933 525.825 461.951 525.883 461.982C525.941 462.013 525.993 462.054 526.035 462.105C526.077 462.156 526.109 462.214 526.128 462.277C526.147 462.339 526.154 462.405 526.148 462.471C526.142 462.536 526.123 462.6 526.093 462.658C526.062 462.716 526.02 462.768 525.97 462.81C520.44 467.5 514.09 471.65 505.3 471.65Z" fill="#231F20"/>
<path d="M506 462.59C502.55 462.59 499.65 460.8 497.38 457.24C489.82 445.4 491.92 436.76 493.76 429.13C495.36 422.53 496.76 416.83 491.76 410.24C491.68 410.132 491.645 409.997 491.664 409.864C491.683 409.732 491.753 409.611 491.86 409.53C491.913 409.491 491.973 409.463 492.037 409.448C492.101 409.432 492.168 409.429 492.233 409.44C492.298 409.45 492.36 409.473 492.416 409.507C492.473 409.542 492.521 409.587 492.56 409.64C497.78 416.64 496.28 422.81 494.7 429.36C492.9 436.8 490.86 445.22 498.18 456.7C500.33 460.06 503.04 461.7 506.28 461.59C514.63 461.29 524.53 449.82 530.62 438.59C530.651 438.531 530.692 438.479 530.743 438.437C530.794 438.394 530.853 438.362 530.916 438.343C530.979 438.323 531.046 438.317 531.112 438.323C531.178 438.329 531.242 438.349 531.3 438.38C531.359 438.41 531.411 438.452 531.453 438.503C531.495 438.555 531.527 438.614 531.545 438.677C531.564 438.741 531.57 438.808 531.562 438.873C531.554 438.939 531.533 439.003 531.5 439.06C525.27 450.55 515.07 462.28 506.32 462.59H506Z" fill="#231F20"/>
<path d="M507.55 530.7C496.101 530.758 484.851 527.706 475 521.87C474.944 521.836 474.894 521.791 474.855 521.738C474.816 521.685 474.787 521.625 474.771 521.56C474.756 521.496 474.753 521.43 474.763 521.364C474.773 521.299 474.796 521.236 474.83 521.18C474.902 521.069 475.014 520.991 475.143 520.961C475.272 520.931 475.407 520.952 475.52 521.02C489.33 529.55 514.02 534.9 538.16 521.92C538.279 521.859 538.416 521.848 538.543 521.887C538.67 521.926 538.777 522.013 538.84 522.13C538.872 522.188 538.891 522.252 538.897 522.318C538.904 522.384 538.897 522.451 538.877 522.514C538.858 522.577 538.826 522.636 538.784 522.687C538.741 522.738 538.689 522.779 538.63 522.81C529.09 527.989 518.406 530.701 507.55 530.7V530.7Z" fill="#231F20"/>
<path d="M509.86 514.26C505.45 514.26 499.3 511.54 492.86 508.7C488.091 506.42 483.153 504.515 478.09 503C478.024 502.984 477.962 502.954 477.908 502.914C477.853 502.874 477.808 502.823 477.773 502.765C477.738 502.707 477.715 502.643 477.705 502.576C477.695 502.509 477.698 502.441 477.715 502.375C477.731 502.309 477.76 502.248 477.801 502.193C477.841 502.139 477.891 502.093 477.949 502.058C478.007 502.023 478.072 502 478.139 501.99C478.206 501.98 478.274 501.984 478.34 502C483.463 503.521 488.462 505.437 493.29 507.73C501.51 511.37 509.29 514.8 512.97 512.44C514.53 511.44 515.31 509.44 515.37 506.31C515.55 494.95 500.17 492.31 486.61 490.08C484.41 489.71 482.34 489.36 480.34 488.98C480.209 488.953 480.094 488.877 480.019 488.766C479.945 488.656 479.916 488.521 479.94 488.39C479.966 488.259 480.043 488.145 480.153 488.07C480.263 487.995 480.399 487.966 480.53 487.99C482.53 488.37 484.59 488.72 486.77 489.09C500.77 491.44 516.57 494.09 516.37 506.33C516.31 509.82 515.37 512.09 513.51 513.33C512.409 513.987 511.141 514.311 509.86 514.26V514.26Z" fill="#231F20"/>
<path d="M529.85 493.26C525.02 493.26 519.8 491.67 514.31 488.54C501.74 481.38 490.71 475.24 482.87 472.54C482.808 472.518 482.75 472.485 482.701 472.441C482.652 472.397 482.611 472.344 482.583 472.284C482.554 472.225 482.537 472.16 482.533 472.094C482.529 472.028 482.538 471.962 482.56 471.9C482.582 471.838 482.615 471.78 482.659 471.731C482.703 471.681 482.756 471.641 482.816 471.612C482.875 471.584 482.94 471.567 483.006 471.563C483.072 471.559 483.138 471.568 483.2 471.59C491.11 474.34 502.2 480.51 514.81 487.69C520.243 490.79 525.343 492.317 530.11 492.27C530.243 492.27 530.37 492.323 530.464 492.416C530.557 492.51 530.61 492.637 530.61 492.77C530.61 492.903 530.557 493.03 530.464 493.124C530.37 493.217 530.243 493.27 530.11 493.27L529.85 493.26Z" fill="#231F20"/>
<path d="M503.76 609.46C489.58 609.46 475.21 602.64 464.01 590.26C463.964 590.214 463.927 590.16 463.902 590.1C463.876 590.04 463.863 589.975 463.863 589.91C463.863 589.845 463.876 589.78 463.902 589.72C463.927 589.66 463.964 589.606 464.01 589.56C464.057 589.513 464.112 589.476 464.173 589.451C464.234 589.425 464.299 589.412 464.365 589.412C464.431 589.412 464.497 589.425 464.558 589.451C464.619 589.476 464.674 589.513 464.72 589.56C477.97 604.2 495.72 610.93 512.17 607.56C521.8 605.56 527.26 603.2 528.85 600.24C530.06 597.98 529.03 595.46 527.95 592.8C526.77 589.88 525.43 586.58 527.07 583.25C529.18 578.99 535.69 575.49 547.58 572.25C549.01 571.85 550.46 571.52 552.01 571.25C552.141 571.23 552.275 571.261 552.383 571.337C552.492 571.414 552.566 571.53 552.59 571.66C552.614 571.79 552.585 571.924 552.51 572.032C552.435 572.141 552.32 572.216 552.19 572.24C550.67 572.52 549.25 572.84 547.85 573.24C536.41 576.37 529.91 579.79 527.97 583.72C526.52 586.65 527.72 589.6 528.88 592.45C530.04 595.3 531.16 598.07 529.73 600.74C527.97 604.03 522.45 606.52 512.37 608.58C509.537 609.16 506.653 609.455 503.76 609.46V609.46Z" fill="#231F20"/>
<path d="M498.87 584.17C498.697 584.184 498.523 584.184 498.35 584.17C495.11 583.49 492.5 576.42 489.2 567.46C485.12 556.46 480.04 542.65 472.37 538.39C472.312 538.358 472.261 538.315 472.22 538.263C472.179 538.211 472.149 538.151 472.131 538.088C472.112 538.024 472.107 537.958 472.115 537.892C472.122 537.826 472.143 537.763 472.175 537.705C472.207 537.647 472.25 537.596 472.302 537.555C472.354 537.514 472.413 537.484 472.477 537.466C472.541 537.448 472.607 537.442 472.673 537.45C472.739 537.457 472.802 537.478 472.86 537.51C480.86 541.95 486 555.9 490.14 567.11C493.08 575.11 495.86 582.62 498.56 583.19C498.943 583.224 499.329 583.158 499.68 582.998C500.03 582.839 500.333 582.591 500.56 582.28C504.25 578.43 502.06 570.39 500.12 563.28C498.38 556.91 496.88 551.41 499.58 549.28C502.28 547.15 509.24 549.36 521.75 556.6C530.75 561.79 539.82 562.11 547.99 557.51C548.105 557.462 548.233 557.459 548.351 557.499C548.468 557.539 548.567 557.621 548.628 557.729C548.69 557.837 548.71 557.964 548.684 558.086C548.659 558.207 548.59 558.316 548.49 558.39C539.98 563.16 530.57 562.84 521.25 557.46C509.46 550.65 502.57 548.23 500.19 550.07C498.02 551.74 499.51 557.19 501.09 562.97C503.09 570.32 505.37 578.65 501.29 582.9C500.993 583.264 500.626 583.564 500.21 583.783C499.794 584.001 499.338 584.133 498.87 584.17V584.17Z" fill="#231F20"/>
<path d="M515 624.59C514.92 624.591 514.842 624.573 514.771 624.538C514.7 624.504 514.638 624.453 514.59 624.39C514.551 624.337 514.523 624.277 514.507 624.213C514.492 624.149 514.489 624.082 514.499 624.017C514.509 623.952 514.532 623.89 514.567 623.834C514.601 623.777 514.646 623.729 514.7 623.69C524.82 616.14 537.56 614.35 552.57 618.36C556.711 619.571 561.08 619.784 565.32 618.98C565.384 618.967 565.45 618.966 565.515 618.979C565.579 618.991 565.641 619.017 565.695 619.053C565.75 619.089 565.797 619.136 565.834 619.19C565.871 619.244 565.896 619.306 565.91 619.37C565.924 619.434 565.926 619.501 565.914 619.566C565.902 619.631 565.877 619.693 565.84 619.748C565.804 619.803 565.757 619.85 565.702 619.887C565.647 619.923 565.585 619.948 565.52 619.96C561.132 620.796 556.608 620.58 552.32 619.33C537.61 615.4 525.16 617.14 515.32 624.49C515.228 624.56 515.115 624.595 515 624.59Z" fill="#231F20"/>
<path d="M470.1 630.49C470.001 630.493 469.903 630.465 469.82 630.41C465.887 627.863 462.283 624.84 459.09 621.41C459.043 621.363 459.006 621.308 458.981 621.247C458.955 621.186 458.942 621.121 458.942 621.055C458.942 620.989 458.955 620.924 458.981 620.863C459.006 620.802 459.043 620.746 459.09 620.7C459.136 620.653 459.19 620.616 459.25 620.591C459.311 620.566 459.375 620.553 459.44 620.553C459.505 620.553 459.57 620.566 459.63 620.591C459.69 620.616 459.745 620.653 459.79 620.7C462.928 624.08 466.472 627.059 470.34 629.57C470.451 629.645 470.527 629.761 470.553 629.891C470.579 630.022 470.553 630.158 470.48 630.27C470.437 630.332 470.38 630.384 470.315 630.422C470.249 630.46 470.176 630.483 470.1 630.49V630.49Z" fill="#231F20"/>
<path d="M510.75 440.78C509.45 440.78 508.36 439.55 507.3 436.93C503.19 426.74 511.55 414.68 519.3 406.36C519.393 406.268 519.519 406.217 519.65 406.217C519.78 406.217 519.906 406.268 520 406.36C520.046 406.406 520.084 406.462 520.109 406.523C520.134 406.584 520.147 406.649 520.147 406.715C520.147 406.781 520.134 406.846 520.109 406.907C520.084 406.968 520.046 407.024 520 407.07C512.46 415.18 504.3 426.88 508.21 436.58C509.06 438.69 509.93 439.8 510.73 439.81C512.73 439.81 515.27 433.68 517.73 427.81C519.94 422.49 522.44 416.46 525.31 412.65C525.348 412.596 525.397 412.551 525.454 412.517C525.51 412.483 525.573 412.46 525.638 412.451C525.704 412.441 525.77 412.445 525.834 412.462C525.898 412.48 525.958 412.509 526.01 412.55C526.113 412.631 526.182 412.749 526.201 412.88C526.219 413.01 526.187 413.143 526.11 413.25C523.31 416.96 520.84 422.93 518.66 428.19C515.74 435.19 513.42 440.78 510.75 440.78Z" fill="#231F20"/>
<path d="M501.15 678.68L505.62 684.14H479.85L501.15 678.68Z" fill="#231F20"/>
<path d="M505.62 684.65H479.85C479.728 684.649 479.61 684.604 479.518 684.523C479.426 684.442 479.367 684.331 479.35 684.21C479.334 684.088 479.364 683.964 479.434 683.862C479.505 683.761 479.61 683.689 479.73 683.66L501 678.2C501.094 678.177 501.192 678.181 501.284 678.211C501.376 678.241 501.457 678.296 501.52 678.37L505.98 683.83C506.042 683.902 506.081 683.991 506.093 684.085C506.106 684.179 506.091 684.274 506.05 684.36C506.011 684.442 505.95 684.513 505.874 684.564C505.799 684.615 505.711 684.645 505.62 684.65V684.65ZM483.82 683.65H504.56L500.96 679.26L483.82 683.65Z" fill="#231F20"/>
<path d="M533.94 678.68L538.4 684.14H512.64L533.94 678.68Z" fill="#231F20"/>
<path d="M538.4 684.65H512.64C512.507 684.667 512.373 684.631 512.267 684.549C512.161 684.468 512.092 684.348 512.075 684.215C512.057 684.082 512.093 683.948 512.175 683.842C512.257 683.736 512.377 683.667 512.51 683.65L533.81 678.19C533.902 678.166 533.999 678.169 534.09 678.199C534.181 678.229 534.26 678.285 534.32 678.36L538.789 683.82C538.849 683.893 538.887 683.981 538.9 684.075C538.912 684.169 538.898 684.264 538.859 684.35C538.818 684.438 538.754 684.513 538.672 684.566C538.591 684.619 538.497 684.648 538.4 684.65V684.65ZM516.609 683.65H537.349L533.75 679.26L516.609 683.65Z" fill="#231F20"/>
<path d="M535.39 453.87H535.29L528 452.42C527.867 452.395 527.75 452.318 527.674 452.206C527.598 452.095 527.57 451.958 527.595 451.825C527.62 451.692 527.697 451.575 527.809 451.499C527.92 451.423 528.057 451.395 528.19 451.42L535.48 452.86C535.609 452.889 535.721 452.966 535.794 453.076C535.867 453.186 535.894 453.32 535.87 453.45C535.851 453.565 535.793 453.67 535.706 453.746C535.618 453.823 535.506 453.867 535.39 453.87V453.87Z" fill="#231F20"/>
<path d="M603.907 571.26L254.535 327.263L241.005 346.636L590.377 590.633L603.907 571.26Z" fill="#231F20"/>
<path d="M719.25 635.888L551.385 518.653C540.142 510.801 524.663 513.55 516.811 524.793L516.748 524.883C508.896 536.126 511.645 551.605 522.888 559.457L690.753 676.692C701.996 684.544 717.475 681.795 725.327 670.552L725.39 670.462C733.242 659.219 730.493 643.74 719.25 635.888Z" fill="#231F20"/>
<path d="M249.66 509.3C344.095 509.3 420.65 432.745 420.65 338.31C420.65 243.875 344.095 167.32 249.66 167.32C155.225 167.32 78.6699 243.875 78.6699 338.31C78.6699 432.745 155.225 509.3 249.66 509.3Z" fill="#231F20"/>
<path d="M373 424.42C353.629 452.18 325.461 472.595 293.05 482.362C260.639 492.13 225.881 490.678 194.397 478.243C162.913 465.808 136.544 443.116 119.555 413.838C102.566 384.559 95.9505 350.406 100.778 316.901C105.605 283.396 121.593 252.499 146.156 229.207C170.719 205.915 202.421 191.59 236.135 188.548C269.848 185.506 303.602 193.926 331.938 212.445C360.273 230.964 381.534 258.5 392.28 290.6C399.735 312.863 401.874 336.561 398.526 359.799C395.178 383.036 386.436 405.167 373 424.42V424.42Z" fill="white"/>
<path d="M249.34 489.23C221.781 489.157 194.769 481.539 171.233 467.204C147.697 452.868 128.535 432.361 115.826 407.908C103.118 383.455 97.3469 355.989 99.1403 328.489C100.934 300.989 110.223 274.505 126 251.91C173.64 183.71 267.88 166.98 336.09 214.62C358.839 230.518 376.766 252.378 387.903 277.799C399.04 303.22 402.956 331.219 399.219 358.72C394.877 390.368 380.609 419.824 358.468 442.851C336.327 465.878 307.453 481.29 276 486.87C267.199 488.436 258.278 489.225 249.34 489.23V489.23ZM249.87 188.48C224.105 188.449 198.767 195.062 176.304 207.681C153.84 220.299 135.009 238.496 121.63 260.514C108.251 282.533 100.774 307.629 99.9232 333.38C99.0721 359.131 104.875 384.666 116.771 407.52C128.668 430.374 146.256 449.774 167.837 463.848C189.418 477.922 214.264 486.194 239.975 487.865C265.685 489.535 291.392 484.549 314.613 473.386C337.835 462.223 357.786 445.262 372.539 424.14L372.95 424.42L372.539 424.14C386.229 404.663 395.028 382.176 398.19 358.58C401.93 331.261 398.055 303.44 386.991 278.183C375.928 252.926 358.106 231.214 335.49 215.44C310.396 197.872 280.501 188.459 249.87 188.48V188.48Z" fill="#231F20"/>
<path d="M132.57 432.74C113.805 409.441 102.413 381.076 99.8496 351.27C221.05 333.4 236.35 339.01 210.94 296.85C192.62 266.45 288.66 242.75 354.4 230.38C371.686 247.115 384.68 267.772 392.28 290.6C343.7 294.29 282.08 307.82 316.52 354.66C350.68 401.12 228.59 422.93 132.57 432.74Z" fill="white"/>
<path d="M132.57 433.24C132.495 433.239 132.421 433.221 132.353 433.189C132.286 433.156 132.227 433.108 132.18 433.05C113.318 409.694 101.884 381.224 99.3497 351.31C99.3356 351.184 99.3718 351.058 99.4505 350.958C99.5292 350.859 99.6439 350.795 99.7696 350.78C117.27 348.2 132.44 346.12 145.83 344.29C193.65 337.75 215.48 334.77 219.96 325.42C222.79 319.5 218.82 310.9 210.51 297.11C209.186 295.113 208.394 292.811 208.209 290.423C208.023 288.034 208.45 285.637 209.45 283.46C215.33 270.35 245.23 250.46 354.3 229.89C354.378 229.872 354.46 229.875 354.537 229.898C354.614 229.92 354.684 229.963 354.74 230.02C372.059 246.833 385.09 267.557 392.74 290.45C392.765 290.521 392.773 290.597 392.762 290.672C392.752 290.747 392.723 290.818 392.68 290.88C392.637 290.943 392.581 290.996 392.515 291.034C392.449 291.072 392.376 291.095 392.3 291.1C359.41 293.6 318.25 300.83 308.93 321.1C304.73 330.25 307.41 341.44 316.93 354.35C323.02 362.62 324.45 370.55 321.18 377.9C307.33 409.13 211 425.23 132.62 433.24H132.57ZM100.39 351.7C102.977 381.154 114.253 409.175 132.79 432.21C274.1 417.75 312.73 394.48 320.26 377.51C323.36 370.51 321.97 362.92 316.12 354.95C306.39 341.73 303.67 330.2 308.04 320.69C313.28 309.29 332.04 294.76 391.6 290.15C383.996 267.732 371.19 247.435 354.23 230.92C305.1 240.18 221.37 259.32 210.37 283.87C209.437 285.899 209.04 288.134 209.215 290.36C209.39 292.587 210.132 294.731 211.37 296.59C219.86 310.68 223.89 319.52 220.86 325.85C216.15 335.69 194.16 338.7 145.97 345.28C132.7 347.1 117.68 349.15 100.39 351.7Z" fill="#231F20"/>
<path d="M110.49 676.85L122.76 625.34L109.1 633.71L106.24 676.85H110.49Z" fill="white"/>
<path d="M110.49 677.36H106.24C106.171 677.36 106.102 677.346 106.039 677.318C105.975 677.291 105.918 677.25 105.871 677.2C105.824 677.149 105.788 677.089 105.766 677.024C105.743 676.958 105.734 676.889 105.74 676.82L108.6 633.68C108.604 633.599 108.629 633.52 108.67 633.45C108.712 633.381 108.77 633.322 108.84 633.28L122.5 624.91C122.581 624.854 122.677 624.823 122.775 624.823C122.873 624.823 122.969 624.854 123.05 624.91C123.131 624.967 123.193 625.047 123.229 625.14C123.265 625.232 123.272 625.333 123.25 625.43L111 677C110.967 677.108 110.899 677.202 110.806 677.267C110.714 677.332 110.603 677.365 110.49 677.36V677.36ZM106.77 676.36H110.09L121.99 626.36L109.58 634L106.77 676.36Z" fill="#231F20"/>
<path d="M59.2904 676.85L57.9004 600.46L74.3304 601.23L63.9904 676.85H59.2904Z" fill="white"/>
<path d="M64.0002 677.36H59.3002C59.1683 677.357 59.0427 677.304 58.9494 677.211C58.8562 677.117 58.8027 676.992 58.8002 676.86L57.4102 600.47C57.413 600.332 57.4664 600.201 57.5602 600.1C57.6633 600.005 57.8 599.955 57.9402 599.96L74.3701 600.73C74.4396 600.733 74.5076 600.751 74.5697 600.783C74.6318 600.814 74.6867 600.858 74.7309 600.911C74.7752 600.965 74.8077 601.027 74.8265 601.094C74.8453 601.161 74.85 601.231 74.8401 601.3L64.5002 676.92C64.4834 677.041 64.4237 677.152 64.3319 677.233C64.2401 677.314 64.1224 677.359 64.0002 677.36ZM59.8002 676.36H63.5702L73.7701 601.72L58.4202 601L59.8002 676.36Z" fill="#231F20"/>
<path d="M93.3097 414.59H83.7197L94.3597 392.74H103.95L93.3097 414.59Z" fill="white"/>
<path d="M93.3103 415.09H83.7203C83.6366 415.09 83.5543 415.069 83.481 415.029C83.4076 414.988 83.3454 414.93 83.3003 414.86C83.2608 414.784 83.2402 414.7 83.2402 414.615C83.2402 414.53 83.2608 414.446 83.3003 414.37L93.9403 392.52C93.9824 392.437 94.0467 392.366 94.126 392.317C94.2054 392.268 94.2968 392.241 94.3903 392.24H104C104.084 392.24 104.166 392.261 104.24 392.301C104.313 392.342 104.375 392.4 104.42 392.47C104.46 392.546 104.48 392.63 104.48 392.715C104.48 392.8 104.46 392.884 104.42 392.96L93.7803 414.81C93.7366 414.896 93.6692 414.969 93.586 415.018C93.5028 415.068 93.4071 415.093 93.3103 415.09V415.09ZM84.5203 414.09H93.0003L103.16 393.24H94.6903L84.5203 414.09Z" fill="#231F20"/>
<path d="M97.3604 404.32C104.932 404.32 111.07 398.182 111.07 390.61C111.07 383.038 104.932 376.9 97.3604 376.9C89.7886 376.9 83.6504 383.038 83.6504 390.61C83.6504 398.182 89.7886 404.32 97.3604 404.32Z" fill="white"/>
<path d="M97.3604 404.82C94.5499 404.82 91.8026 403.987 89.4657 402.425C87.1289 400.864 85.3076 398.644 84.2321 396.048C83.1565 393.451 82.8751 390.594 83.4234 387.838C83.9717 385.081 85.3251 382.549 87.3124 380.562C89.2997 378.575 91.8317 377.221 94.5882 376.673C97.3446 376.125 100.202 376.406 102.798 377.482C105.395 378.557 107.614 380.378 109.176 382.715C110.737 385.052 111.57 387.799 111.57 390.61C111.565 394.377 110.066 397.988 107.403 400.652C104.739 403.316 101.127 404.815 97.3604 404.82ZM97.3604 377.41C94.7473 377.41 92.1929 378.185 90.0203 379.637C87.8477 381.089 86.1545 383.153 85.155 385.567C84.1555 387.981 83.8945 390.638 84.405 393.201C84.9155 395.764 86.1746 398.117 88.0231 399.964C89.8715 401.811 92.2263 403.069 94.7894 403.577C97.3526 404.086 100.009 403.823 102.423 402.822C104.836 401.82 106.899 400.125 108.349 397.952C109.799 395.778 110.572 393.223 110.57 390.61C110.568 387.108 109.175 383.751 106.698 381.276C104.221 378.8 100.862 377.41 97.3604 377.41Z" fill="#231F20"/>
<path d="M133.96 582.33L121.74 654.19H103.03L112.37 584.3L89.4802 493.85L79.6602 583.01L73.1002 654.19H56.4902L58.2902 585.91V474.09H120.45L133.96 582.33Z" fill="#231F20"/>
<path d="M120.45 438.58V474.09H58.2796V438.58C58.2458 430.612 61.2722 422.936 66.7342 417.135C72.1962 411.334 79.6768 407.852 87.632 407.407C95.5872 406.961 103.41 409.587 109.485 414.742C115.56 419.898 119.424 427.188 120.28 435.11C120.402 436.262 120.459 437.421 120.45 438.58V438.58Z" fill="#F5CFCE"/>
<path d="M120.45 474.6H58.2804C58.1486 474.597 58.0229 474.544 57.9297 474.451C57.8364 474.358 57.783 474.232 57.7804 474.1V438.58C57.7057 434.385 58.4675 430.217 60.0213 426.32C61.5751 422.422 63.8897 418.873 66.8301 415.88C69.7704 412.887 73.2775 410.51 77.1467 408.887C81.0159 407.264 85.1696 406.428 89.3654 406.428C93.5611 406.428 97.7149 407.264 101.584 408.887C105.453 410.51 108.96 412.887 111.901 415.88C114.841 418.873 117.156 422.422 118.709 426.32C120.263 430.217 121.025 434.385 120.95 438.58V474.1C120.95 474.233 120.898 474.36 120.804 474.454C120.71 474.547 120.583 474.6 120.45 474.6ZM58.7804 473.6H120V438.6C119.998 437.461 119.935 436.322 119.81 435.19C118.962 427.402 115.158 420.236 109.182 415.169C103.207 410.103 95.515 407.523 87.6929 407.96C79.8708 408.397 72.5146 411.819 67.1408 417.52C61.767 423.22 58.7853 430.766 58.8104 438.6L58.7804 473.6Z" fill="#231F20"/>
<path d="M82.3199 681.98H58.8799L59.0699 676.85H63.7699L82.3199 681.98Z" fill="#231F20"/>
<path d="M82.3201 682.48H58.8801C58.813 682.482 58.7462 682.469 58.6842 682.443C58.6222 682.417 58.5663 682.379 58.5201 682.33C58.4713 682.282 58.4335 682.224 58.4093 682.16C58.3851 682.097 58.3752 682.028 58.3801 681.96L58.5701 676.84C58.5752 676.71 58.6298 676.587 58.7228 676.496C58.8157 676.405 58.94 676.352 59.0701 676.35H63.7701H63.9001L82.4502 681.48C82.5828 681.497 82.7031 681.566 82.7847 681.672C82.8662 681.778 82.9024 681.912 82.8852 682.045C82.8679 682.178 82.7987 682.298 82.6927 682.38C82.5868 682.461 82.4528 682.497 82.3201 682.48ZM59.4001 681.48H78.6301L63.7001 677.36H59.5501L59.4001 681.48Z" fill="#231F20"/>
<path d="M131.11 681.98H105.75L106.24 676.85H110.49L131.11 681.98Z" fill="#231F20"/>
<path d="M131.11 682.48H105.75C105.68 682.48 105.612 682.466 105.548 682.438C105.484 682.411 105.427 682.37 105.38 682.32C105.332 682.27 105.295 682.21 105.273 682.144C105.25 682.079 105.243 682.009 105.25 681.94L105.74 676.81C105.75 676.684 105.807 676.567 105.899 676.482C105.992 676.397 106.114 676.35 106.24 676.35H110.49H110.61L131.23 681.48C131.347 681.509 131.45 681.579 131.518 681.679C131.586 681.779 131.615 681.9 131.6 682.02C131.592 682.145 131.537 682.262 131.446 682.347C131.355 682.433 131.234 682.48 131.11 682.48V682.48ZM106.3 681.48H127L110.41 677.36H106.67L106.3 681.48Z" fill="#231F20"/>
<path d="M117.67 374.46C115.2 369 109.13 374.22 109.13 374.22C109.13 374.22 119.19 360.8 108.13 359.86C103.98 359.5 101.13 361.53 98.8504 364.41C97.2604 366.41 95.6104 368.31 93.8504 370.13C96.0204 367.13 97.1904 364.2 94.0704 363.89C88.7204 363.35 87.6504 372.05 87.4304 375.79C86.9104 376.16 86.3804 376.53 85.8404 376.87C71.6504 385.87 81.1704 403.08 90.4604 404.6C101.79 406.45 102.46 400.37 102.46 400.37C102.46 400.37 97.7204 403.44 97.3204 398.68C96.9704 394.51 102.22 396.4 102.22 396.4V396.19C101.996 393.15 102.729 390.117 104.316 387.514C105.904 384.912 108.265 382.872 111.07 381.68C114.82 380.07 119 377.45 117.67 374.46Z" fill="#231F20"/>
<path d="M94.4901 405.45C93.1293 405.439 91.7716 405.319 90.4301 405.09C85.0501 404.21 79.8001 398.46 78.4801 391.99C77.7401 388.34 77.6801 381.47 85.6201 376.45C86.0868 376.15 86.5468 375.84 87.0001 375.52C87.2001 372.29 88.0001 366.8 90.6901 364.52C91.1628 364.107 91.7166 363.798 92.3159 363.612C92.9152 363.426 93.5468 363.367 94.1701 363.44C94.6135 363.433 95.0503 363.547 95.433 363.771C95.8157 363.995 96.1295 364.32 96.3401 364.71C96.5808 365.355 96.5808 366.065 96.3401 366.71C97.0201 365.92 97.7301 365.06 98.4801 364.14C100.29 361.9 103.26 358.97 108.19 359.4C110.88 359.63 112.64 360.61 113.4 362.31C114.75 365.31 112.53 369.83 110.93 372.46C112.196 371.695 113.686 371.391 115.15 371.6C115.831 371.772 116.459 372.106 116.982 372.575C117.505 373.043 117.906 373.632 118.15 374.29V374.29C118.337 374.691 118.439 375.126 118.451 375.568C118.463 376.01 118.384 376.449 118.22 376.86C117.32 379.18 113.97 381.03 111.32 382.18C108.615 383.333 106.336 385.301 104.804 387.811C103.271 390.321 102.56 393.247 102.77 396.18V396.39C102.777 396.474 102.762 396.559 102.727 396.636C102.692 396.713 102.638 396.78 102.57 396.83C102.504 396.881 102.426 396.914 102.344 396.926C102.262 396.938 102.178 396.929 102.1 396.9C101.4 396.65 99.3701 396.16 98.4201 396.9C98.1825 397.124 98.007 397.406 97.9106 397.718C97.8142 398.029 97.8002 398.361 97.8701 398.68C97.9601 399.76 98.2901 400.45 98.8701 400.68C99.8701 401.2 101.66 400.33 102.24 399.95C102.322 399.901 102.415 399.874 102.51 399.874C102.605 399.874 102.699 399.901 102.78 399.95C102.859 400.001 102.922 400.073 102.963 400.158C103.003 400.242 103.02 400.337 103.01 400.43C102.894 401.087 102.65 401.715 102.291 402.278C101.933 402.841 101.467 403.327 100.92 403.71C99.0265 404.981 96.7665 405.593 94.4901 405.45V405.45ZM93.6401 364.37C92.7936 364.363 91.9744 364.669 91.3401 365.23C88.7301 367.46 88.1201 373.38 87.9801 375.82C87.9767 375.895 87.9559 375.969 87.9195 376.035C87.8831 376.1 87.832 376.157 87.7701 376.2C87.2401 376.57 86.7101 376.95 86.1601 377.29C78.7201 382 78.7701 388.39 79.4601 391.79C80.6801 397.79 85.6701 403.3 90.5901 404.1C94.9601 404.82 98.3201 404.41 100.29 402.9C100.839 402.496 101.292 401.977 101.62 401.38C101.128 401.634 100.589 401.782 100.036 401.817C99.4836 401.851 98.9299 401.771 98.4101 401.58C97.9175 401.288 97.5132 400.868 97.2403 400.364C96.9674 399.86 96.836 399.292 96.8601 398.72C96.7725 398.233 96.8131 397.732 96.9779 397.265C97.1427 396.799 97.4261 396.384 97.8001 396.06C98.9201 395.2 100.72 395.47 101.71 395.72C101.594 392.657 102.41 389.631 104.051 387.042C105.692 384.452 108.081 382.422 110.9 381.22C114.4 379.71 116.66 378.02 117.26 376.46C117.379 376.173 117.435 375.865 117.427 375.555C117.418 375.245 117.344 374.94 117.21 374.66C117.029 374.151 116.728 373.693 116.333 373.324C115.938 372.955 115.46 372.686 114.94 372.54C112.52 372.01 109.49 374.54 109.46 374.6C109.368 374.683 109.249 374.729 109.125 374.729C109.001 374.729 108.882 374.683 108.79 374.6C108.702 374.513 108.648 374.399 108.637 374.276C108.626 374.153 108.659 374.031 108.73 373.93C108.79 373.86 114.22 366.53 112.49 362.68C111.89 361.34 110.42 360.56 108.11 360.37C104.69 360.07 101.95 361.37 99.2701 364.74C97.4301 367.01 95.8401 368.84 94.2701 370.49C94.175 370.574 94.0523 370.621 93.9251 370.621C93.798 370.621 93.6752 370.574 93.5801 370.49C93.4828 370.408 93.4203 370.292 93.4055 370.166C93.3906 370.039 93.4245 369.912 93.5001 369.81C95.6801 366.76 95.6401 365.51 95.4301 365.04C95.2201 364.57 94.8001 364.43 94.0701 364.36C93.9267 364.354 93.7831 364.357 93.6401 364.37Z" fill="#231F20"/>
<path d="M116.72 654.69H116.63C116.565 654.679 116.503 654.655 116.448 654.62C116.392 654.585 116.344 654.539 116.307 654.485C116.27 654.431 116.244 654.37 116.23 654.305C116.217 654.241 116.217 654.174 116.23 654.11L128.93 583L107.88 474.19C107.855 474.057 107.883 473.92 107.959 473.809C108.035 473.697 108.152 473.62 108.285 473.595C108.418 473.57 108.555 473.598 108.666 473.674C108.778 473.75 108.855 473.867 108.88 474L129.95 582.91C129.965 582.972 129.965 583.037 129.95 583.1L117.22 654.28C117.201 654.397 117.139 654.504 117.047 654.579C116.955 654.655 116.839 654.694 116.72 654.69Z" fill="white"/>
<path d="M92.5901 506.63C92.478 506.629 92.3693 506.592 92.2807 506.523C92.1922 506.454 92.1287 506.358 92.1001 506.25L89.1001 494.25L76.1701 488.64C76.0496 488.585 75.9551 488.486 75.9066 488.363C75.8581 488.239 75.8593 488.102 75.9101 487.98C75.9362 487.919 75.974 487.865 76.0214 487.819C76.0687 487.773 76.1247 487.737 76.186 487.713C76.2474 487.689 76.3129 487.677 76.3788 487.678C76.4447 487.679 76.5098 487.694 76.5701 487.72L89.7201 493.43C89.7907 493.462 89.8533 493.508 89.9035 493.567C89.9537 493.626 89.9901 493.695 90.0101 493.77L93.1101 506.05C93.1265 506.113 93.1302 506.179 93.1209 506.243C93.1117 506.308 93.0896 506.37 93.0561 506.426C93.0226 506.481 92.9783 506.53 92.9257 506.569C92.8732 506.607 92.8135 506.635 92.7501 506.65C92.696 506.661 92.6398 506.654 92.5901 506.63V506.63Z" fill="#231F20"/>
<path d="M105.19 411.83L145.69 474.09L168.34 488.73L186.72 484.44L180.72 494.79L196.72 500.9C196.72 500.9 158.79 518.39 124.47 478.17C93.0904 441.4 105.19 411.83 105.19 411.83Z" fill="white"/>
<path d="M176.36 505.09C162.13 505.09 142.51 500.09 124.08 478.49C107.79 459.4 103.39 442.26 102.56 431.25C101.67 419.25 104.56 411.94 104.72 411.64C104.754 411.554 104.811 411.479 104.886 411.424C104.96 411.37 105.048 411.337 105.14 411.33C105.231 411.324 105.321 411.341 105.404 411.38C105.486 411.418 105.557 411.477 105.61 411.55L146.05 473.73L168.44 488.2L186.6 484C186.696 483.976 186.797 483.982 186.889 484.015C186.982 484.048 187.063 484.108 187.121 484.187C187.18 484.266 187.214 484.361 187.219 484.459C187.225 484.558 187.201 484.655 187.15 484.74L181.46 494.58L196.89 500.48C196.981 500.519 197.06 500.583 197.116 500.664C197.173 500.746 197.205 500.841 197.21 500.94C197.211 501.038 197.184 501.134 197.133 501.217C197.082 501.3 197.008 501.367 196.92 501.41C190.368 503.95 183.387 505.2 176.36 505.09ZM105.36 412.96C103.69 418.28 97.1705 445.37 124.88 477.84C155.22 513.42 188.75 503.37 195.36 500.91L180.59 495.26C180.522 495.234 180.46 495.194 180.408 495.142C180.357 495.09 180.317 495.028 180.29 494.96C180.261 494.894 180.246 494.822 180.246 494.75C180.246 494.678 180.261 494.606 180.29 494.54L185.69 485.19L168.45 489.19C168.384 489.206 168.315 489.207 168.248 489.195C168.181 489.183 168.117 489.158 168.06 489.12L145.41 474.48C145.349 474.447 145.297 474.399 145.26 474.34L105.36 412.96Z" fill="#231F20"/>
<path d="M531.1 423.49C531.1 423.49 526.21 503.42 477.53 513.76C477.53 513.76 460.34 517.07 459.46 499.27L472.61 499.87L501.08 474.13L514.35 433.24C518.92 421.7 531.1 423.49 531.1 423.49Z" fill="white"/>
<path d="M474.38 514.52C470.776 514.62 467.239 513.526 464.32 511.41C461.03 508.82 459.23 504.75 458.96 499.29V498.74L472.46 499.36L500.68 473.85L513.91 433.08C518.58 421.28 531.08 422.98 531.21 422.99L531.66 423.06V423.52C530.465 437.607 527.595 451.502 523.11 464.91C513.48 492.91 497.78 509.99 477.69 514.26C476.596 514.442 475.489 514.529 474.38 514.52V514.52ZM460 499.8C460.34 504.67 462 508.31 464.94 510.62C470.05 514.62 477.36 513.29 477.43 513.27C523.24 503.54 530.05 430.56 530.57 423.93C528.33 423.74 518.74 423.51 514.82 433.42L501.52 474.42L472.8 500.42L460 499.8Z" fill="#231F20"/>
<path d="M127.31 433.65L109.47 461.05C109.47 461.05 92.73 440.05 105.19 411.83L127.31 433.65Z" fill="#F5CFCE"/>
<path d="M109.47 461.55C109.396 461.552 109.322 461.537 109.254 461.506C109.186 461.475 109.127 461.428 109.08 461.37C108.91 461.15 92.2902 439.78 104.73 411.62C104.763 411.546 104.814 411.481 104.877 411.431C104.941 411.381 105.016 411.347 105.096 411.332C105.176 411.317 105.258 411.322 105.335 411.346C105.412 411.37 105.483 411.413 105.54 411.47L127.67 433.29C127.749 433.375 127.797 433.484 127.808 433.6C127.819 433.715 127.792 433.831 127.73 433.93L109.89 461.33C109.846 461.396 109.786 461.45 109.717 461.488C109.647 461.527 109.57 461.548 109.49 461.55H109.47ZM105.36 412.7C101.98 420.314 100.582 428.66 101.295 436.96C102.008 445.26 104.81 453.244 109.44 460.17L126.67 433.72L105.36 412.7Z" fill="#231F20"/>
</svg>
