<svg width="1077" height="797" viewBox="0 0 1077 797" fill="none" xmlns="http://www.w3.org/2000/svg">
<path d="M692.54 370.78L58.4697 432.45V1.21001L692.54 124.54V370.78Z" fill="white"/>
<path d="M57.8799 433.11V0.479996L58.5899 0.619995L693.13 124.05V371.33H692.59L57.8799 433.11ZM59.0699 1.92999V431.79L691.94 370.24V125L59.0699 1.92999Z" fill="#231F20"/>
<path d="M613.13 231L574 483.64C581.13 455.45 684.71 291.64 630.12 121.31L614.32 223.31L632.6 231H613.13Z" fill="#2B4E47"/>
<path d="M574.59 483.79L573.42 483.55L612.62 230.41H629.62L613.62 223.68L629.88 118.68L630.65 121.09C675.83 262.09 612.6 399.09 585.6 457.58C579.94 470 575.81 479 574.59 483.79ZM613.65 231.61L575.65 477.19C577.65 472.14 580.79 465.4 584.65 457.12C611.44 399.12 673.96 263.62 630.41 123.92L615.07 222.92L635.63 231.59L613.65 231.61Z" fill="#2B4E47"/>
<path d="M522.13 126.1L567.79 134L524.41 142.07L531.47 191.42L567.79 187L533.35 204.63L573.63 486.12C573.63 486.12 655.11 87.8 504.49 2.8L522.13 126.1Z" fill="#607A75"/>
<path d="M573.52 489.6L532.7 204.29L564.53 188L531 192.11L523.77 141.61L564.42 134L521.6 126.58L521.54 126.15L503.72 1.64999L504.78 2.24001C539.28 21.71 564.39 59.3 579.41 113.98C591.41 157.65 597.03 212.26 596.14 276.3C594.61 385.3 574.41 485.2 574.21 486.2L573.52 489.6ZM534 205L573.71 482.58C577.25 464.06 593.57 373.85 594.93 276.35C595.83 212.42 590.21 157.93 578.25 114.35C563.47 60.56 538.91 23.42 505.25 3.94L522.66 125.61L571.16 134.02L525.08 142.6L531.98 190.8L571.05 186L534 205Z" fill="#607A75"/>
<path d="M477 331.14L495.84 321.21L481.76 338.79L573.66 486.12C573.66 486.12 556.37 292.5 447.66 284.19L477 331.14Z" fill="#95A6A3"/>
<path d="M574.44 488.56L481 338.75L493.56 323.07L476.75 331.93L446.55 283.5L447.73 283.59C472.67 285.5 494.85 297.36 513.65 318.85C528.65 336 541.54 359.29 551.96 388.07C569.69 437.02 574.18 485.58 574.22 486.07L574.44 488.56ZM482.44 338.83L572.75 483.61C571.56 472.97 566.17 430.85 550.81 388.45C540.44 359.82 527.63 336.66 512.72 319.63C494.46 298.73 473 287 448.82 284.88L477.18 330.35L498.07 319.35L482.44 338.83Z" fill="#231F20"/>
<path d="M502.2 416.91L522.35 438.12L502.2 728.19C502.195 732.753 502.668 737.305 503.61 741.77C504.047 743.846 504.587 745.899 505.23 747.92C508.523 758.343 514.367 767.778 522.23 775.37C517.506 780.33 514.873 786.92 514.88 793.77H620.88C620.882 786.861 618.208 780.221 613.42 775.24C621.232 767.678 627.037 758.288 630.31 747.92C630.95 745.92 631.49 743.86 631.94 741.77C632.878 737.304 633.351 732.753 633.35 728.19L613.23 438.12L633.38 416.91H502.2Z" fill="white"/>
<path d="M621.5 794.36H514.32V793.77C514.314 786.973 516.846 780.418 521.42 775.39C513.691 767.796 507.937 758.427 504.66 748.1C504 746 503.45 743.91 503.03 741.89C502.076 737.386 501.596 732.794 501.6 728.19L521.73 438.34L500.81 416.34H634.81L613.88 438.34L634 728.15C634.004 732.767 633.528 737.372 632.58 741.89C632.137 743.986 631.59 746.059 630.94 748.1C627.691 758.37 621.986 767.693 614.32 775.26C618.968 780.302 621.543 786.912 621.53 793.77L621.5 794.36ZM515.5 793.17H620.3C620.158 786.622 617.551 780.369 613 775.66L612.59 775.23L613.02 774.82C620.752 767.318 626.501 758.013 629.75 747.74C630.391 745.736 630.929 743.7 631.36 741.64C632.295 737.218 632.764 732.71 632.76 728.19L612.62 437.9L632 417.5H503.59L523 437.9V438.16L502.8 728.23C502.8 732.736 503.266 737.23 504.19 741.64C504.61 743.64 505.19 745.64 505.8 747.74C509.078 758.066 514.876 767.414 522.67 774.94L523.1 775.35L522.69 775.78C520.445 778.141 518.664 780.902 517.44 783.92C516.231 786.857 515.58 789.994 515.52 793.17H515.5Z" fill="#231F20"/>
<path d="M798.85 426.58C798.85 426.58 755.51 444.88 755.51 538L793.66 537L798.85 426.58Z" fill="#F5CFCE"/>
<path d="M754.92 538.56V538C754.92 511.38 758.69 474 776.69 447.08C787.49 430.91 798.17 426.27 798.62 426.08L799.49 425.71V426.65L794.27 537.6L754.92 538.56ZM798.21 427.56C795.43 429.03 786.47 434.49 777.62 447.79C760 474.25 756.17 511 756.11 537.34L793.11 536.34L798.21 427.56Z" fill="#231F20"/>
<path d="M888.34 785.12L873.95 783.76L834.97 792.87L890.6 793.2L888.34 785.12Z" fill="#231F20"/>
<path d="M891.39 793.8L829.92 793.44L873.92 783.16L888.81 784.56L891.39 793.8ZM840 792.3L889.79 792.6L887.85 785.67L873.97 784.37L840 792.3Z" fill="#231F20"/>
<path d="M733.53 785.72L724.73 783.14L681.36 792.23L733.25 792.53L733.53 785.72Z" fill="#231F20"/>
<path d="M733.82 793.13L675.76 792.79L724.76 782.53L734.16 785.28L733.82 793.13ZM687 791.66L732.71 791.93L732.95 786.16L724.75 783.76L687 791.66Z" fill="#231F20"/>
<path d="M918.76 796.59L859.9 584.3C855.68 571.3 846.9 563.3 836.97 563.5C826.72 563.74 817.97 572.5 814.17 586.4L766.22 791.78L761.57 790.7L809.57 585.23C813.97 569.13 824.44 559.01 836.89 558.73C848.89 558.46 859.57 567.73 864.49 582.93L923.38 795.31L918.76 796.59Z" fill="#231F20"/>
<path d="M892.56 459.05H831.719C813.107 459.05 798.02 474.138 798.02 492.75V523.98C798.02 542.592 813.107 557.68 831.719 557.68H892.56C911.172 557.68 926.26 542.592 926.26 523.98V492.75C926.26 474.138 911.172 459.05 892.56 459.05Z" fill="white"/>
<path d="M886.05 558.28H838.23C827.41 558.267 817.038 553.963 809.388 546.312C801.737 538.662 797.433 528.289 797.42 517.47V499.26C797.433 488.441 801.737 478.068 809.388 470.418C817.038 462.767 827.41 458.463 838.23 458.45H886.05C896.869 458.463 907.242 462.767 914.892 470.418C922.543 478.068 926.847 488.441 926.86 499.26V517.47C926.847 528.289 922.543 538.662 914.892 546.312C907.242 553.963 896.869 558.267 886.05 558.28V558.28ZM838.23 459.65C827.727 459.661 817.657 463.837 810.23 471.263C802.802 478.688 798.623 488.757 798.61 499.26V517.47C798.623 527.974 802.802 538.044 810.229 545.471C817.656 552.898 827.726 557.077 838.23 557.09H886.05C896.553 557.077 906.622 552.898 914.047 545.47C921.473 538.043 925.649 527.973 925.66 517.47V499.26C925.647 488.759 921.469 478.692 914.044 471.266C906.618 463.841 896.551 459.663 886.05 459.65H838.23Z" fill="#231F20"/>
<path d="M212.95 793.99H197.94L261.38 540.7H276.39L212.95 793.99Z" fill="white"/>
<path d="M213.42 794.58H197.18L197.36 793.84L260.92 540.1H277.15L276.97 540.84L213.42 794.58ZM198.71 793.39H212.49L275.63 541.29H261.85L198.71 793.39Z" fill="#231F20"/>
<path d="M304.56 793.99H291.29L315.2 130.77H328.46L304.56 793.99Z" fill="#231F20"/>
<path d="M305.14 794.58H290.68V793.96L314.6 130.18H329.06V130.8L305.14 794.58ZM291.91 793.39H304L327.86 131.39H315.77L291.91 793.39Z" fill="#231F20"/>
<path d="M518.9 793.99H503.9L453.15 540.7H468.15L518.9 793.99Z" fill="white"/>
<path d="M519.63 794.58H503.41L503.31 794.1L452.42 540.1H468.64L468.74 540.58L519.63 794.58ZM504.39 793.39H518.18L467.66 541.29H453.87L504.39 793.39Z" fill="#231F20"/>
<path d="M486.02 540.43H250.22L206.13 210.17H441.93L486.02 540.43Z" fill="white"/>
<path d="M486.7 541H249.7L249.63 540.49L205.45 209.57H442.45L442.52 210.09L486.7 541ZM250.7 539.81H485.3L441.41 210.77H206.81L250.7 539.81Z" fill="#231F20"/>
<path d="M425.8 309.45H246.69L236.21 230.94H415.31L425.8 309.45Z" fill="white"/>
<path d="M426.48 310.05H246.17L235.53 230.35H415.84L426.48 310.05ZM247.21 308.86H425.12L414.79 231.54H236.89L247.21 308.86Z" fill="#231F20"/>
<path d="M295.06 341.83H268.21L257.72 263.32H284.57L295.06 341.83Z" fill="white"/>
<path d="M295.74 342.43H267.68L257 262.72H285.1L295.74 342.43ZM268.74 341.23H294.39L284.06 263.92H258.4L268.74 341.23Z" fill="#231F20"/>
<path d="M497.21 529.93H224.18V551.46H497.21V529.93Z" fill="white"/>
<path d="M497.8 552.05H223.58V529.34H497.8V552.05ZM224.8 550.86H496.61V530.53H224.77L224.8 550.86Z" fill="#231F20"/>
<path d="M313.13 484.81C331.869 484.81 347.06 469.619 347.06 450.88C347.06 432.141 331.869 416.95 313.13 416.95C294.391 416.95 279.2 432.141 279.2 450.88C279.2 469.619 294.391 484.81 313.13 484.81Z" fill="white"/>
<path d="M313.13 485.41C306.3 485.41 299.624 483.385 293.946 479.591C288.267 475.796 283.842 470.404 281.228 464.094C278.615 457.785 277.931 450.842 279.263 444.144C280.595 437.445 283.884 431.293 288.713 426.464C293.542 421.634 299.695 418.346 306.393 417.013C313.091 415.681 320.034 416.365 326.344 418.978C332.653 421.592 338.046 426.018 341.84 431.696C345.634 437.375 347.66 444.051 347.66 450.88C347.649 460.035 344.008 468.811 337.534 475.285C331.061 481.758 322.284 485.399 313.13 485.41V485.41ZM313.13 417.54C306.536 417.54 300.09 419.495 294.607 423.159C289.124 426.822 284.851 432.029 282.327 438.121C279.804 444.213 279.144 450.917 280.43 457.384C281.717 463.852 284.892 469.792 289.555 474.455C294.217 479.118 300.158 482.293 306.625 483.579C313.093 484.866 319.796 484.206 325.888 481.682C331.98 479.159 337.187 474.885 340.851 469.403C344.514 463.92 346.47 457.474 346.47 450.88C346.459 442.041 342.943 433.567 336.693 427.317C330.443 421.067 321.969 417.551 313.13 417.54Z" fill="#231F20"/>
<path d="M412.74 383.49C419.948 383.49 425.79 377.647 425.79 370.44C425.79 363.233 419.948 357.39 412.74 357.39C405.533 357.39 399.69 363.233 399.69 370.44C399.69 377.647 405.533 383.49 412.74 383.49Z" fill="white"/>
<path d="M412.74 384.09C410.04 384.09 407.401 383.289 405.156 381.79C402.912 380.29 401.162 378.158 400.129 375.664C399.096 373.169 398.825 370.425 399.352 367.777C399.879 365.129 401.179 362.697 403.088 360.788C404.997 358.879 407.429 357.579 410.077 357.052C412.725 356.526 415.469 356.796 417.963 357.829C420.458 358.862 422.59 360.612 424.089 362.856C425.589 365.101 426.39 367.74 426.39 370.44C426.385 374.059 424.945 377.527 422.386 380.086C419.827 382.645 416.358 384.085 412.74 384.09V384.09ZM412.74 357.99C410.275 357.99 407.866 358.721 405.816 360.091C403.767 361.46 402.17 363.407 401.227 365.684C400.285 367.961 400.038 370.467 400.52 372.885C401.002 375.302 402.189 377.522 403.933 379.264C405.676 381.006 407.897 382.192 410.315 382.672C412.733 383.151 415.238 382.903 417.515 381.959C419.792 381.014 421.737 379.415 423.105 377.365C424.473 375.315 425.202 372.905 425.2 370.44C425.195 367.139 423.879 363.975 421.543 361.642C419.207 359.31 416.041 358 412.74 358V357.99Z" fill="#231F20"/>
<path d="M309.33 396.89C307.836 393.15 306.692 389.28 305.91 385.33L307.08 385.1C307.848 388.968 308.97 392.757 310.43 396.42L309.33 396.89ZM306 373.37H304.81C304.893 369.302 305.794 365.292 307.46 361.58L308.54 362.08C306.953 365.638 306.09 369.476 306 373.37V373.37ZM388 358C387 357.67 386 357.34 385 357L385.36 355.86L388.36 356.86L388 358ZM373.62 353.61C369.62 352.51 365.74 351.61 362.07 350.78L362.32 349.61C366.01 350.4 369.92 351.36 373.94 352.46L373.62 353.61ZM316 353.33L315.33 352.33C318.733 350.111 322.532 348.569 326.52 347.79L326.77 348.95C322.932 349.705 319.275 351.192 316 353.33V353.33ZM350.31 348.7C346.39 348.18 342.443 347.903 338.49 347.87V346.68C342.503 346.71 346.511 346.99 350.49 347.52L350.31 348.7Z" fill="#231F20"/>
<path d="M440.45 421.46H375.45V422.65H440.45V421.46Z" fill="#231F20"/>
<path d="M442.29 437.63H377.29V438.82H442.29V437.63Z" fill="#231F20"/>
<path d="M445.61 453.8H380.61V454.99H445.61V453.8Z" fill="#231F20"/>
<path d="M447.96 469.97H382.96V471.16H447.96V469.97Z" fill="#231F20"/>
<path d="M451.19 486.13H386.19V487.32H451.19V486.13Z" fill="#231F20"/>
<path d="M590.45 793.74L582.5 793.77L657.24 538.66L665.19 538.63L590.45 793.74Z" fill="#231F20"/>
<path d="M581.7 794.37L656.79 538.06H665.99L590.9 794.36L581.7 794.37ZM657.7 539.25L583.3 793.17H590.01L664.39 539.26L657.7 539.25Z" fill="#231F20"/>
<path d="M954.45 792.75H946.49L1022.41 537.95H1030.37L954.45 792.75Z" fill="#231F20"/>
<path d="M954.89 793.34H945.69L1021.97 537.34H1031.17L954.89 793.34ZM947.29 792.15H954L1029.57 538.55H1022.86L947.29 792.15Z" fill="#231F20"/>
<path d="M1067.97 792.75H1075.92L1000 537.95H992.05L1067.97 792.75Z" fill="white"/>
<path d="M1076.72 793.34H1067.52L991.24 537.34H1000.45L1076.72 793.34ZM1068.41 792.15H1075.12L999.55 538.55H992.85L1068.41 792.15Z" fill="#231F20"/>
<path d="M703.97 793.26L711.92 793.23L634.82 538.75L626.87 538.78L703.97 793.26Z" fill="white"/>
<path d="M703.53 793.86L703.4 793.44L626.06 538.19H635.26L635.39 538.62L712.73 793.86H703.53ZM627.67 539.38L704.41 792.67H711.12L634.38 539.35L627.67 539.38Z" fill="#231F20"/>
<path d="M921.06 601.05C921.06 614.05 882.65 624.6 835.26 624.6C787.87 624.6 749.46 614.06 749.46 601.05C749.46 588.04 787.87 607.85 835.26 607.85C882.65 607.85 921.06 588 921.06 601.05Z" fill="white"/>
<path d="M835.26 625.2C786.81 625.2 748.86 614.59 748.86 601.05C748.82 600.368 748.939 599.685 749.208 599.057C749.477 598.429 749.889 597.872 750.41 597.43C754.01 594.52 763.41 596.54 777.58 599.61C792.58 602.83 813.06 607.26 835.26 607.26C857.46 607.26 877.96 602.83 892.93 599.61C907.13 596.54 916.5 594.52 920.1 597.43C920.624 597.871 921.038 598.427 921.308 599.056C921.579 599.684 921.7 600.367 921.66 601.05C921.66 614.59 883.71 625.2 835.26 625.2ZM756.03 597.2C753.81 597.2 752.16 597.54 751.16 598.35C750.778 598.681 750.479 599.096 750.286 599.563C750.094 600.03 750.013 600.536 750.05 601.04C750.05 613.7 788.28 624.04 835.26 624.04C882.24 624.04 920.46 613.74 920.46 601.04C920.5 600.537 920.421 600.031 920.23 599.564C920.039 599.097 919.741 598.681 919.36 598.35C916.2 595.8 906.55 597.88 893.19 600.76C878.19 604 857.59 608.44 835.26 608.44C812.93 608.44 792.35 604 777.33 600.76C768.2 598.8 760.81 597.21 756 597.21L756.03 597.2Z" fill="#231F20"/>
<path d="M724.73 783.14L730.391 561.11L872.26 554.6L813.42 607.25L768.531 600.91L733.531 785.72L724.73 783.14Z" fill="white"/>
<path d="M734 786.48L724.13 783.59L729.81 560.54L873.91 553.93L813.63 607.93L769 601.58L734 786.48ZM725.35 782.7L733.08 784.96L768.08 600.24L813.26 606.62L870.64 555.28L731 561.68L725.35 782.7Z" fill="#231F20"/>
<path d="M793.66 603.52L874 783.76L888.39 785.12L838.06 618.45L839.94 617.73C850.749 613.615 859.884 606.025 865.908 596.152C871.933 586.279 874.505 574.684 873.22 563.19L872.22 554.6L793.66 603.52Z" fill="white"/>
<path d="M889.16 785.8L873.55 784.33L873.41 784.01L792.91 603.29L872.74 553.6L873.81 563.13C875.111 574.755 872.511 586.483 866.417 596.469C860.324 606.454 851.084 614.131 840.15 618.29L838.8 618.81L889.16 785.8ZM874.36 783.2L887.51 784.44L837.33 618.09L839.73 617.18C850.416 613.112 859.446 605.608 865.4 595.847C871.354 586.086 873.894 574.622 872.62 563.26L871.77 555.61L794.42 603.75L874.36 783.2Z" fill="#231F20"/>
<path d="M845.24 764.07H879.76L838.06 618.45L856.83 611.3C862.806 609.028 867.856 604.834 871.187 599.378C874.518 593.922 875.94 587.513 875.23 581.16L872.23 554.6L730.36 561.11L717.91 764.11H738.41L768.5 600.95L793.63 603.56L845.24 764.07Z" fill="#231F20"/>
<path d="M880.56 764.66H844.81L844.68 764.25L793.21 604.08L769 601.56L738.92 764.66H717.3V764.03L729.78 560.54L872.78 553.98L875.78 581.09C876.506 587.574 875.056 594.116 871.659 599.686C868.261 605.256 863.108 609.539 857.01 611.86L838.75 618.81L880.56 764.66ZM845.68 763.47H879L837.34 618.09L856.62 610.74C862.47 608.517 867.415 604.411 870.674 599.068C873.933 593.725 875.321 587.449 874.62 581.23L871.71 555.23L731 561.68L718.57 763.47H737.94L768 600.26L794.11 603L794.23 603.37L845.68 763.47Z" fill="#231F20"/>
<path d="M894.61 536.51L872.26 531.39V554.61L784.57 557.68L777.15 470.68C777.03 469.3 776.97 467.94 776.97 466.58C776.98 454.83 781.334 443.499 789.194 434.766C797.055 426.033 807.866 420.514 819.55 419.27C833.26 417.8 850.07 420.38 859.66 428.62C863.91 432.07 869.8 438.62 876.19 446.54C883.01 454.92 890.38 464.75 896.99 473.84C908.37 489.47 917.46 502.9 917.46 502.9C928.06 519.29 913.75 540.34 894.61 536.51Z" fill="#F5CFCE"/>
<path d="M784 558.3V557.74L776.58 470.74C776.46 469.33 776.4 467.97 776.4 466.59C776.388 454.685 780.789 443.198 788.753 434.349C796.718 425.5 807.68 419.917 819.52 418.68C831.63 417.39 849.52 419.1 860.07 428.18C863.97 431.33 869.56 437.39 876.69 446.18C882.63 453.49 889.63 462.68 897.5 473.5C908.76 488.96 917.9 502.44 917.99 502.57C920.412 506.309 921.676 510.679 921.627 515.133C921.577 519.587 920.215 523.928 917.712 527.612C915.208 531.297 911.673 534.161 907.55 535.846C903.427 537.532 898.898 537.965 894.53 537.09V537.09L872.9 532.09V555.09H872.33L784 558.3ZM826.92 419.49C824.475 419.488 822.032 419.615 819.6 419.87C808.062 421.087 797.384 426.535 789.627 435.163C781.871 443.792 777.586 454.988 777.6 466.59C777.6 467.93 777.6 469.26 777.77 470.59L785.15 557.02L871.69 554.02V530.64L894.77 535.92C898.908 536.751 903.198 536.344 907.105 534.749C911.012 533.154 914.361 530.442 916.734 526.952C919.107 523.463 920.398 519.351 920.445 515.131C920.493 510.912 919.294 506.772 917 503.23C916.92 503.11 907.79 489.65 896.55 474.23C888.69 463.43 881.7 454.23 875.77 446.96C868.7 438.24 863.16 432.24 859.32 429.13C851 421.94 837.91 419.49 826.94 419.49H826.92Z" fill="#231F20"/>
<path d="M897 473.85C895.33 475.987 893.191 477.713 890.749 478.895C888.307 480.076 885.627 480.682 882.914 480.665C880.201 480.648 877.528 480.01 875.101 478.798C872.673 477.587 870.556 475.835 868.912 473.677C867.268 471.519 866.141 469.013 865.617 466.351C865.093 463.689 865.187 460.942 865.891 458.323C866.595 455.703 867.89 453.279 869.677 451.238C871.465 449.197 873.696 447.593 876.2 446.55C883 454.93 890.38 464.76 897 473.85Z" fill="#F5CFCE"/>
<path d="M883 481.26C878.769 481.243 874.674 479.763 871.409 477.071C868.144 474.379 865.91 470.642 865.086 466.491C864.263 462.341 864.899 458.034 866.888 454.299C868.877 450.564 872.096 447.632 876 446L876.41 445.83L876.7 446.18C882.64 453.49 889.64 462.68 897.51 473.5L897.78 473.87L897.5 474.22C895.788 476.431 893.589 478.217 891.074 479.438C888.559 480.659 885.796 481.283 883 481.26V481.26ZM876 447.26C873.645 448.318 871.56 449.893 869.899 451.87C868.239 453.846 867.046 456.172 866.411 458.674C865.775 461.176 865.712 463.789 866.228 466.318C866.743 468.847 867.823 471.227 869.387 473.281C870.951 475.334 872.959 477.008 875.261 478.177C877.562 479.346 880.098 479.98 882.678 480.032C885.259 480.084 887.818 479.552 890.165 478.476C892.511 477.401 894.584 475.809 896.23 473.82C888.62 463.36 881.82 454.43 876 447.28V447.26Z" fill="#231F20"/>
<path d="M793.66 604.12C793.545 604.121 793.431 604.087 793.335 604.023C793.239 603.958 793.164 603.867 793.12 603.76L784.53 584.23L826.64 565C826.711 564.968 826.788 564.95 826.866 564.947C826.943 564.945 827.021 564.958 827.094 564.985C827.167 565.012 827.234 565.054 827.29 565.107C827.347 565.16 827.393 565.224 827.425 565.295C827.457 565.366 827.475 565.443 827.478 565.52C827.48 565.598 827.468 565.676 827.44 565.749C827.413 565.822 827.371 565.888 827.318 565.945C827.265 566.002 827.201 566.048 827.13 566.08L786.13 584.83L794.24 603.28C794.272 603.352 794.289 603.43 794.29 603.509C794.292 603.588 794.278 603.666 794.249 603.739C794.22 603.813 794.177 603.88 794.122 603.936C794.068 603.993 794.002 604.039 793.93 604.07C793.845 604.106 793.753 604.123 793.66 604.12V604.12Z" fill="white"/>
<path d="M819.11 433.41L825.71 427.35L820.07 390.24L805.94 385.84L807.24 426.52C806.902 428.014 807.049 429.577 807.661 430.982C808.273 432.386 809.318 433.559 810.643 434.328C811.968 435.097 813.504 435.423 815.027 435.257C816.55 435.092 817.981 434.445 819.11 433.41Z" fill="white"/>
<path d="M814.28 435.94C812.893 435.934 811.533 435.558 810.34 434.85C808.902 434.039 807.764 432.785 807.097 431.275C806.43 429.765 806.27 428.079 806.64 426.47L805.32 385L820.61 389.77L826.34 427.55L819.52 433.83C818.103 435.17 816.231 435.924 814.28 435.94ZM806.57 386.66L807.84 426.58V426.65C807.522 428.02 807.651 429.457 808.208 430.749C808.765 432.041 809.721 433.121 810.936 433.83C812.15 434.54 813.56 434.842 814.959 434.693C816.358 434.543 817.673 433.95 818.71 433L825.07 427.15L819.54 390.73L806.57 386.66Z" fill="#231F20"/>
<path d="M805.86 415.95C817.547 415.95 827.02 406.476 827.02 394.79C827.02 383.104 817.547 373.63 805.86 373.63C794.174 373.63 784.7 383.104 784.7 394.79C784.7 406.476 794.174 415.95 805.86 415.95Z" fill="white"/>
<path d="M805.88 416.56C802.466 416.561 799.099 415.758 796.052 414.218C793.005 412.678 790.362 410.443 788.338 407.694C786.313 404.944 784.964 401.757 784.398 398.39C783.832 395.023 784.066 391.57 785.08 388.31V388.31C786.281 384.475 788.521 381.047 791.552 378.407C794.583 375.768 798.287 374.02 802.251 373.358C806.215 372.695 810.285 373.144 814.01 374.654C817.734 376.165 820.967 378.678 823.35 381.914C825.733 385.151 827.173 388.984 827.51 392.989C827.846 396.995 827.066 401.014 825.256 404.603C823.447 408.192 820.678 411.209 817.258 413.32C813.837 415.43 809.899 416.552 805.88 416.56V416.56ZM805.88 374.22C801.499 374.229 797.236 375.635 793.709 378.234C790.182 380.833 787.576 384.489 786.27 388.67V388.67C784.987 392.802 785.042 397.233 786.426 401.332C787.81 405.431 790.454 408.988 793.979 411.496C797.504 414.004 801.731 415.335 806.057 415.299C810.384 415.263 814.588 413.862 818.071 411.296C821.554 408.729 824.137 405.129 825.453 401.007C826.769 396.886 826.75 392.454 825.399 388.344C824.047 384.234 821.432 380.656 817.928 378.12C814.423 375.583 810.206 374.219 805.88 374.22V374.22Z" fill="#231F20"/>
<path d="M841 491.33V519.42L825.11 514.36L808.39 537C808.39 537 776.31 483.21 824.99 488.37L841 491.33Z" fill="white"/>
<path d="M808.33 538L807.87 537.23C805 532.213 802.578 526.952 800.63 521.51C796.52 509.83 796.34 500.94 800.08 495.09C804.08 488.86 812.47 486.38 825.08 487.71L841.62 490.79V520.2L825.36 515.02L808.33 538ZM818.81 488.55C810.1 488.55 804.14 490.95 801.08 495.73C793.42 507.73 805.88 531.25 808.45 535.84L824.88 513.62L840.4 518.56V491.83L824.88 488.93C822.864 488.709 820.838 488.596 818.81 488.59V488.55Z" fill="#231F20"/>
<path d="M1075.37 550.39L592.88 552.4L592.81 537.8L1075.29 535.8L1075.37 550.39Z" fill="white"/>
<path d="M592.29 553L592.21 537.22H592.81L1075.88 535.22L1076 551H1075.4L592.29 553ZM593.41 538.41L593.48 551.81L1074.77 549.81L1074.7 536.41L593.41 538.41Z" fill="#231F20"/>
<path d="M824.61 530.75H696.57V536.97H824.61V530.75Z" fill="white"/>
<path d="M825.21 537.57H696V530.15H825.21V537.57ZM697.21 536.37H824V531.37H697.17L697.21 536.37Z" fill="#231F20"/>
<path d="M793.66 536.97H693.06L677.88 470.23H778.48L793.66 536.97Z" fill="white"/>
<path d="M794.41 537.57H692.58L692.48 537.1L677.13 469.63H779L779.1 470.09L794.41 537.57ZM693.54 536.37H792.92L778 470.82H678.62L693.54 536.37Z" fill="#231F20"/>
<path d="M872.19 531.98L840.4 528.52V519.42H841.6V527.45L872.32 530.79L872.19 531.98Z" fill="#231F20"/>
<path d="M878.3 496.27H878.23L840.93 491.92C840.774 491.901 840.631 491.821 840.534 491.698C840.436 491.574 840.392 491.416 840.41 491.26C840.429 491.104 840.509 490.961 840.633 490.863C840.757 490.766 840.914 490.721 841.07 490.74L878.37 495.08C878.448 495.089 878.523 495.113 878.592 495.151C878.66 495.189 878.72 495.24 878.768 495.301C878.817 495.363 878.853 495.433 878.873 495.508C878.894 495.584 878.9 495.662 878.89 495.74C878.876 495.886 878.807 496.021 878.698 496.119C878.589 496.217 878.447 496.271 878.3 496.27V496.27Z" fill="#231F20"/>
<path d="M856.63 493.75C856.496 493.746 856.366 493.701 856.26 493.62C856.08 493.48 838.09 479.29 841.9 462.81C841.909 462.726 841.936 462.644 841.978 462.571C842.021 462.497 842.079 462.434 842.149 462.385C842.218 462.335 842.297 462.301 842.38 462.285C842.464 462.268 842.55 462.27 842.632 462.289C842.715 462.309 842.793 462.345 842.86 462.397C842.928 462.448 842.984 462.514 843.024 462.588C843.065 462.663 843.089 462.746 843.095 462.83C843.101 462.915 843.089 463 843.06 463.08C839.62 477.94 855 491 856.81 492.53L874.9 490.74C875.056 490.724 875.213 490.771 875.334 490.87C875.456 490.97 875.534 491.114 875.55 491.27C875.566 491.427 875.519 491.583 875.419 491.705C875.32 491.827 875.176 491.904 875.02 491.92L856.69 493.74L856.63 493.75Z" fill="#231F20"/>
<path d="M808.72 362.6C804.86 351.6 797.9 338.12 788.66 347C783.99 351.5 784.74 355.94 787.91 359.91C773.24 352.71 756.91 348.31 754.28 362.7C752.49 372.61 759.88 376.83 769.92 378.21C768.779 379.112 767.873 380.278 767.281 381.607C766.689 382.935 766.428 384.388 766.52 385.84C767.17 400.33 793.62 386 805.94 378.52C803.29 387.91 815.82 388.92 815.82 388.92L818.65 400.56C818.97 394.27 823.65 392.07 825.71 396.16C827.77 400.25 822.71 407.6 822.71 407.6C860 382.92 808.82 362.64 808.72 362.6Z" fill="#231F20"/>
<path d="M820.5 409.77L822.21 407.26C822.21 407.19 827.02 400.15 825.21 396.43C824.57 395.13 823.61 394.51 822.57 394.72C821.11 395.03 819.47 396.99 819.29 400.59L819 404.7L815.3 389.47C813.76 389.27 808.54 388.38 806.14 384.93C805.11 383.41 804.712 381.548 805.03 379.74C794.21 386.22 776.3 395.6 769.1 391.74C767.1 390.67 766.01 388.74 765.89 385.85C765.8 384.522 765.992 383.191 766.454 381.942C766.916 380.694 767.637 379.559 768.57 378.61C762.19 377.55 757.76 375.38 755.4 372.13C753.56 369.58 752.97 366.37 753.65 362.58C754.41 358.4 756.35 355.49 759.44 353.93C764.91 351.17 773.88 352.67 786.11 358.4C783.73 354.25 784.43 350.19 788.21 346.56C790.84 344.03 793.5 343.07 796.12 343.69C800.85 344.82 805.23 351.03 809.12 362.14C811.85 363.27 835.28 373.36 836.78 387.61C837.52 394.61 832.87 401.54 822.97 408.09L820.5 409.77ZM822.94 393.49C823.664 393.533 824.359 393.783 824.944 394.211C825.529 394.638 825.979 395.224 826.24 395.9C827.66 398.76 825.98 402.95 824.61 405.56C832.61 399.76 836.29 393.77 835.61 387.75C834.12 373.44 808.71 363.26 808.45 363.16L808.2 363.06L808.11 362.8C805.49 355.33 801.24 346.15 795.83 344.86C793.64 344.34 791.34 345.2 789.03 347.43C785.03 351.22 784.85 355.19 788.32 359.54L789.98 361.62L787.59 360.45C774.86 354.19 765.31 352.31 759.96 355.01C757.23 356.39 755.5 359.01 754.82 362.8C754.19 366.26 754.71 369.16 756.36 371.44C758.67 374.62 763.24 376.7 769.95 377.62L771.29 377.8L770.29 378.67C769.215 379.507 768.362 380.597 767.807 381.842C767.253 383.087 767.013 384.45 767.11 385.81C767.22 388.23 768.11 389.81 769.69 390.7C774.69 393.4 787.69 388.84 805.34 378.19L805.67 378.03L805.96 378.56H806.53V378.73C806.205 379.644 806.094 380.62 806.205 381.584C806.316 382.548 806.646 383.474 807.17 384.29C809.62 387.82 815.82 388.36 815.88 388.36H816.31L818.56 397.63C819.33 395.21 820.84 393.86 822.29 393.56C822.504 393.513 822.722 393.49 822.94 393.49V393.49Z" fill="#231F20"/>
<path d="M730.56 512.48C733.78 512.48 736.391 509.87 736.391 506.65C736.391 503.43 733.78 500.82 730.56 500.82C727.341 500.82 724.73 503.43 724.73 506.65C724.73 509.87 727.341 512.48 730.56 512.48Z" fill="white"/>
<path d="M730.56 513.08C729.288 513.082 728.044 512.707 726.985 512.001C725.926 511.296 725.101 510.292 724.612 509.118C724.124 507.943 723.995 506.65 724.242 505.402C724.489 504.154 725.101 503.007 726 502.107C726.899 501.207 728.044 500.593 729.292 500.344C730.54 500.095 731.833 500.222 733.009 500.709C734.184 501.195 735.189 502.019 735.896 503.077C736.603 504.134 736.98 505.378 736.98 506.65C736.977 508.353 736.301 509.985 735.097 511.19C733.894 512.395 732.263 513.075 730.56 513.08ZM730.56 501.42C729.526 501.42 728.515 501.727 727.655 502.301C726.794 502.876 726.124 503.693 725.728 504.649C725.332 505.604 725.229 506.656 725.431 507.67C725.632 508.685 726.131 509.617 726.862 510.348C727.593 511.08 728.525 511.578 729.54 511.78C730.554 511.981 731.606 511.878 732.562 511.482C733.517 511.086 734.334 510.416 734.909 509.556C735.483 508.696 735.79 507.684 735.79 506.65C735.79 505.263 735.239 503.933 734.258 502.952C733.278 501.971 731.947 501.42 730.56 501.42V501.42Z" fill="#231F20"/>
<path d="M1.33008 724.59C37.8101 674.73 91.3301 709.99 147.27 724.93C203.21 739.87 208.07 715.56 208.07 715.56L87.3401 594.71L1.33008 724.59Z" fill="#231F20"/>
<path d="M178.8 730.36C170.68 730.36 160.32 729.03 147.11 725.51C135.29 722.35 123.52 718.27 112.11 714.32C70.0696 699.73 30.3396 686 1.80957 724.94C1.71748 725.065 1.58065 725.149 1.42778 725.175C1.2749 725.201 1.11785 725.167 0.989574 725.08C0.925147 725.037 0.869891 724.981 0.826968 724.917C0.784045 724.852 0.754299 724.779 0.739436 724.703C0.724574 724.627 0.724884 724.549 0.740352 724.473C0.755819 724.397 0.786142 724.324 0.829578 724.26L86.8296 594.38C86.8777 594.307 86.941 594.245 87.0152 594.198C87.0894 594.152 87.1727 594.121 87.2596 594.11C87.3486 594.102 87.4384 594.113 87.5229 594.142C87.6074 594.172 87.6846 594.219 87.7496 594.28L208.5 715.14C208.569 715.21 208.62 715.295 208.648 715.39C208.676 715.484 208.68 715.584 208.66 715.68C208.61 715.9 207.5 721.15 200.75 725.34C196.49 728 189.65 730.36 178.8 730.36ZM50.1596 698.29C69.5496 698.29 90.7296 705.63 112.53 713.19C123.89 717.13 135.64 721.19 147.42 724.35C177.87 732.48 192.88 728.83 200.12 724.35C205.54 720.98 207.12 716.88 207.41 715.76L87.4096 595.67L7.69957 716.05C20.2996 703 34.6596 698.29 50.1596 698.29Z" fill="#231F20"/>
<path d="M102.18 405.22L62.3799 792.37H108.11L70.3099 782.68L128.63 405.22H102.18Z" fill="white"/>
<path d="M108.11 793H62.3801C62.297 792.998 62.2151 792.98 62.1394 792.945C62.0638 792.911 61.996 792.862 61.9401 792.8C61.8845 792.738 61.8425 792.665 61.8167 792.586C61.7908 792.507 61.7818 792.423 61.7901 792.34L101.59 405.19C101.605 405.043 101.673 404.907 101.782 404.807C101.891 404.708 102.033 404.652 102.18 404.65H128.63C128.716 404.652 128.8 404.672 128.877 404.708C128.954 404.744 129.024 404.796 129.08 404.86C129.134 404.927 129.175 405.003 129.199 405.086C129.223 405.168 129.23 405.255 129.22 405.34L71.0001 782.23L108.28 791.79C108.421 791.827 108.543 791.914 108.624 792.035C108.705 792.155 108.74 792.301 108.722 792.446C108.703 792.59 108.633 792.723 108.524 792.819C108.416 792.915 108.276 792.969 108.13 792.97L108.11 793ZM63.0401 791.8H103.38L70.1601 783.28C70.019 783.242 69.8965 783.155 69.8155 783.033C69.7345 782.912 69.7006 782.765 69.7201 782.62L127.93 405.84H102.72L63.0401 791.8Z" fill="#231F20"/>
<path d="M115.93 405.22L120.57 792.37H166.31L128.5 782.68L142.38 405.22H115.93Z" fill="white"/>
<path d="M166.3 793H120.57C120.414 792.997 120.266 792.934 120.156 792.824C120.046 792.714 119.983 792.566 119.98 792.41L115.33 405.25C115.332 405.092 115.397 404.941 115.51 404.83C115.563 404.772 115.629 404.726 115.701 404.695C115.773 404.664 115.851 404.649 115.93 404.65H142.38C142.541 404.654 142.694 404.718 142.81 404.83C142.865 404.889 142.907 404.958 142.935 405.034C142.962 405.109 142.974 405.19 142.97 405.27L129.12 782.27L166.45 791.84C166.589 791.879 166.71 791.965 166.792 792.084C166.874 792.203 166.912 792.346 166.9 792.49C166.878 792.633 166.806 792.763 166.695 792.857C166.585 792.951 166.445 793.002 166.3 793V793ZM121.16 791.8H161.58L128.36 783.28C128.227 783.248 128.11 783.17 128.027 783.061C127.945 782.951 127.904 782.817 127.91 782.68L141.76 405.84H116.53L121.16 791.8Z" fill="#231F20"/>
<path d="M130.59 231C130.59 231 97.3601 228.12 96.3401 266.3C95.3201 304.48 60.7301 287.3 60.9601 336.09C61.3101 407.09 172.06 383.4 172.28 328.62C172.43 287.31 145.99 308.62 151.92 272.36C157.85 236.1 130.59 231 130.59 231Z" fill="#231F20"/>
<path d="M106.71 380.82C84.4004 380.82 60.5304 369.07 60.3704 336.09C60.2404 309.76 70.0704 302.47 79.5804 295.42C87.6504 289.42 95.2704 283.79 95.7404 266.27C96.0704 253.95 99.7404 244.55 106.74 238.35C116.86 229.35 130.53 230.35 130.67 230.35H130.73C131.01 230.35 158.49 236.01 152.54 272.35C149.65 290.02 154.54 293.69 160.24 297.94C166.24 302.41 172.98 307.47 172.9 328.52C172.78 359.27 137.9 380.72 106.77 380.73L106.71 380.82ZM129.11 231.54C125.43 231.54 115.34 232.24 107.49 239.25C100.81 245.25 97.2604 254.32 96.9404 266.3C96.4504 284.4 88.6004 290.22 80.2904 296.37C71.0204 303.25 61.4304 310.37 61.5604 336.08C61.6304 350.56 66.2404 361.78 75.2604 369.42C83.1404 376.1 94.0104 379.63 106.7 379.63C137.32 379.63 171.52 358.63 171.64 328.63C171.72 308.18 165.2 303.31 159.46 299.01C153.46 294.53 148.28 290.65 151.29 272.27C157 237.35 131.94 231.89 130.47 231.61C130.39 231.58 129.89 231.54 129.11 231.54V231.54Z" fill="#231F20"/>
<path d="M149 311.34L190.44 392.28L246.85 373L253 354.8L257 368.91L286.89 373.67C286.89 373.67 276.7 396.75 248.89 386.23L203.7 419.23C197.869 423.485 190.739 425.578 183.533 425.149C176.327 424.72 169.495 421.797 164.21 416.88L134.45 389.21L149 311.34Z" fill="white"/>
<path d="M185.39 425.75C177.381 425.757 169.667 422.731 163.8 417.28L134 389.61C133.925 389.542 133.869 389.455 133.838 389.359C133.806 389.262 133.8 389.159 133.82 389.06L148.34 311.24C148.363 311.118 148.423 311.006 148.513 310.919C148.602 310.833 148.717 310.776 148.84 310.758C148.963 310.739 149.088 310.759 149.2 310.815C149.311 310.871 149.402 310.96 149.46 311.07L190.66 391.55L246.34 372.55L252.34 354.64C252.376 354.517 252.454 354.41 252.559 354.337C252.665 354.265 252.792 354.23 252.92 354.24C253.047 354.242 253.17 354.285 253.271 354.362C253.372 354.44 253.445 354.548 253.48 354.67L257.48 368.41L287 373.11C287.089 373.125 287.174 373.16 287.249 373.211C287.323 373.263 287.385 373.331 287.43 373.41C287.472 373.492 287.494 373.583 287.494 373.675C287.494 373.767 287.472 373.858 287.43 373.94C287.33 374.17 276.77 397.25 248.93 386.94L204 419.71C198.591 423.641 192.076 425.756 185.39 425.75V425.75ZM135.09 389L164.62 416.45C169.809 421.261 176.509 424.121 183.573 424.54C190.637 424.96 197.627 422.913 203.35 418.75L248.54 385.75C248.619 385.691 248.712 385.652 248.81 385.639C248.908 385.625 249.007 385.635 249.1 385.67C273.35 394.83 284.03 377.86 286.03 374.13L257 369.5C256.887 369.483 256.781 369.433 256.696 369.356C256.611 369.28 256.55 369.181 256.52 369.07L252.97 356.8L247.46 373.18C247.432 373.267 247.384 373.346 247.32 373.41C247.256 373.474 247.177 373.522 247.09 373.55L190.65 392.85C190.514 392.896 190.366 392.891 190.233 392.836C190.101 392.781 189.993 392.679 189.93 392.55L149.28 313.17L135.09 389Z" fill="#231F20"/>
<path d="M160.15 412.83V348.83C160.15 346.72 160.07 344.64 159.89 342.59C157.48 314.59 139.1 292.84 116.78 292.84C104.78 292.84 93.9601 299.11 86.1001 309.24C83.5797 312.514 81.4267 316.055 79.6801 319.8C73.9962 332.225 72.6543 346.2 75.8701 359.48L88.2101 412.8L1.33008 724.59C1.33008 724.59 43.9001 730.67 94.9701 691.59C146.04 652.51 208.07 715.59 208.07 715.59L160.15 412.83Z" fill="#F5CFCE"/>
<path d="M7.73037 725.49C5.56615 725.514 3.40238 725.411 1.25037 725.18C1.16573 725.17 1.08436 725.141 1.01185 725.096C0.939345 725.051 0.87743 724.991 0.830371 724.92C0.78511 724.848 0.755491 724.767 0.743435 724.682C0.731378 724.598 0.73715 724.512 0.760372 724.43L87.6004 412.82L75.2904 359.65C72.0549 346.235 73.4105 332.123 79.1404 319.57C80.9064 315.786 83.0828 312.208 85.6304 308.9C93.9504 298.18 105.01 292.28 116.78 292.28C139.23 292.28 158.02 313.9 160.48 342.57C160.66 344.57 160.75 346.74 160.75 348.86V412.78L208.66 715.47C208.674 715.591 208.65 715.714 208.592 715.821C208.534 715.928 208.445 716.015 208.337 716.071C208.228 716.126 208.105 716.147 207.984 716.131C207.864 716.115 207.751 716.062 207.66 715.98C196.61 705.345 184.056 696.392 170.4 689.41C150.58 679.57 121.48 672.03 95.4004 692.03C56.1704 722 21.6104 725.49 7.73037 725.49ZM2.09037 724.07C7.74037 724.61 47.8204 726.92 94.6104 691.07C115.69 674.93 142.08 673.99 170.94 688.34C184.162 695.107 196.368 703.698 207.2 713.86L159.57 412.86C159.566 412.83 159.566 412.8 159.57 412.77V348.77C159.57 346.68 159.48 344.6 159.3 342.58C156.89 314.58 138.62 293.38 116.79 293.38C105.39 293.38 94.6704 299.12 86.5904 309.54C84.0916 312.778 81.9587 316.283 80.2304 319.99C74.6213 332.302 73.2941 346.136 76.4604 359.29L88.8004 412.61C88.8254 412.705 88.8254 412.805 88.8004 412.9L2.09037 724.07Z" fill="#231F20"/>
<path d="M118.93 309.1L111.57 300.47L119.38 267.08L136.22 263.26L128.52 296.18L129.92 303.89C130.166 305.252 129.956 306.657 129.323 307.888C128.69 309.119 127.67 310.108 126.419 310.701C125.168 311.293 123.757 311.458 122.404 311.169C121.05 310.879 119.829 310.152 118.93 309.1Z" fill="white"/>
<path d="M123.65 312C122.659 311.994 121.682 311.771 120.787 311.346C119.892 310.92 119.101 310.304 118.47 309.54L111.12 300.91C111.06 300.839 111.017 300.755 110.995 300.665C110.972 300.575 110.971 300.481 110.99 300.39L118.8 267C118.826 266.891 118.882 266.791 118.962 266.712C119.041 266.632 119.141 266.576 119.25 266.55L136.09 262.73C136.188 262.709 136.291 262.713 136.387 262.742C136.484 262.771 136.571 262.824 136.642 262.896C136.713 262.967 136.764 263.056 136.792 263.153C136.82 263.249 136.822 263.352 136.8 263.45L129.13 296.25L130.51 303.83C130.811 305.325 130.596 306.877 129.9 308.234C129.204 309.591 128.069 310.672 126.68 311.3C125.735 311.756 124.699 311.995 123.65 312V312ZM112.22 300.36L119.38 308.77C120.19 309.745 121.301 310.424 122.538 310.698C123.776 310.972 125.069 310.827 126.215 310.285C127.361 309.743 128.294 308.835 128.867 307.704C129.44 306.574 129.62 305.285 129.38 304.04L127.97 296.34C127.955 296.257 127.955 296.173 127.97 296.09L135.45 264.09L119.91 267.61L112.22 300.36Z" fill="#231F20"/>
<path d="M127.23 285.75C140.866 285.75 151.92 274.696 151.92 261.06C151.92 247.424 140.866 236.37 127.23 236.37C113.594 236.37 102.54 247.424 102.54 261.06C102.54 274.696 113.594 285.75 127.23 285.75Z" fill="white"/>
<path d="M127.23 286.34C122.228 286.34 117.338 284.857 113.179 282.077C109.02 279.298 105.778 275.347 103.865 270.726C101.951 266.104 101.45 261.019 102.427 256.112C103.404 251.206 105.813 246.7 109.351 243.164C112.889 239.627 117.396 237.219 122.303 236.245C127.209 235.27 132.294 235.772 136.915 237.688C141.536 239.604 145.485 242.847 148.263 247.007C151.041 251.167 152.522 256.058 152.52 261.06C152.512 267.764 149.845 274.191 145.104 278.93C140.362 283.67 133.934 286.335 127.23 286.34V286.34ZM127.23 236.96C122.463 236.958 117.803 238.37 113.838 241.017C109.874 243.664 106.783 247.427 104.958 251.83C103.132 256.234 102.654 261.08 103.582 265.756C104.511 270.431 106.806 274.726 110.176 278.098C113.546 281.469 117.84 283.765 122.515 284.696C127.19 285.627 132.037 285.15 136.441 283.326C140.845 281.503 144.61 278.414 147.258 274.45C149.907 270.487 151.32 265.827 151.32 261.06C151.305 254.679 148.76 248.563 144.245 244.054C139.73 239.544 133.612 237.008 127.23 237V236.96Z" fill="#231F20"/>
<path d="M127.23 255.36H132.23L134.29 245.16L135.93 255.36H142.63L146.07 245.16L146.51 255.36H155.24C155.24 255.36 153.52 233.66 127.19 236.36C100.86 239.06 102.5 261.05 102.5 261.05C102.5 261.05 100.39 266.78 111.86 280.39C109.855 276.269 108.238 271.971 107.03 267.55C106.843 266.752 106.957 265.912 107.35 265.193C107.743 264.473 108.388 263.924 109.161 263.65C109.933 263.377 110.78 263.398 111.538 263.709C112.297 264.021 112.913 264.602 113.27 265.34L117.8 274.89C117.8 274.89 117 255.36 127.23 255.36Z" fill="#231F20"/>
<path d="M111.9 281C111.812 280.999 111.725 280.978 111.646 280.94C111.567 280.902 111.496 280.848 111.44 280.78C100.68 268 101.68 262 101.94 261C101.87 259.24 101.57 238.43 127.17 235.79C135.99 234.89 143.05 236.58 148.17 240.79C152.457 244.494 155.207 249.665 155.88 255.29C155.888 255.373 155.879 255.457 155.853 255.536C155.828 255.615 155.786 255.688 155.73 255.75C155.614 255.869 155.456 255.937 155.29 255.94H146.56C146.407 255.94 146.26 255.881 146.15 255.774C146.04 255.668 145.975 255.523 145.97 255.37L145.66 248.37L143.24 255.54C143.201 255.658 143.126 255.761 143.025 255.834C142.925 255.908 142.804 255.948 142.68 255.95H136C135.858 255.947 135.721 255.895 135.613 255.802C135.505 255.708 135.433 255.581 135.41 255.44L134.29 248.49L132.88 255.49C132.853 255.624 132.78 255.745 132.675 255.832C132.569 255.92 132.437 255.968 132.3 255.97H127.3C126.433 255.962 125.574 256.135 124.778 256.48C123.982 256.824 123.267 257.332 122.68 257.97C118.04 262.81 118.5 274.78 118.51 274.9C118.514 275.036 118.472 275.17 118.39 275.279C118.309 275.388 118.192 275.466 118.06 275.5C117.926 275.533 117.784 275.519 117.659 275.461C117.534 275.403 117.432 275.304 117.37 275.18L112.84 265.62C112.552 265.007 112.045 264.522 111.42 264.262C110.794 264.001 110.094 263.982 109.455 264.209C108.816 264.436 108.285 264.893 107.964 265.49C107.644 266.087 107.557 266.782 107.72 267.44C108.923 271.817 110.523 276.074 112.5 280.16C112.566 280.289 112.582 280.438 112.545 280.578C112.508 280.718 112.421 280.84 112.3 280.92C112.178 280.988 112.038 281.016 111.9 281V281ZM131.63 236.73C130.24 236.73 128.79 236.81 127.29 236.96C116.59 238.06 109.29 242.44 105.55 249.96C103.87 253.378 103.043 257.152 103.14 260.96C103.155 261.043 103.155 261.127 103.14 261.21C103.14 261.26 101.73 265.83 109.46 276.27C108.272 273.473 107.293 270.592 106.53 267.65C106.3 266.707 106.427 265.712 106.888 264.857C107.349 264.003 108.111 263.35 109.026 263.025C109.941 262.7 110.944 262.727 111.841 263.099C112.737 263.471 113.464 264.163 113.88 265.04L117.29 272.21C117.42 268.21 118.17 260.85 121.79 257.07C122.488 256.315 123.336 255.715 124.28 255.309C125.224 254.902 126.242 254.698 127.27 254.71H131.82L133.82 244.99C133.846 244.853 133.919 244.73 134.027 244.642C134.135 244.554 134.271 244.508 134.41 244.51C134.549 244.515 134.683 244.567 134.788 244.658C134.894 244.749 134.965 244.873 134.99 245.01L136.55 254.71H142.31L145.62 244.92C145.668 244.792 145.758 244.685 145.875 244.615C145.992 244.545 146.129 244.517 146.264 244.536C146.399 244.554 146.524 244.618 146.618 244.717C146.711 244.816 146.769 244.944 146.78 245.08L147.19 254.71H154.67C153.855 249.667 151.301 245.068 147.45 241.71C143.39 238.4 138.1 236.73 131.63 236.73Z" fill="#231F20"/>
<path d="M121.15 414.93C105.63 414.93 94.4195 407.59 84.5795 399.31C84.4598 399.207 84.3853 399.062 84.3722 398.904C84.3591 398.747 84.4084 398.591 84.5095 398.47C84.5596 398.41 84.6213 398.36 84.6909 398.323C84.7605 398.287 84.8366 398.265 84.9148 398.258C84.9931 398.252 85.0718 398.261 85.1465 398.285C85.2211 398.31 85.2901 398.349 85.3495 398.4C97.4495 408.58 111.65 417.32 133.57 412.25C144.57 409.69 153.57 400.62 159.57 386C159.631 385.855 159.748 385.74 159.894 385.68C160.04 385.62 160.204 385.62 160.35 385.68C160.422 385.709 160.488 385.751 160.544 385.806C160.6 385.86 160.644 385.925 160.675 385.996C160.706 386.068 160.722 386.145 160.723 386.223C160.723 386.301 160.709 386.378 160.68 386.45C154.53 401.45 145.24 410.77 133.81 413.45C129.659 414.422 125.412 414.919 121.15 414.93V414.93Z" fill="#231F20"/>
<path d="M119.9 398.86H119.27C103.86 398.32 85.8397 377.58 74.8097 357.27C74.7348 357.131 74.7181 356.967 74.763 356.816C74.808 356.664 74.911 356.536 75.0497 356.46C75.1891 356.385 75.3524 356.368 75.5041 356.413C75.6558 356.458 75.7836 356.561 75.8597 356.7C90.9397 384.47 108.55 397.29 119.31 397.7C125.13 397.91 130.08 394.95 133.94 388.9C147.01 368.42 143.38 353.4 140.17 340.15C137.37 328.58 134.72 317.65 143.91 305.38C144.005 305.247 144.149 305.158 144.311 305.132C144.472 305.106 144.637 305.145 144.77 305.24C144.902 305.335 144.992 305.48 145.018 305.641C145.044 305.802 145.005 305.967 144.91 306.1C136.05 317.91 138.52 328.1 141.37 339.87C144.63 353.35 148.37 368.63 134.99 389.54C131 395.71 125.92 398.86 119.9 398.86Z" fill="#231F20"/>
<path d="M117.15 519.74C97.9364 519.73 79.0299 514.918 62.15 505.74C62.0602 505.647 62.0031 505.527 61.987 505.398C61.971 505.27 61.997 505.139 62.0612 505.027C62.1253 504.914 62.2241 504.826 62.3429 504.774C62.4617 504.722 62.594 504.71 62.72 504.74C105.67 527.84 149.61 518.31 174.18 503.13C174.311 503.077 174.456 503.071 174.59 503.114C174.725 503.157 174.84 503.246 174.915 503.365C174.99 503.485 175.021 503.627 175.002 503.767C174.982 503.907 174.915 504.035 174.81 504.13C160.69 512.85 140.19 519.74 117.15 519.74Z" fill="#231F20"/>
<path d="M113.05 490.55C110.835 490.64 108.64 490.088 106.73 488.96C103.51 486.9 101.89 482.96 101.79 476.85C101.44 455.42 129.4 450.71 154.07 446.55C157.95 445.9 161.62 445.28 165.16 444.6C165.238 444.585 165.317 444.586 165.395 444.603C165.472 444.619 165.545 444.65 165.61 444.695C165.675 444.74 165.73 444.796 165.773 444.863C165.816 444.929 165.846 445.003 165.86 445.08C165.875 445.156 165.874 445.234 165.858 445.31C165.843 445.386 165.812 445.458 165.768 445.522C165.725 445.586 165.669 445.641 165.604 445.684C165.539 445.726 165.467 445.756 165.39 445.77C161.83 446.45 158.16 447.07 154.26 447.77C130.07 451.85 102.65 456.47 102.98 476.87C103.08 482.53 104.51 486.17 107.37 487.99C114.05 492.27 127.91 486.14 142.58 479.66C151.46 475.74 160.58 471.66 169.06 469.5C169.138 469.475 169.22 469.467 169.301 469.475C169.382 469.483 169.461 469.507 169.533 469.546C169.604 469.586 169.667 469.64 169.717 469.704C169.767 469.768 169.803 469.842 169.823 469.921C169.844 470 169.848 470.083 169.835 470.163C169.823 470.244 169.794 470.321 169.751 470.39C169.708 470.459 169.651 470.519 169.583 470.565C169.516 470.612 169.44 470.644 169.36 470.66C161.03 472.81 151.89 476.85 143.06 480.75C131.69 485.74 120.8 490.55 113.05 490.55Z" fill="#231F20"/>
<path d="M77.5701 453.28H77.0901C77.0118 453.28 76.9342 453.264 76.862 453.234C76.7897 453.204 76.7242 453.16 76.6693 453.104C76.6144 453.048 76.5711 452.982 76.5421 452.909C76.513 452.836 76.4988 452.758 76.5001 452.68C76.5027 452.523 76.5671 452.373 76.6793 452.262C76.7916 452.152 76.9427 452.09 77.1001 452.09V452.09C85.5501 452.17 94.7101 449.45 104.4 443.92C126.77 431.18 146.4 420.23 160.4 415.37C160.549 415.317 160.712 415.325 160.855 415.393C160.997 415.46 161.107 415.581 161.16 415.73C161.213 415.878 161.205 416.042 161.137 416.185C161.07 416.327 160.949 416.437 160.8 416.49C146.93 421.32 127.32 432.24 105 445C95.3101 450.48 86.0801 453.28 77.5701 453.28Z" fill="#231F20"/>
<path d="M123.87 659.52C118.742 659.528 113.626 659.019 108.6 658C90.7999 654.37 81.0699 650 77.9799 644.24C75.5099 639.62 77.4499 634.84 79.4999 629.78C81.5499 624.72 83.7399 619.36 81.1099 614.05C77.6299 607.05 66.0299 600.86 45.6499 595.3C43.1499 594.61 40.6499 594.03 37.9199 593.53C37.8424 593.516 37.7685 593.486 37.7024 593.443C37.6364 593.4 37.5794 593.344 37.5348 593.279C37.4903 593.214 37.4589 593.141 37.4426 593.064C37.4264 592.987 37.4254 592.907 37.4399 592.83C37.453 592.753 37.4815 592.68 37.5236 592.614C37.5658 592.549 37.6207 592.492 37.6851 592.448C37.7495 592.405 37.822 592.374 37.8985 592.359C37.9749 592.344 38.0536 592.344 38.1299 592.36C40.8699 592.86 43.4399 593.45 45.9699 594.15C66.9699 599.89 78.4799 606.04 82.1799 613.52C85.0399 619.31 82.7899 624.86 80.6099 630.23C78.6099 635.02 76.8199 639.55 79.0299 643.68C81.9399 649.1 91.4099 653.28 108.84 656.83C138.15 662.83 169.74 650.83 193.33 624.76C193.385 624.704 193.45 624.66 193.522 624.63C193.594 624.6 193.672 624.584 193.75 624.584C193.828 624.584 193.905 624.6 193.978 624.63C194.05 624.66 194.115 624.704 194.17 624.76C194.28 624.874 194.342 625.026 194.342 625.185C194.342 625.344 194.28 625.496 194.17 625.61C174.39 647.44 149 659.52 123.87 659.52Z" fill="#231F20"/>
<path d="M132.55 614.64C131.75 614.585 130.97 614.368 130.256 614.002C129.543 613.636 128.911 613.128 128.4 612.51C121.27 605.08 125.29 590.38 128.83 577.4C131.65 567.07 134.32 557.3 130.31 554.21C125.98 550.87 113.64 555.15 92.6103 567.31C76.1703 576.81 59.5503 577.37 44.5603 568.94C44.4915 568.902 44.4309 568.852 44.3819 568.79C44.333 568.729 44.2968 568.659 44.2754 568.583C44.254 568.508 44.2478 568.429 44.2572 568.351C44.2667 568.273 44.2915 568.198 44.3303 568.13C44.41 567.992 44.5403 567.891 44.6935 567.848C44.8467 567.805 45.0106 567.824 45.1503 567.9C59.7503 576.11 75.9603 575.55 92.0103 566.28C114.11 553.51 126.15 549.49 131.01 553.28C135.65 556.85 133.01 566.53 129.95 577.73C126.49 590.39 122.57 604.73 129.23 611.73C130.59 613.14 131.87 613.73 133.13 613.43C138.13 612.43 142.81 599.57 148.29 584.72C155.62 564.87 164.73 540.16 178.83 532.33C178.969 532.258 179.13 532.244 179.28 532.289C179.429 532.334 179.555 532.436 179.631 532.573C179.707 532.71 179.726 532.871 179.685 533.021C179.643 533.172 179.545 533.301 179.41 533.38C165.7 540.99 156.67 565.47 149.41 585.13C143.58 600.94 138.97 613.43 133.41 614.6C133.126 614.643 132.838 614.656 132.55 614.64V614.64Z" fill="#231F20"/>
<path d="M103.93 686.38C103.8 686.38 103.673 686.338 103.57 686.26C85.9996 673.14 63.7996 670 37.6196 677C29.2596 679.24 21.4096 679.62 14.3096 678.13C14.2333 678.115 14.1608 678.084 14.0963 678.04C14.0318 677.997 13.9766 677.941 13.9338 677.876C13.8911 677.811 13.8616 677.738 13.8472 677.661C13.8327 677.585 13.8335 677.506 13.8496 677.43C13.8651 677.352 13.8958 677.279 13.94 677.213C13.9841 677.147 14.0408 677.091 14.1068 677.047C14.1728 677.004 14.2468 676.973 14.3245 676.958C14.4022 676.943 14.4821 676.944 14.5596 676.96C21.4696 678.41 29.1296 678.04 37.3096 675.85C63.8596 668.75 86.3896 671.92 104.31 685.27C104.413 685.344 104.489 685.448 104.528 685.568C104.567 685.689 104.566 685.819 104.526 685.938C104.486 686.058 104.408 686.162 104.304 686.234C104.2 686.307 104.076 686.344 103.95 686.34L103.93 686.38Z" fill="#231F20"/>
<path d="M183.61 696.85C183.512 696.851 183.415 696.827 183.329 696.779C183.243 696.732 183.171 696.663 183.12 696.58C183.075 696.516 183.044 696.444 183.027 696.368C183.011 696.291 183.01 696.213 183.025 696.136C183.04 696.059 183.071 695.987 183.114 695.922C183.158 695.857 183.214 695.802 183.28 695.76C190.163 691.301 196.467 686.008 202.05 680C202.162 679.89 202.313 679.828 202.47 679.828C202.627 679.828 202.778 679.89 202.89 680C202.947 680.054 202.992 680.119 203.023 680.192C203.054 680.264 203.07 680.341 203.07 680.42C203.07 680.499 203.054 680.576 203.023 680.648C202.992 680.721 202.947 680.786 202.89 680.84C197.244 686.94 190.862 692.315 183.89 696.84C183.799 696.867 183.702 696.87 183.61 696.85V696.85Z" fill="#231F20"/>
<path d="M111.47 360.14C106.92 360.14 102.84 350.29 97.6803 337.84C93.8003 328.47 89.4103 317.84 84.4303 311.25C84.3337 311.124 84.2911 310.965 84.3117 310.807C84.3323 310.65 84.4145 310.507 84.5403 310.41C84.6685 310.317 84.8278 310.278 84.9846 310.3C85.1413 310.322 85.2833 310.405 85.3803 310.53C90.4503 317.27 94.8803 327.95 98.7803 337.38C103.37 348.47 107.71 358.94 111.47 358.94C113.04 358.94 114.64 356.94 116.22 353.03C123.22 335.68 108.67 314.8 95.2203 300.35C95.1634 300.296 95.1181 300.231 95.0872 300.158C95.0563 300.086 95.0403 300.009 95.0403 299.93C95.0403 299.851 95.0563 299.774 95.0872 299.702C95.1181 299.629 95.1634 299.564 95.2203 299.51C95.2752 299.454 95.3406 299.41 95.4127 299.38C95.4848 299.35 95.5622 299.334 95.6403 299.334C95.7185 299.334 95.7958 299.35 95.8679 299.38C95.94 299.41 96.0054 299.454 96.0603 299.51C109.73 314.21 124.5 335.51 117.28 353.45C115.47 357.92 113.56 360.1 111.43 360.11L111.47 360.14Z" fill="#231F20"/>
<path d="M128.5 782.68L120.57 792.37H166.31L128.5 782.68Z" fill="#231F20"/>
<path d="M166.3 793H120.57C120.456 792.998 120.345 792.964 120.25 792.902C120.154 792.84 120.078 792.753 120.03 792.65C119.986 792.547 119.97 792.435 119.985 792.324C119.999 792.213 120.042 792.109 120.11 792.02L128.04 782.33C128.112 782.242 128.208 782.177 128.316 782.142C128.424 782.106 128.54 782.102 128.65 782.13L166.45 791.82C166.589 791.859 166.71 791.945 166.792 792.064C166.874 792.183 166.912 792.326 166.9 792.47C166.882 792.617 166.812 792.752 166.701 792.85C166.59 792.947 166.447 793.001 166.3 793V793ZM121.83 791.8H161.58L128.72 783.38L121.83 791.8Z" fill="#231F20"/>
<path d="M70.3099 782.68L62.3799 792.37H108.11L70.3099 782.68Z" fill="#231F20"/>
<path d="M108.11 793H62.3802C62.2666 792.998 62.1558 792.964 62.0603 792.902C61.9649 792.84 61.8887 792.753 61.8402 792.65C61.7966 792.547 61.781 792.435 61.7951 792.324C61.8091 792.213 61.8523 792.109 61.9202 792.02L69.8503 782.33C69.9225 782.242 70.0183 782.177 70.1263 782.142C70.2342 782.106 70.3501 782.102 70.4603 782.13L108.26 791.82C108.401 791.857 108.523 791.944 108.604 792.065C108.686 792.185 108.72 792.331 108.702 792.476C108.684 792.62 108.613 792.753 108.505 792.849C108.396 792.946 108.256 792.999 108.11 793V793ZM63.6402 791.8H103.38L70.5302 783.38L63.6402 791.8Z" fill="#231F20"/>
<path d="M89.25 305.59C89.25 305.59 116.62 324.47 92.34 359.54L80.66 380.23L151.92 362.81L154.04 345.91L158.36 362.81L191.15 371.87C191.15 371.87 174.2 389.13 155.28 383.09L62.09 414.25C44.47 420.15 29.19 400.67 39.09 384.96L89.25 305.59Z" fill="white"/>
<path d="M55.5696 415.94C51.9451 415.884 48.4007 414.865 45.2997 412.988C42.1987 411.111 39.6527 408.443 37.9226 405.258C36.1926 402.073 35.3407 398.484 35.4544 394.861C35.5681 391.238 36.6432 387.711 38.5696 384.64L88.7096 305.27C88.7528 305.201 88.8097 305.141 88.8767 305.095C88.9438 305.048 89.0196 305.016 89.0996 305C89.1768 304.984 89.2564 304.984 89.3337 304.999C89.411 305.015 89.4844 305.046 89.5496 305.09C96.2575 310.202 100.838 317.614 102.41 325.9C104.33 336.45 101.1 347.9 92.7896 359.9L81.7896 379.34L151.31 362.34L153.38 345.84C153.4 345.703 153.466 345.576 153.568 345.481C153.67 345.387 153.801 345.33 153.94 345.32C154.078 345.309 154.216 345.349 154.328 345.432C154.44 345.514 154.519 345.634 154.55 345.77L158.78 362.34L191.24 371.34C191.339 371.37 191.429 371.424 191.502 371.497C191.575 371.571 191.63 371.661 191.66 371.76C191.684 371.862 191.683 371.968 191.657 372.069C191.63 372.17 191.58 372.263 191.51 372.34C191.34 372.51 174.18 389.67 155.21 383.76L62.2096 414.87C60.0676 415.579 57.8258 415.94 55.5696 415.94V415.94ZM89.4096 306.45L39.6196 385.28C37.5047 388.623 36.4765 392.539 36.6763 396.49C36.876 400.441 38.2938 404.234 40.7351 407.346C43.1764 410.459 46.5214 412.74 50.3109 413.876C54.1004 415.012 58.1485 414.947 61.8996 413.69L155.09 382.52C155.21 382.48 155.339 382.48 155.46 382.52C171.61 387.67 186.46 375.32 189.97 372.16L158.2 363.38C158.098 363.354 158.006 363.302 157.932 363.228C157.858 363.154 157.805 363.061 157.78 362.96L154.24 349.1L152.51 362.88C152.495 363.001 152.444 363.114 152.364 363.205C152.283 363.296 152.177 363.361 152.06 363.39L80.8096 380.81C80.696 380.838 80.5769 380.832 80.4667 380.793C80.3566 380.753 80.2603 380.683 80.1896 380.59C80.1208 380.495 80.0797 380.384 80.0709 380.267C80.0621 380.151 80.0858 380.034 80.1396 379.93L91.8196 359.25C101.64 345.06 104.24 331.4 99.3696 319.69C97.1874 314.526 93.7666 309.978 89.4096 306.45Z" fill="#231F20"/>
<path d="M67.7301 383.38C67.5876 383.371 67.4531 383.311 67.3507 383.211C67.2483 383.112 67.1848 382.979 67.1715 382.837C67.1583 382.695 67.1962 382.552 67.2784 382.436C67.3606 382.319 67.4818 382.235 67.6201 382.2L80.5502 379.64C80.6971 379.628 80.8433 379.671 80.9609 379.759C81.0785 379.848 81.1593 379.978 81.1877 380.122C81.2161 380.267 81.1903 380.417 81.1151 380.544C81.04 380.671 80.9207 380.765 80.7801 380.81L67.8502 383.37L67.7301 383.38Z" fill="#231F20"/>
<path d="M972.87 534.14H948.43V535.8H972.87V534.14Z" fill="white"/>
<path d="M973.47 536.4H947.83V533.55H973.47V536.4ZM949 535.21H972.25V534.74H949V535.21Z" fill="#231F20"/>
<path d="M988.43 513.77C988.43 516.998 987.148 520.093 984.866 522.375C982.584 524.658 979.488 525.94 976.26 525.94H973.07V520.48H976.26C977.895 520.481 979.474 519.885 980.7 518.805C981.927 517.724 982.717 516.233 982.922 514.612C983.127 512.99 982.733 511.349 981.814 509.997C980.895 508.646 979.514 507.676 977.93 507.27C977.388 507.129 976.83 507.058 976.27 507.06H973.08V501.6H976.27C979.496 501.605 982.587 502.89 984.866 505.171C987.146 507.452 988.428 510.545 988.43 513.77V513.77Z" fill="white"/>
<path d="M976.26 526.54H972.47V519.88H976.26C977.734 519.869 979.156 519.326 980.261 518.349C981.366 517.373 982.081 516.03 982.273 514.568C982.466 513.106 982.123 511.623 981.308 510.394C980.493 509.165 979.261 508.272 977.84 507.88H977.77C977.277 507.748 976.77 507.681 976.26 507.68H972.47V501H976.26C979.647 501 982.895 502.345 985.29 504.74C987.684 507.135 989.03 510.383 989.03 513.77C989.03 517.157 987.684 520.405 985.29 522.8C982.895 525.195 979.647 526.54 976.26 526.54V526.54ZM973.66 525.34H976.26C979.271 525.252 982.129 523.993 984.227 521.832C986.326 519.671 987.5 516.777 987.5 513.765C987.5 510.753 986.326 507.859 984.227 505.698C982.129 503.537 979.271 502.279 976.26 502.19H973.66V506.46H976.26C976.843 506.459 977.424 506.53 977.99 506.67H978.07C979.793 507.113 981.295 508.169 982.296 509.64C983.296 511.111 983.725 512.897 983.503 514.662C983.281 516.428 982.423 518.051 981.09 519.229C979.756 520.407 978.039 521.058 976.26 521.06H973.66V525.34Z" fill="#231F20"/>
<path d="M978.53 499.66V528.19C978.53 529.932 977.838 531.604 976.606 532.836C975.374 534.068 973.703 534.76 971.96 534.76H948.43C946.688 534.76 945.017 534.068 943.785 532.836C942.553 531.604 941.86 529.932 941.86 528.19V499.66C941.86 498.986 942.128 498.34 942.604 497.864C943.081 497.388 943.727 497.12 944.4 497.12H976C976.672 497.123 977.316 497.391 977.79 497.867C978.264 498.344 978.53 498.988 978.53 499.66Z" fill="white"/>
<path d="M972 535.35H948.47C946.57 535.35 944.748 534.596 943.403 533.253C942.059 531.911 941.302 530.09 941.3 528.19V499.66C941.302 498.828 941.634 498.031 942.222 497.443C942.811 496.854 943.608 496.523 944.44 496.52H976C976.831 496.523 977.627 496.855 978.214 497.443C978.8 498.032 979.13 498.829 979.13 499.66V528.19C979.127 530.083 978.376 531.898 977.04 533.239C975.705 534.581 973.893 535.339 972 535.35V535.35ZM944.44 497.72C944.185 497.72 943.933 497.77 943.697 497.868C943.462 497.965 943.248 498.108 943.068 498.288C942.888 498.468 942.745 498.682 942.647 498.918C942.55 499.153 942.5 499.405 942.5 499.66V528.19C942.5 529.781 943.132 531.307 944.257 532.433C945.382 533.558 946.909 534.19 948.5 534.19H972C973.591 534.19 975.117 533.558 976.242 532.433C977.368 531.307 978 529.781 978 528.19V499.66C978 499.405 977.95 499.153 977.852 498.918C977.755 498.682 977.612 498.468 977.432 498.288C977.251 498.108 977.038 497.965 976.802 497.868C976.567 497.77 976.315 497.72 976.06 497.72H944.44Z" fill="#231F20"/>
<path d="M903.68 169H797.88V307.75H903.68V169Z" fill="white"/>
<path d="M904.28 308.34H797.28V168.4H904.28V308.34ZM798.48 307.15H903.08V169.6H798.48V307.15Z" fill="#231F20"/>
<path d="M798.26 270.08L797.49 269.18L850.9 223.85L875.1 259.56L903.32 237.9L904.04 238.85L874.82 261.28L850.66 225.62L798.26 270.08Z" fill="#231F20"/>
<path d="M829.64 224.73C837.267 224.73 843.45 218.547 843.45 210.92C843.45 203.293 837.267 197.11 829.64 197.11C822.013 197.11 815.83 203.293 815.83 210.92C815.83 218.547 822.013 224.73 829.64 224.73Z" fill="white"/>
<path d="M829.64 225.33C826.79 225.33 824.004 224.485 821.635 222.901C819.265 221.318 817.418 219.068 816.327 216.434C815.237 213.801 814.951 210.904 815.507 208.109C816.063 205.313 817.436 202.746 819.451 200.731C821.466 198.715 824.034 197.343 826.829 196.787C829.624 196.231 832.522 196.516 835.155 197.607C837.788 198.698 840.039 200.545 841.622 202.914C843.205 205.284 844.05 208.07 844.05 210.92C844.048 214.741 842.529 218.405 839.827 221.106C837.125 223.808 833.461 225.327 829.64 225.33V225.33ZM829.64 197.7C827.026 197.7 824.47 198.475 822.296 199.928C820.122 201.381 818.427 203.445 817.427 205.861C816.426 208.277 816.164 210.935 816.674 213.499C817.185 216.064 818.444 218.419 820.293 220.268C822.141 222.117 824.497 223.376 827.061 223.886C829.626 224.396 832.284 224.134 834.7 223.134C837.115 222.133 839.18 220.439 840.632 218.265C842.085 216.091 842.86 213.535 842.86 210.92C842.858 207.415 841.464 204.054 838.986 201.575C836.507 199.096 833.146 197.703 829.64 197.7Z" fill="#231F20"/>
<path d="M1031.43 289.41H925.63V373.27H1031.43V289.41Z" fill="white"/>
<path d="M1032 373.86H925V288.81H1032V373.86ZM926.2 372.67H1030.81V290H926.22L926.2 372.67Z" fill="#231F20"/>
<path d="M1032 373.86H946.64V373.24C947.038 363.055 949.683 353.084 954.387 344.042C959.091 334.999 965.736 327.109 973.847 320.936C981.958 314.763 991.334 310.461 1001.3 308.337C1011.27 306.213 1021.59 306.32 1031.51 308.65L1031.97 308.75L1032 373.86ZM947.89 372.67H1030.81V309.67C1021.13 307.47 1011.08 307.418 1001.38 309.517C991.68 311.617 982.555 315.817 974.65 321.823C966.746 327.829 960.254 335.494 955.63 344.278C951.007 353.063 948.365 362.754 947.89 372.67Z" fill="#607A75"/>
<path d="M980.75 244.56C995.496 244.56 1007.45 232.606 1007.45 217.86C1007.45 203.114 995.496 191.16 980.75 191.16C966.004 191.16 954.05 203.114 954.05 217.86C954.05 232.606 966.004 244.56 980.75 244.56Z" fill="white"/>
<path d="M980.75 245.15C975.348 245.16 970.065 243.567 965.569 240.573C961.072 237.579 957.566 233.318 955.492 228.33C953.418 223.342 952.871 217.85 953.92 212.551C954.968 207.252 957.565 202.383 961.382 198.56C965.199 194.738 970.064 192.133 975.362 191.077C980.66 190.021 986.152 190.56 991.143 192.626C996.134 194.693 1000.4 198.193 1003.4 202.685C1006.4 207.177 1008 212.458 1008 217.86C1007.99 225.088 1005.12 232.019 1000.01 237.134C994.905 242.249 987.979 245.131 980.75 245.15ZM980.75 191.76C975.588 191.76 970.542 193.291 966.25 196.159C961.958 199.027 958.613 203.103 956.637 207.872C954.662 212.641 954.145 217.889 955.152 222.952C956.159 228.015 958.645 232.665 962.295 236.316C965.945 239.966 970.596 242.451 975.659 243.459C980.722 244.466 985.969 243.949 990.738 241.973C995.508 239.998 999.584 236.653 1002.45 232.36C1005.32 228.068 1006.85 223.022 1006.85 217.86C1006.84 210.94 1004.09 204.306 999.197 199.413C994.304 194.52 987.67 191.768 980.75 191.76Z" fill="#231F20"/>
<path d="M988.89 210.01L980.75 217.86L971 201.17" fill="white"/>
<path d="M980.62 218.81L970.49 201.46L971.52 200.86L980.88 216.9L988.48 209.58L989.31 210.44L980.62 218.81Z" fill="#231F20"/>
</svg>
