<svg width="1448" height="1007" viewBox="0 0 1448 1007" fill="none" xmlns="http://www.w3.org/2000/svg">
<g clip-path="url(#clip0_646_239)">
<path d="M665.927 735.316H552.476V998.306H665.927V735.316Z" fill="#231F20"/>
<path d="M364.96 976.495H846.277C851.739 976.498 856.977 978.671 860.838 982.533C864.699 986.396 866.868 991.634 866.868 997.095H344.412C344.412 991.642 346.575 986.411 350.427 982.549C354.279 978.687 359.505 976.51 364.96 976.495Z" fill="white"/>
<path d="M867.613 997.868H343.697V997.124C343.705 991.459 345.96 986.029 349.969 982.024C353.977 978.02 359.411 975.769 365.077 975.765H846.233C851.9 975.769 857.333 978.02 861.341 982.024C865.35 986.029 867.605 991.459 867.613 997.124V997.868ZM345.157 996.409H866.153C865.957 991.261 863.775 986.389 860.063 982.815C856.352 979.241 851.401 977.243 846.248 977.239H365.004C359.853 977.242 354.904 979.239 351.193 982.81C347.482 986.381 345.298 991.249 345.098 996.395L345.157 996.409Z" fill="#231F20"/>
<path d="M1261.29 369.573L1305.07 651.85C1297.1 620.351 1181.33 437.384 1242.32 246.992L1259.97 360.965L1239.54 369.573H1261.29Z" fill="#95A6A3"/>
<path d="M1304.29 651.952C1302.94 646.554 1298.33 636.56 1291.93 622.773C1261.75 557.397 1191.09 404.296 1241.59 246.744L1242.53 243.826L1260.75 361.417L1243.15 368.843H1261.91L1262 369.456L1305.78 651.733L1304.29 651.952ZM1242.04 250.129C1193.54 406.09 1263.34 557.31 1293.26 622.16C1297.41 631.133 1300.81 638.486 1303.07 644.044L1260.66 370.244H1235.85L1259.08 360.454L1242.04 250.129Z" fill="#231F20"/>
<path d="M1363.01 252.273L1311.93 261.129L1360.42 270.145L1352.53 325.279L1311.93 320.319L1350.43 340.014L1305.42 654.549C1305.42 654.549 1214.34 209.482 1382.77 114.505L1363.01 252.273Z" fill="#607A75"/>
<path d="M1305.56 658.823L1304.72 654.695C1304.5 653.586 1281.92 541.947 1280.22 420.154C1279.21 348.593 1285.5 287.565 1298.91 238.763C1315.71 177.648 1343.79 135.63 1382.36 113.863L1383.66 113.133L1363.65 252.857L1316.1 261.114L1361.34 269.518L1353.14 326.096L1315.93 321.544L1351.21 339.606V340.116L1305.56 658.823ZM1381.79 115.876C1344.22 137.658 1316.83 179.107 1300.33 239.143C1286.96 287.799 1280.68 348.695 1281.67 420.052C1283.13 528.335 1301.22 628.58 1305.33 650.099L1349.65 340.394L1307.9 319.093L1351.87 324.477L1359.56 270.743L1307.9 261.1L1362.42 251.646L1381.79 115.876Z" fill="#231F20"/>
<path d="M1413.47 481.386L1392.41 470.24L1408.14 489.877L1305.45 654.505C1305.45 654.505 1324.75 438.158 1446.2 428.864L1413.47 481.386Z" fill="#2B4E47"/>
<path d="M1304.44 657.525L1304.72 654.476C1304.72 653.936 1309.78 599.663 1329.53 544.967C1341.2 512.798 1355.58 486.77 1372.36 467.643C1393.38 443.614 1418.19 430.352 1446.07 428.252L1447.53 428.149L1413.68 482.422L1395.13 472.633L1408.99 489.95L1304.44 657.525ZM1444.82 429.769C1417.89 432.205 1393.93 445.263 1373.53 468.577C1356.88 487.543 1342.56 513.469 1330.97 545.463C1313.94 592.471 1307.87 639.142 1306.5 651.47L1407.2 489.98L1389.63 467.993L1413.21 480.423L1444.82 429.769Z" fill="#607A75"/>
<path d="M1385.25 577.21L1362.73 600.918L1385.25 925.023C1385.25 930.122 1384.72 935.207 1383.67 940.196C1383.17 942.545 1382.56 944.821 1381.86 947.082C1378.18 958.711 1371.66 969.24 1362.89 977.72C1368.16 983.269 1371.09 990.627 1371.09 998.277H1252.59C1252.59 990.558 1255.57 983.139 1260.92 977.574C1252.19 969.126 1245.71 958.636 1242.05 947.053C1241.34 944.806 1240.74 942.516 1240.23 940.167C1239.18 935.178 1238.65 930.093 1238.65 924.994L1261.2 600.918L1238.68 577.21H1385.25Z" fill="white"/>
<path d="M1371.79 999.035H1251.86V998.379C1251.85 990.724 1254.72 983.345 1259.9 977.706C1251.34 969.234 1244.97 958.802 1241.35 947.316C1240.65 945.113 1240.04 942.778 1239.51 940.371C1238.45 935.329 1237.92 930.19 1237.92 925.037L1260.43 601.151L1236.96 576.451H1386.97L1363.5 601.151L1386.01 924.95C1386.01 930.117 1385.48 935.27 1384.41 940.327C1383.93 942.589 1383.32 944.923 1382.58 947.272C1378.92 958.798 1372.5 969.256 1363.88 977.735C1366.28 980.385 1368.19 983.431 1369.54 986.736C1371.03 990.401 1371.8 994.321 1371.79 998.277V999.035ZM1253.33 997.576H1370.32C1370.15 990.363 1367.3 983.47 1362.32 978.245L1361.82 977.72L1362.35 977.224C1371.05 968.822 1377.52 958.388 1381.19 946.863C1381.92 944.558 1382.52 942.268 1382.98 940.05C1384.03 935.109 1384.55 930.073 1384.55 925.023L1362 600.641L1362.23 600.407L1383.57 577.939H1240.36L1261.93 600.641V600.961L1239.41 925.081C1239.42 930.111 1239.95 935.126 1240.97 940.05C1241.48 942.399 1242.08 944.704 1242.77 946.849C1246.41 958.312 1252.83 968.697 1261.46 977.078L1261.99 977.589L1261.48 978.114C1256.42 983.353 1253.51 990.298 1253.33 997.576Z" fill="#231F20"/>
<path d="M1226.66 23.2332V787.824C1226.67 790.779 1226.08 793.706 1224.95 796.437C1223.82 799.168 1222.17 801.65 1220.08 803.741C1217.99 805.831 1215.51 807.49 1212.78 808.621C1210.04 809.753 1207.12 810.335 1204.16 810.335H34.7336C25.8314 810.335 17.2939 806.8 10.9991 800.507C4.70433 794.214 1.16797 785.679 1.16797 776.779V34.3212C1.16797 25.4216 4.70433 16.8866 10.9991 10.5936C17.2939 4.30071 25.8314 0.765381 34.7336 0.765381H1204.16C1210.12 0.765376 1215.84 3.13158 1220.06 7.34427C1224.28 11.557 1226.66 17.2717 1226.66 23.2332Z" fill="white"/>
<path d="M1204.16 811.065H34.7327C25.6328 811.053 16.909 807.434 10.4744 801.001C4.03983 794.569 0.419788 785.847 0.408203 776.75V34.3212C0.419788 25.224 4.03983 16.5027 10.4744 10.07C16.909 3.63727 25.6328 0.0182953 34.7327 0.00671387H1204.16C1210.31 0.0298493 1216.2 2.48619 1220.54 6.83865C1224.88 11.1911 1227.33 17.0856 1227.33 23.2332V787.824C1227.33 793.974 1224.89 799.872 1220.55 804.228C1216.2 808.583 1210.31 811.042 1204.16 811.065ZM34.7327 1.46566C26.0199 1.47724 17.6672 4.94251 11.5063 11.1016C5.34545 17.2607 1.87916 25.6109 1.86758 34.3212V776.75C1.87916 785.461 5.34545 793.811 11.5063 799.97C17.6672 806.129 26.0199 809.594 34.7327 809.606H1204.16C1209.92 809.583 1215.45 807.278 1219.51 803.196C1223.58 799.114 1225.87 793.587 1225.87 787.824V23.2332C1225.87 17.4612 1223.58 11.9268 1219.49 7.84548C1215.41 3.76412 1209.87 1.46953 1204.1 1.46566H34.7327Z" fill="#231F20"/>
<path d="M1207.34 17.1785H25.4951V793.893H1207.34V17.1785Z" fill="white"/>
<path d="M1208.09 794.622H24.8096V16.5073H1208.13L1208.09 794.622ZM26.2252 793.163H1206.61V17.9663H26.2689L26.2252 793.163Z" fill="#231F20"/>
<path d="M785.845 154.743H130.425V275.894H785.845V154.743Z" fill="white"/>
<path d="M786.603 276.623H129.694V154.072H786.603V276.623ZM131.183 275.164H785.143V155.53H131.154L131.183 275.164Z" fill="#231F20"/>
<path d="M785.83 312.178H131.957V333.303H785.83V312.178Z" fill="white"/>
<path d="M786.603 334.033H131.227V311.434H786.603V334.033ZM132.715 332.574H785.143V312.907H132.686L132.715 332.574Z" fill="#231F20"/>
<path d="M785.83 369.792H131.957V390.917H785.83V369.792Z" fill="white"/>
<path d="M786.603 391.661H131.227V369.062H786.603V391.661ZM132.715 390.202H785.143V370.521H132.686L132.715 390.202Z" fill="#231F20"/>
<path d="M785.83 427.42H131.957V448.546H785.83V427.42Z" fill="white"/>
<path d="M786.603 449.275H131.227V426.69H786.603V449.275ZM132.715 447.816H785.143V428.149H132.686L132.715 447.816Z" fill="#231F20"/>
<path d="M785.83 485.048H131.957V506.174H785.83V485.048Z" fill="white"/>
<path d="M786.603 506.903H131.227V484.319H786.603V506.903ZM132.715 505.444H785.143V485.778H132.686L132.715 505.444Z" fill="#231F20"/>
<path d="M785.83 542.662H131.957V563.788H785.83V542.662Z" fill="white"/>
<path d="M786.603 564.532H131.227V541.933H786.603V564.532ZM132.715 563.073H785.143V543.392H132.686L132.715 563.073Z" fill="#231F20"/>
<path d="M785.83 600.291H131.957V621.416H785.83V600.291Z" fill="white"/>
<path d="M786.603 622.146H131.227V599.561H786.603V622.146ZM132.715 620.687H785.143V601.02H132.686L132.715 620.687Z" fill="#231F20"/>
<path d="M785.83 657.919H131.957V679.044H785.83V657.919Z" fill="white"/>
<path d="M786.603 679.774H131.227V657.189H786.603V679.774ZM132.715 678.315H785.143V658.648H132.686L132.715 678.315Z" fill="#231F20"/>
<path d="M462.827 709.595H131.957V730.72H462.827V709.595Z" fill="white"/>
<path d="M463.57 731.465H131.227V708.865H463.57V731.465ZM132.686 730.006H462.096V710.339H132.686V730.006Z" fill="#231F20"/>
<path d="M1158.19 149.986H819.469V725.979H1158.19V149.986Z" fill="white"/>
<path d="M1158.92 726.708H818.709V149.272H1158.89L1158.92 726.708ZM820.198 725.249H1157.46V150.731H820.168L820.198 725.249Z" fill="#231F20"/>
<path d="M1157.51 149.643L818.999 725.758L820.257 726.497L1158.77 150.382L1157.51 149.643Z" fill="#231F20"/>
<path d="M1207.34 17.1785H25.4951V73.9315H1207.34V17.1785Z" fill="#919090"/>
<path d="M1208.09 74.6609H24.8096V16.5073H1208.13L1208.09 74.6609ZM26.2252 73.202H1206.61V17.9663H26.2689L26.2252 73.202Z" fill="#231F20"/>
<path d="M52.7711 55.0819C58.7274 55.0819 63.5559 50.2548 63.5559 44.3003C63.5559 38.3458 58.7274 33.5187 52.7711 33.5187C46.8148 33.5187 41.9863 38.3458 41.9863 44.3003C41.9863 50.2548 46.8148 55.0819 52.7711 55.0819Z" fill="white"/>
<path d="M52.7712 55.899C50.4904 55.9019 48.2599 55.2284 46.362 53.9637C44.4642 52.699 42.9842 50.8999 42.1093 48.7941C41.2345 46.6884 41.0041 44.3705 41.4473 42.1337C41.8905 39.897 42.9874 37.842 44.5992 36.2286C46.211 34.6153 48.2652 33.5161 50.502 33.0702C52.7388 32.6243 55.0577 32.8517 57.1652 33.7236C59.2727 34.5955 61.0742 36.0728 62.3417 37.9685C63.6091 39.8642 64.2857 42.0932 64.2857 44.3733C64.2818 47.4264 63.0679 50.3536 60.9098 52.5138C58.7517 54.6741 55.8252 55.8913 52.7712 55.899ZM52.7712 34.3212C50.7784 34.3183 48.8295 34.9066 47.1713 36.0117C45.5131 37.1167 44.2202 38.6888 43.4562 40.5288C42.6923 42.3689 42.4916 44.3941 42.8797 46.3482C43.2678 48.3024 44.2271 50.0974 45.6363 51.5062C47.0454 52.9149 48.841 53.874 50.7957 54.2619C52.7504 54.6499 54.7763 54.4493 56.6169 53.6856C58.4574 52.9218 60.03 51.6293 61.1353 49.9716C62.2407 48.3139 62.8292 46.3656 62.8263 44.3733C62.834 43.0477 62.5797 41.7335 62.078 40.5064C61.5763 39.2793 60.8371 38.1633 59.9028 37.2225C58.9685 36.2817 57.8576 35.5347 56.6338 35.0243C55.4099 34.5139 54.0973 34.2501 52.7712 34.2482V34.3212Z" fill="#231F20"/>
<path d="M92.524 55.0819C98.4803 55.0819 103.309 50.2548 103.309 44.3003C103.309 38.3458 98.4803 33.5187 92.524 33.5187C86.5678 33.5187 81.7393 38.3458 81.7393 44.3003C81.7393 50.2548 86.5678 55.0819 92.524 55.0819Z" fill="white"/>
<path d="M92.5241 55.899C90.2433 55.9019 88.0128 55.2284 86.1149 53.9637C84.2171 52.699 82.7371 50.8999 81.8623 48.7941C80.9874 46.6884 80.757 44.3705 81.2002 42.1337C81.6434 39.897 82.7403 37.842 84.3521 36.2286C85.9639 34.6153 88.0181 33.5161 90.255 33.0702C92.4918 32.6243 94.8106 32.8517 96.9181 33.7236C99.0257 34.5955 100.827 36.0728 102.095 37.9685C103.362 39.8642 104.039 42.0932 104.039 44.3733C104.039 47.4276 102.826 50.357 100.667 52.5181C98.508 54.6791 95.5793 55.8951 92.5241 55.899ZM92.5241 34.3212C90.5313 34.3183 88.5824 34.9066 86.9242 36.0117C85.266 37.1167 83.9731 38.6888 83.2092 40.5288C82.4452 42.3689 82.2446 44.3941 82.6326 46.3482C83.0207 48.3024 83.9801 50.0974 85.3892 51.5062C86.7984 52.9149 88.5939 53.874 90.5486 54.2619C92.5033 54.6499 94.5292 54.4493 96.3698 53.6856C98.2104 52.9218 99.7829 51.6293 100.888 49.9716C101.994 48.3139 102.582 46.3656 102.579 44.3733C102.585 43.0482 102.329 41.735 101.827 40.5087C101.325 39.2824 100.585 38.1672 99.6514 37.2268C98.7175 36.2864 97.6073 35.5393 96.3844 35.0282C95.1614 34.5171 93.8496 34.2521 92.5241 34.2482V34.3212Z" fill="#231F20"/>
<path d="M132.263 55.0819C138.22 55.0819 143.048 50.2548 143.048 44.3003C143.048 38.3458 138.22 33.5187 132.263 33.5187C126.307 33.5187 121.479 38.3458 121.479 44.3003C121.479 50.2548 126.307 55.0819 132.263 55.0819Z" fill="white"/>
<path d="M132.263 55.8989C129.983 55.8989 127.754 55.2229 125.858 53.9565C123.962 52.69 122.485 50.89 121.612 48.7839C120.739 46.6779 120.511 44.3605 120.956 42.1247C121.401 39.8889 122.499 37.8352 124.111 36.2233C125.724 34.6114 127.778 33.5137 130.014 33.069C132.251 32.6243 134.569 32.8525 136.675 33.7249C138.782 34.5972 140.583 36.0745 141.849 37.9699C143.116 39.8653 143.792 42.0937 143.792 44.3732C143.792 45.8868 143.494 47.3856 142.915 48.7839C142.336 50.1823 141.486 51.4529 140.416 52.5231C139.345 53.5934 138.074 54.4424 136.675 55.0216C135.277 55.6008 133.777 55.8989 132.263 55.8989ZM132.263 34.3211C130.271 34.3182 128.322 34.9065 126.664 36.0116C125.005 37.1166 123.712 38.6886 122.948 40.5287C122.185 42.3688 121.984 44.394 122.372 46.3482C122.76 48.3023 123.719 50.0973 125.128 51.5061C126.538 52.9148 128.333 53.8739 130.288 54.2618C132.243 54.6498 134.268 54.4492 136.109 53.6855C137.95 52.9217 139.522 51.6292 140.628 49.9715C141.733 48.3138 142.321 46.3655 142.319 44.3732C142.326 43.0476 142.072 41.7334 141.57 40.5063C141.069 39.2792 140.329 38.1632 139.395 37.2224C138.461 36.2816 137.35 35.5346 136.126 35.0242C134.902 34.5138 133.59 34.25 132.263 34.2481V34.3211Z" fill="#231F20"/>
<path d="M835.93 941.48C805.94 900.483 761.94 929.473 715.941 941.757C669.941 954.041 665.942 934.054 665.942 934.054L765.18 834.714L835.93 941.48Z" fill="#231F20"/>
<path d="M690.007 946.397C681.032 946.397 675.413 944.427 671.838 942.239C666.204 938.737 665.256 934.317 665.227 934.141C665.201 934.023 665.205 933.899 665.238 933.782C665.271 933.665 665.332 933.558 665.416 933.47L764.654 834.131C764.73 834.055 764.822 833.998 764.923 833.962C765.024 833.927 765.131 833.915 765.238 833.926C765.347 833.933 765.453 833.966 765.547 834.022C765.64 834.077 765.72 834.155 765.778 834.247L836.499 941.013C836.598 941.172 836.631 941.363 836.594 941.546C836.556 941.729 836.449 941.89 836.295 941.997C836.142 942.104 835.953 942.147 835.768 942.119C835.584 942.091 835.417 941.992 835.302 941.845C811.952 909.938 779.364 921.244 744.821 933.208C735.452 936.447 725.762 939.802 716.042 942.399C707.571 944.844 698.821 946.187 690.007 946.397ZM666.759 934.185C667.854 937.069 669.918 939.482 672.597 941.013C678.522 944.661 690.795 947.608 715.677 941.013C725.353 938.431 735.014 935.09 744.354 931.851C775.935 920.894 805.925 910.492 829.115 932.58L765.019 835.823L666.759 934.185Z" fill="#231F20"/>
<path d="M753.008 678.884L785.727 997.124H748.134L779.219 989.158L731.264 678.884H753.008Z" fill="white"/>
<path d="M785.727 997.868H748.134C747.94 997.893 747.745 997.841 747.59 997.722C747.435 997.603 747.334 997.427 747.309 997.234C747.284 997.04 747.337 996.845 747.456 996.69C747.575 996.535 747.75 996.434 747.944 996.409L778.386 988.604L730.548 679.001C730.53 678.898 730.534 678.792 730.562 678.691C730.59 678.59 730.64 678.496 730.709 678.417C730.778 678.338 730.864 678.274 730.959 678.229C731.054 678.183 731.158 678.158 731.263 678.155H753.037C753.218 678.157 753.391 678.225 753.526 678.345C753.66 678.466 753.746 678.632 753.767 678.811L786.457 997.051C786.468 997.153 786.459 997.256 786.429 997.354C786.398 997.452 786.348 997.542 786.282 997.62C786.213 997.699 786.127 997.762 786.031 997.805C785.936 997.847 785.832 997.869 785.727 997.868ZM753.927 996.409H784.924L752.351 679.613H732.124L779.933 989.056C779.961 989.235 779.921 989.418 779.821 989.569C779.721 989.72 779.569 989.828 779.393 989.873L753.927 996.409Z" fill="#231F20"/>
<path d="M741.698 678.884L737.889 997.124H700.281L731.366 989.158L719.954 678.884H741.698Z" fill="white"/>
<path d="M737.889 997.868H700.281C700.102 997.867 699.93 997.801 699.796 997.683C699.662 997.565 699.575 997.403 699.551 997.226C699.528 997.048 699.572 996.867 699.674 996.719C699.777 996.571 699.93 996.466 700.105 996.424L730.606 988.604L719.223 678.87C719.221 678.675 719.294 678.487 719.428 678.344C719.565 678.201 719.754 678.117 719.953 678.111H741.698C741.895 678.111 742.084 678.19 742.223 678.33C742.292 678.398 742.345 678.48 742.38 678.571C742.415 678.661 742.431 678.758 742.427 678.855L738.618 997.095C738.624 997.195 738.61 997.294 738.576 997.388C738.542 997.481 738.489 997.567 738.421 997.639C738.352 997.712 738.27 997.77 738.178 997.809C738.087 997.848 737.988 997.869 737.889 997.868ZM706.074 996.409H737.159L740.968 679.628H720.712L732.095 989.158C732.1 989.325 732.047 989.488 731.946 989.621C731.846 989.754 731.702 989.848 731.54 989.888L706.074 996.409Z" fill="#231F20"/>
<path d="M711.621 547.36C711.621 547.36 736.197 535.192 748.426 564.109C760.656 593.025 781.992 569.536 796.425 606.943C817.455 661.391 725.543 676.448 708.965 634.576C696.458 603.004 723.077 611.364 707.681 585.409C692.284 559.455 711.621 547.36 711.621 547.36Z" fill="#231F20"/>
<path d="M751.841 659.349C733.19 659.349 714.846 651.427 708.279 634.838C701.872 618.644 705.564 612.677 708.833 607.425C711.869 602.537 714.495 598.306 707.053 585.774C691.481 559.513 711.037 546.864 711.226 546.747C711.635 546.543 721.573 541.743 732.125 545.653C739.422 548.337 745.055 554.48 749.024 563.875C754.585 577.006 762.056 579.063 769.966 581.208C779.423 583.761 789.201 586.416 797.038 606.725C806.874 632.198 792.003 648.45 774.811 655.176C767.475 657.963 759.689 659.377 751.841 659.349ZM711.971 548.002C710.847 548.731 693.656 560.315 708.308 585.03C716.203 598.336 713.226 603.121 710.074 608.198C706.921 613.275 703.492 618.79 709.636 634.299C718.684 657.131 750.994 662.894 774.344 653.761C795.768 645.387 803.765 627.981 795.753 607.206C788.179 587.583 778.766 585.03 769.66 582.564C761.4 580.332 753.607 578.188 747.769 564.4C743.96 555.384 738.561 549.534 731.716 546.981C722.04 543.392 712.598 547.71 711.971 548.002Z" fill="#231F20"/>
<path d="M714.539 601.72L687.891 671.575L640.038 660.837L631.282 658.415L607.275 664.98C607.275 664.98 617.666 682.925 639.484 671.852L679.369 694.757C684.52 697.716 690.541 698.791 696.399 697.798C702.257 696.806 707.587 693.806 711.475 689.315L733.365 664.047L714.539 601.72Z" fill="white"/>
<path d="M692.138 698.857C687.529 698.871 682.999 697.668 679.004 695.37L639.469 672.654C617.579 683.553 606.75 665.506 606.633 665.36C606.578 665.262 606.546 665.154 606.539 665.042C606.531 664.93 606.549 664.818 606.592 664.714C606.634 664.61 606.699 664.518 606.782 664.442C606.865 664.367 606.964 664.312 607.071 664.28L631.092 657.729C631.217 657.7 631.347 657.7 631.472 657.729L640.228 660.151L687.439 670.743L713.854 601.487C713.905 601.341 714.002 601.216 714.132 601.132C714.261 601.048 714.415 601.008 714.569 601.02C714.722 601.026 714.869 601.08 714.989 601.175C715.109 601.269 715.197 601.399 715.24 601.545L734.066 663.813C734.101 663.931 734.106 664.055 734.081 664.175C734.055 664.295 734 664.406 733.92 664.499L712.029 689.768C709.562 692.622 706.507 694.912 703.075 696.48C699.642 698.049 695.912 698.86 692.138 698.857ZM639.601 671.137C639.729 671.14 639.854 671.175 639.965 671.239L679.85 694.145C684.848 697.022 690.693 698.069 696.379 697.105C702.065 696.141 707.238 693.227 711.008 688.863L732.607 663.857L714.539 604.04L688.65 671.881C688.585 672.044 688.465 672.179 688.31 672.262C688.155 672.345 687.975 672.37 687.804 672.333L639.951 661.596L631.413 659.218L608.56 665.403C610.88 668.744 620.775 680.577 639.294 671.239C639.365 671.173 639.45 671.123 639.542 671.093L639.601 671.137Z" fill="#231F20"/>
<path d="M705.345 685.143V632.621C705.345 630.885 705.345 629.178 705.564 627.485C707.535 604.478 722.654 586.635 740.998 586.635C750.849 586.635 759.766 591.785 766.231 600.101C768.301 602.794 770.073 605.705 771.513 608.782C776.181 618.998 777.286 630.485 774.651 641.404L764.436 685.172L835.93 941.48C835.93 941.48 800.905 946.47 758.934 914.329C716.962 882.188 665.942 934.054 665.942 934.054L705.345 685.143Z" fill="#F5CFCE"/>
<path d="M830.691 942.399C819.235 942.399 790.748 939.481 758.496 914.854C741.319 901.724 720.552 900.98 697.012 912.724C685.813 918.441 675.52 925.781 666.468 934.506C666.361 934.623 666.218 934.702 666.062 934.731C665.906 934.759 665.745 934.737 665.604 934.666C665.462 934.595 665.347 934.48 665.276 934.338C665.206 934.196 665.183 934.035 665.213 933.879L704.616 685.085V632.562C704.616 630.826 704.616 629.076 704.835 627.369C706.863 603.675 722.347 585.803 740.998 585.803C750.761 585.803 759.97 590.691 766.814 599.576C768.911 602.291 770.707 605.226 772.17 608.329C776.907 618.697 778.027 630.353 775.352 641.433L765.253 685.07L836.645 941.159C836.669 941.261 836.672 941.366 836.654 941.468C836.637 941.571 836.599 941.669 836.543 941.757C836.487 941.845 836.412 941.919 836.323 941.974C836.235 942.03 836.136 942.065 836.033 942.078C834.261 942.297 832.477 942.404 830.691 942.399ZM728.345 903.008C739.607 903.001 750.543 906.789 759.386 913.76C797.111 942.647 829.436 941.334 834.996 940.853L763.793 685.347C763.764 685.227 763.764 685.102 763.793 684.982L774.009 641.214C776.579 630.47 775.495 619.177 770.93 609.117C769.512 606.09 767.765 603.227 765.72 600.582C759.123 592.077 750.367 587.452 741.071 587.452C723.252 587.452 708.337 604.74 706.367 627.675C706.221 629.338 706.148 631.045 706.148 632.738V685.26C706.156 685.298 706.156 685.338 706.148 685.376L667.008 931.953C675.802 923.797 685.677 916.889 696.356 911.426C707.549 905.853 718.29 903.08 728.345 903.08V903.008Z" fill="#231F20"/>
<path d="M739.246 599.882L745.288 592.792L738.867 565.349L725.018 562.154L731.351 589.217L730.198 595.549C729.977 596.676 730.136 597.844 730.651 598.87C731.166 599.897 732.008 600.723 733.044 601.219C734.08 601.715 735.251 601.853 736.374 601.611C737.497 601.369 738.507 600.761 739.246 599.882Z" fill="white"/>
<path d="M735.365 602.464C734.465 602.465 733.576 602.26 732.767 601.866C731.582 601.319 730.615 600.391 730.02 599.23C729.425 598.069 729.236 596.742 729.484 595.461L730.607 589.275L724.303 562.372C724.274 562.25 724.277 562.123 724.313 562.002C724.349 561.882 724.416 561.773 724.507 561.687C724.593 561.599 724.699 561.534 724.817 561.499C724.934 561.463 725.058 561.457 725.178 561.482L739.028 564.634C739.162 564.663 739.285 564.729 739.383 564.824C739.481 564.92 739.55 565.041 739.582 565.174L746.004 592.616C746.026 592.729 746.023 592.844 745.996 592.955C745.968 593.066 745.916 593.17 745.843 593.258L739.801 600.363C739.259 601.015 738.581 601.54 737.815 601.903C737.049 602.266 736.213 602.457 735.365 602.464ZM725.996 563.175L732.067 589.086C732.096 589.186 732.096 589.292 732.067 589.392L730.914 595.724C730.737 596.687 730.883 597.681 731.329 598.553C731.775 599.424 732.496 600.125 733.38 600.545C734.265 600.966 735.263 601.083 736.221 600.878C737.178 600.674 738.042 600.16 738.678 599.415L744.515 592.587L738.284 565.947L725.996 563.175Z" fill="#231F20"/>
<path d="M723.208 589.655C734.419 589.655 743.508 580.569 743.508 569.361C743.508 558.153 734.419 549.067 723.208 549.067C711.997 549.067 702.908 558.153 702.908 569.361C702.908 580.569 711.997 589.655 723.208 589.655Z" fill="white"/>
<path d="M723.222 590.399C718.991 590.398 714.857 589.122 711.361 586.739C707.865 584.355 705.168 580.973 703.623 577.035C702.105 573.163 701.77 568.929 702.66 564.867C703.549 560.804 705.624 557.097 708.621 554.214C711.619 551.331 715.404 549.401 719.499 548.669C723.593 547.936 727.813 548.434 731.625 550.1C735.436 551.765 738.668 554.523 740.911 558.025C743.155 561.526 744.309 565.614 744.228 569.772C744.147 573.93 742.835 577.97 740.457 581.382C738.079 584.794 734.743 587.424 730.869 588.94C728.435 589.904 725.841 590.4 723.222 590.399ZM704.98 576.495C706.39 580.099 708.837 583.205 712.012 585.418C715.187 587.632 718.948 588.855 722.818 588.932C726.688 589.008 730.494 587.936 733.755 585.85C737.016 583.764 739.584 580.759 741.136 577.213C742.688 573.668 743.153 569.742 742.472 565.932C741.792 562.123 739.997 558.6 737.314 555.811C734.631 553.021 731.181 551.09 727.399 550.261C723.618 549.432 719.676 549.742 716.071 551.153C711.245 553.051 707.367 556.783 705.289 561.533C703.21 566.283 703.099 571.664 704.98 576.495Z" fill="#231F20"/>
<path d="M721.501 565.071L717.648 566.53L713.007 559.338L714.802 567.639L709.68 569.653L703.988 562.868L706.703 570.805L700.019 573.431C700.019 573.431 694.838 556.318 715.809 550.482C736.78 544.646 742.078 561.979 742.078 561.979C742.078 561.979 745.405 565.743 740.706 579.588C741.008 575.832 740.959 572.057 740.56 568.31C740.456 567.649 740.113 567.048 739.596 566.622C739.079 566.196 738.424 565.973 737.754 565.996C737.085 566.02 736.447 566.287 735.961 566.748C735.475 567.21 735.175 567.833 735.117 568.5L734.518 577.166C734.518 577.166 729.338 561.935 721.501 565.071Z" fill="#231F20"/>
<path d="M740.735 580.303H740.589C740.414 580.271 740.257 580.173 740.151 580.029C740.045 579.885 739.998 579.707 740.02 579.53C740.304 575.827 740.25 572.106 739.859 568.412C739.786 567.928 739.538 567.487 739.161 567.174C738.785 566.86 738.306 566.696 737.816 566.712C737.326 566.728 736.86 566.924 736.505 567.262C736.149 567.599 735.931 568.056 735.89 568.544L735.277 577.21C735.263 577.38 735.191 577.54 735.075 577.664C734.958 577.788 734.803 577.87 734.635 577.896C734.467 577.915 734.297 577.876 734.154 577.786C734.01 577.696 733.902 577.56 733.847 577.4C733.847 577.312 730.622 568.106 725.704 565.83C725.094 565.529 724.427 565.361 723.748 565.339C723.068 565.316 722.391 565.439 721.763 565.699L717.91 567.158C717.751 567.216 717.576 567.219 717.415 567.166C717.254 567.113 717.115 567.007 717.02 566.866L714.568 563.058L715.517 567.435C715.558 567.605 715.536 567.784 715.455 567.939C715.375 568.095 715.242 568.216 715.079 568.281L709.942 570.28C709.802 570.337 709.647 570.348 709.5 570.311C709.353 570.274 709.222 570.192 709.125 570.076L705.944 566.297L707.403 570.528C707.465 570.706 707.456 570.901 707.377 571.073C707.298 571.244 707.155 571.378 706.98 571.447L700.31 574.059C700.216 574.098 700.114 574.119 700.011 574.119C699.908 574.119 699.807 574.098 699.712 574.059C699.535 573.959 699.4 573.798 699.333 573.606C698.151 569.034 698.718 564.185 700.923 560.009C703.579 555.165 708.527 551.722 715.619 549.796C736.05 544.121 742.209 560.009 742.778 561.658C743.362 562.475 745.799 566.997 741.45 579.836C741.395 579.979 741.296 580.101 741.168 580.185C741.04 580.269 740.888 580.31 740.735 580.303ZM723.587 563.861C724.532 563.872 725.462 564.085 726.316 564.488C729.936 566.166 732.592 570.863 734.037 573.971L734.431 568.427C734.478 567.563 734.847 566.748 735.466 566.143C736.085 565.538 736.909 565.187 737.774 565.159C738.64 565.132 739.484 565.43 740.14 565.994C740.796 566.559 741.217 567.349 741.319 568.208C741.543 570.028 741.66 571.86 741.669 573.694C743.625 565.13 741.582 562.475 741.552 562.445C741.49 562.366 741.441 562.278 741.406 562.183C741.202 561.512 736.007 545.609 715.999 551.168C709.3 553.035 704.659 556.245 702.178 560.724C700.318 564.314 699.741 568.432 700.544 572.395L705.783 570.338L703.287 563.044C703.232 562.881 703.235 562.705 703.296 562.545C703.357 562.385 703.473 562.251 703.623 562.168C703.773 562.088 703.946 562.061 704.114 562.093C704.281 562.125 704.433 562.213 704.543 562.343L709.898 568.719L713.955 567.129L712.292 559.44C712.251 559.274 712.271 559.098 712.349 558.946C712.427 558.793 712.557 558.673 712.715 558.608C712.874 558.54 713.053 558.53 713.218 558.58C713.384 558.631 713.527 558.739 713.62 558.886L717.998 565.568L721.296 564.284C722.028 564.006 722.804 563.862 723.587 563.861Z" fill="#231F20"/>
<path d="M737.422 687.113C733.888 687.092 730.368 686.671 726.929 685.858C717.443 683.669 709.752 675.952 704.659 663.551C704.585 663.371 704.586 663.169 704.662 662.99C704.737 662.81 704.88 662.668 705.06 662.595C705.24 662.521 705.442 662.522 705.621 662.598C705.801 662.673 705.943 662.816 706.016 662.996C710.92 674.945 718.26 682.356 727.25 684.428C745.171 688.572 756.802 681.51 766.653 673.092C766.727 673.031 766.812 672.985 766.904 672.956C766.995 672.928 767.092 672.918 767.187 672.927C767.283 672.935 767.376 672.963 767.461 673.008C767.546 673.052 767.621 673.113 767.682 673.187C767.743 673.261 767.79 673.346 767.818 673.437C767.846 673.529 767.857 673.625 767.848 673.721C767.839 673.816 767.811 673.909 767.767 673.994C767.722 674.079 767.661 674.154 767.587 674.216C759.517 681.058 750.25 687.113 737.422 687.113Z" fill="#231F20"/>
<path d="M738.444 673.894C733.409 673.894 729.177 671.283 725.864 666.089C714.832 648.815 717.896 636.21 720.581 625.078C722.916 615.449 724.96 607.133 717.663 597.518C717.546 597.361 717.496 597.164 717.523 596.97C717.55 596.777 717.653 596.601 717.809 596.483C717.886 596.426 717.974 596.385 718.068 596.362C718.161 596.34 718.258 596.336 718.353 596.351C718.448 596.366 718.539 596.399 718.621 596.449C718.703 596.499 718.774 596.565 718.83 596.643C726.448 606.856 724.259 615.857 721.953 625.413C719.326 636.268 716.349 648.552 727.032 665.301C730.17 670.203 734.125 672.596 738.853 672.435C751.039 671.998 765.486 655.264 774.374 638.88C774.419 638.794 774.48 638.718 774.554 638.656C774.628 638.594 774.714 638.548 774.806 638.519C774.899 638.491 774.995 638.481 775.092 638.49C775.188 638.499 775.281 638.528 775.366 638.573C775.452 638.618 775.528 638.679 775.59 638.753C775.652 638.828 775.697 638.914 775.725 639.007C775.752 639.1 775.76 639.197 775.749 639.293C775.737 639.389 775.707 639.482 775.658 639.565C766.566 656.329 751.681 673.442 738.911 673.894H738.444Z" fill="#231F20"/>
<path d="M740.706 773.263C723.997 773.348 707.578 768.895 693.203 760.381C693.12 760.331 693.048 760.266 692.991 760.188C692.933 760.111 692.892 760.023 692.869 759.929C692.846 759.836 692.842 759.738 692.856 759.643C692.871 759.548 692.905 759.456 692.955 759.374C693.06 759.212 693.223 759.098 693.411 759.054C693.599 759.011 693.796 759.042 693.962 759.141C714.116 771.586 750.148 779.391 785.377 760.454C785.55 760.365 785.75 760.348 785.936 760.405C786.121 760.462 786.277 760.59 786.37 760.76C786.415 760.845 786.443 760.939 786.453 761.035C786.462 761.131 786.452 761.228 786.424 761.32C786.395 761.413 786.349 761.498 786.287 761.572C786.225 761.646 786.149 761.708 786.063 761.752C772.14 769.308 756.548 773.264 740.706 773.263Z" fill="#231F20"/>
<path d="M744.077 749.278C737.641 749.278 728.666 745.31 719.267 741.167C712.308 737.841 705.102 735.06 697.712 732.851C697.617 732.827 697.526 732.784 697.447 732.725C697.368 732.666 697.301 732.593 697.25 732.508C697.199 732.423 697.165 732.329 697.151 732.232C697.136 732.134 697.141 732.034 697.165 731.939C697.189 731.843 697.232 731.753 697.29 731.673C697.349 731.594 697.423 731.527 697.508 731.476C697.592 731.425 697.686 731.392 697.784 731.377C697.882 731.363 697.981 731.368 698.077 731.392C705.555 733.611 712.849 736.406 719.895 739.751C731.891 745.062 743.245 750.066 748.615 746.623C750.892 745.164 752.03 742.246 752.118 737.68C752.381 721.106 729.935 717.254 710.146 714.001C706.936 713.461 703.915 712.95 700.996 712.396C700.805 712.357 700.638 712.245 700.529 712.085C700.42 711.924 700.378 711.727 700.412 711.535C700.451 711.345 700.563 711.177 700.724 711.068C700.885 710.959 701.082 710.917 701.273 710.952C704.192 711.506 707.198 712.017 710.38 712.557C730.811 715.985 753.869 719.851 753.577 737.709C753.49 742.801 752.118 746.112 749.403 747.921C747.797 748.881 745.946 749.352 744.077 749.278Z" fill="#231F20"/>
<path d="M773.25 718.64C766.201 718.64 758.583 716.321 750.571 711.754C732.227 701.308 716.13 692.35 704.688 688.411C704.597 688.379 704.513 688.33 704.441 688.266C704.369 688.202 704.311 688.125 704.269 688.038C704.227 687.951 704.202 687.857 704.197 687.761C704.191 687.665 704.204 687.568 704.236 687.477C704.268 687.386 704.317 687.302 704.381 687.23C704.445 687.158 704.523 687.1 704.609 687.058C704.696 687.016 704.79 686.991 704.886 686.986C704.983 686.98 705.079 686.993 705.17 687.025C716.714 691.037 732.898 700.039 751.301 710.514C759.23 715.037 766.673 717.264 773.629 717.196C773.823 717.196 774.008 717.273 774.145 717.41C774.282 717.547 774.359 717.732 774.359 717.926C774.359 718.119 774.282 718.305 774.145 718.441C774.008 718.578 773.823 718.655 773.629 718.655L773.25 718.64Z" fill="#231F20"/>
<path d="M735.175 888.17C714.481 888.17 693.51 878.22 677.165 860.158C677.097 860.092 677.043 860.012 677.006 859.925C676.969 859.837 676.95 859.743 676.95 859.648C676.95 859.553 676.969 859.458 677.006 859.371C677.043 859.283 677.097 859.204 677.165 859.137C677.233 859.069 677.313 859.014 677.402 858.977C677.491 858.94 677.587 858.921 677.683 858.921C677.779 858.921 677.875 858.94 677.964 858.977C678.053 859.014 678.133 859.069 678.201 859.137C697.538 880.496 723.442 890.315 747.448 885.398C761.502 882.48 769.47 879.037 771.791 874.719C773.557 871.421 772.053 867.745 770.477 863.864C768.755 859.604 766.8 854.789 769.193 849.931C772.272 843.716 781.773 838.61 799.125 833.883C801.212 833.299 803.328 832.818 805.59 832.424C805.781 832.394 805.976 832.44 806.134 832.551C806.292 832.663 806.401 832.832 806.436 833.022C806.47 833.211 806.428 833.407 806.319 833.565C806.209 833.724 806.042 833.833 805.853 833.868C803.634 834.277 801.562 834.743 799.519 835.327C782.824 839.894 773.338 844.883 770.506 850.617C768.39 854.891 770.142 859.195 771.835 863.353C773.527 867.511 775.162 871.553 773.075 875.448C770.506 880.248 762.451 883.881 747.74 886.886C743.605 887.733 739.396 888.163 735.175 888.17Z" fill="#231F20"/>
<path d="M728.038 851.273C727.786 851.294 727.532 851.294 727.279 851.273C722.551 850.281 718.742 839.966 713.926 826.894C707.972 810.846 700.558 790.698 689.365 784.483C689.28 784.436 689.206 784.373 689.146 784.297C689.086 784.221 689.042 784.135 689.015 784.042C688.989 783.949 688.981 783.852 688.992 783.756C689.003 783.66 689.033 783.568 689.08 783.483C689.127 783.399 689.19 783.325 689.266 783.265C689.341 783.205 689.428 783.16 689.521 783.134C689.614 783.108 689.711 783.1 689.807 783.111C689.903 783.122 689.995 783.152 690.08 783.199C701.755 789.677 709.256 810.029 715.298 826.384C719.588 838.055 723.645 849.012 727.586 849.844C728.146 849.893 728.709 849.797 729.22 849.564C729.732 849.331 730.174 848.97 730.505 848.516C735.89 842.899 732.694 831.169 729.862 820.796C727.323 811.502 725.134 803.478 729.074 800.371C733.015 797.263 743.172 800.487 761.429 811.05C774.563 818.622 787.8 819.089 799.723 812.378C799.89 812.308 800.078 812.303 800.249 812.362C800.421 812.42 800.565 812.54 800.654 812.698C800.744 812.855 800.773 813.04 800.736 813.218C800.699 813.395 800.598 813.553 800.452 813.662C788.033 820.621 774.3 820.154 760.699 812.305C743.493 802.369 733.438 798.839 729.965 801.523C726.798 803.96 728.972 811.911 731.278 820.344C734.197 831.067 737.524 843.22 731.57 849.42C731.137 849.952 730.601 850.39 729.994 850.708C729.387 851.026 728.721 851.219 728.038 851.273Z" fill="#231F20"/>
<path d="M751.578 910.244C751.462 910.245 751.348 910.219 751.244 910.169C751.14 910.118 751.05 910.044 750.98 909.952C750.923 909.875 750.882 909.787 750.859 909.693C750.837 909.6 750.833 909.503 750.848 909.408C750.863 909.313 750.896 909.222 750.946 909.14C750.997 909.059 751.062 908.987 751.14 908.931C765.909 897.916 784.502 895.304 806.407 901.155C812.45 902.922 818.827 903.232 825.014 902.059C825.108 902.04 825.204 902.04 825.299 902.058C825.393 902.076 825.482 902.113 825.562 902.165C825.642 902.218 825.711 902.286 825.765 902.366C825.818 902.445 825.856 902.534 825.875 902.628C825.896 902.722 825.898 902.82 825.881 902.914C825.863 903.009 825.827 903.1 825.774 903.18C825.721 903.26 825.652 903.329 825.571 903.382C825.491 903.435 825.401 903.472 825.306 903.489C818.902 904.708 812.3 904.393 806.042 902.57C784.575 896.836 766.405 899.375 752.045 910.098C751.911 910.2 751.746 910.252 751.578 910.244Z" fill="#231F20"/>
<path d="M686.052 918.852C685.907 918.856 685.764 918.815 685.644 918.735C679.903 915.019 674.644 910.609 669.984 905.604C669.916 905.537 669.862 905.456 669.825 905.367C669.788 905.278 669.769 905.183 669.769 905.087C669.769 904.99 669.788 904.895 669.825 904.806C669.862 904.717 669.916 904.636 669.984 904.569C670.051 904.501 670.13 904.447 670.218 904.41C670.306 904.373 670.4 904.354 670.495 904.354C670.59 904.354 670.685 904.373 670.772 904.41C670.86 904.447 670.939 904.501 671.006 904.569C675.585 909.5 680.757 913.846 686.402 917.509C686.563 917.619 686.675 917.787 686.713 917.978C686.751 918.169 686.713 918.368 686.607 918.531C686.543 918.621 686.461 918.697 686.365 918.753C686.269 918.808 686.162 918.842 686.052 918.852Z" fill="#231F20"/>
<path d="M745.376 642.075C743.479 642.075 741.888 640.28 740.341 636.458C734.343 621.591 746.544 603.996 757.854 591.858C757.99 591.724 758.174 591.649 758.365 591.649C758.556 591.649 758.739 591.724 758.875 591.858C758.944 591.926 758.998 592.006 759.035 592.095C759.072 592.184 759.091 592.28 759.091 592.376C759.091 592.472 759.072 592.568 759.035 592.656C758.998 592.745 758.944 592.826 758.875 592.894C747.872 604.726 735.963 621.796 741.669 635.947C742.91 639.026 744.18 640.645 745.347 640.66C748.266 640.66 751.973 631.716 755.563 623.152C758.788 615.391 762.436 606.593 766.625 601.035C766.681 600.957 766.752 600.89 766.835 600.84C766.917 600.791 767.009 600.758 767.104 600.744C767.2 600.731 767.297 600.736 767.39 600.761C767.483 600.786 767.57 600.829 767.646 600.889C767.798 601.007 767.898 601.18 767.925 601.37C767.952 601.561 767.905 601.754 767.792 601.91C763.706 607.323 760.101 616.033 756.92 623.707C752.658 633.919 749.273 642.075 745.376 642.075Z" fill="#231F20"/>
<path d="M731.366 989.158L737.889 997.124H700.281L731.366 989.158Z" fill="#231F20"/>
<path d="M737.889 997.868H700.281C700.102 997.867 699.93 997.801 699.796 997.683C699.662 997.565 699.575 997.403 699.551 997.226C699.528 997.048 699.572 996.867 699.674 996.719C699.777 996.571 699.93 996.466 700.105 996.424L731.146 988.458C731.283 988.425 731.427 988.43 731.561 988.474C731.695 988.518 731.814 988.598 731.905 988.706L738.414 996.672C738.504 996.777 738.562 996.906 738.58 997.043C738.598 997.181 738.576 997.32 738.516 997.445C738.459 997.565 738.371 997.668 738.26 997.742C738.15 997.817 738.022 997.86 737.889 997.868ZM706.074 996.409H736.342L731.088 990.005L706.074 996.409Z" fill="#231F20"/>
<path d="M779.218 989.158L785.727 997.124H748.134L779.218 989.158Z" fill="#231F20"/>
<path d="M785.728 997.868H748.134C747.941 997.894 747.745 997.841 747.591 997.722C747.436 997.603 747.335 997.427 747.31 997.234C747.285 997.04 747.337 996.845 747.456 996.69C747.576 996.536 747.751 996.435 747.945 996.409L779.029 988.444C779.164 988.408 779.306 988.412 779.439 988.456C779.571 988.5 779.687 988.582 779.774 988.692L786.297 996.657C786.384 996.764 786.44 996.893 786.458 997.03C786.476 997.166 786.455 997.305 786.399 997.431C786.339 997.559 786.245 997.668 786.126 997.745C786.007 997.823 785.87 997.865 785.728 997.868ZM753.928 996.409H784.195L778.942 990.005L753.928 996.409Z" fill="#231F20"/>
<path d="M781.335 661.172H781.189L770.55 659.057C770.357 659.02 770.186 658.908 770.075 658.745C769.964 658.583 769.923 658.382 769.959 658.189C769.996 657.995 770.108 657.824 770.271 657.714C770.434 657.603 770.634 657.561 770.828 657.598L781.466 659.699C781.654 659.741 781.818 659.854 781.925 660.015C782.031 660.175 782.071 660.371 782.036 660.56C782.009 660.727 781.924 660.88 781.796 660.992C781.668 661.104 781.505 661.168 781.335 661.172Z" fill="#231F20"/>
<path d="M881.326 832.439L371.462 476.46L351.717 504.724L861.581 860.703L881.326 832.439Z" fill="#231F20"/>
<path d="M1049.66 926.727L804.678 755.688C788.271 744.232 765.681 748.243 754.222 764.646L754.13 764.777C742.671 781.18 746.683 803.763 763.09 815.219L1008.07 986.258C1024.48 997.714 1047.07 993.703 1058.52 977.3L1058.62 977.169C1070.07 960.766 1066.06 938.183 1049.66 926.727Z" fill="#231F20"/>
<path d="M364.347 742.042C502.163 742.042 613.886 630.352 613.886 492.576C613.886 354.801 502.163 243.111 364.347 243.111C226.531 243.111 114.809 354.801 114.809 492.576C114.809 630.352 226.531 742.042 364.347 742.042Z" fill="#231F20"/>
<path d="M544.347 618.206C516.078 658.707 474.97 688.491 427.67 702.741C380.37 716.991 329.645 714.874 283.698 696.732C237.752 678.59 199.27 645.483 174.477 602.767C149.683 560.051 140.028 510.223 147.073 461.342C154.117 412.46 177.45 367.383 213.297 333.402C249.143 299.42 295.408 278.52 344.609 274.082C393.81 269.644 443.07 281.928 484.422 308.946C525.774 335.965 556.801 376.139 572.484 422.97C583.363 455.45 586.485 490.025 581.599 523.927C576.713 557.83 563.955 590.118 544.347 618.206Z" fill="white"/>
<path d="M363.881 712.761C323.663 712.654 284.242 701.54 249.894 680.625C215.546 659.71 187.582 629.792 169.035 594.117C150.488 558.441 142.067 518.37 144.684 478.249C147.301 438.128 160.857 399.489 183.881 366.523C253.406 267.023 390.938 242.615 490.482 312.119C523.681 335.313 549.844 367.206 566.097 404.294C582.35 441.382 588.064 482.231 582.612 522.353C576.274 568.527 555.452 611.501 523.14 645.096C490.828 678.691 448.69 701.176 402.788 709.318C389.945 711.602 376.926 712.754 363.881 712.761ZM364.654 273.982C327.054 273.938 290.077 283.586 257.294 301.995C224.511 320.404 197.03 346.952 177.505 379.076C157.979 411.2 147.068 447.815 145.826 485.384C144.584 522.953 153.053 560.207 170.414 593.55C187.775 626.893 213.443 655.197 244.938 675.73C276.433 696.263 312.692 708.331 350.214 710.769C387.735 713.206 425.251 705.931 459.14 689.645C493.028 673.36 522.144 648.614 543.676 617.798L544.274 618.206L543.676 617.798C563.654 589.382 576.494 556.574 581.109 522.149C586.567 482.292 580.912 441.703 564.766 404.854C548.621 368.005 522.612 336.329 489.606 313.316C452.985 287.685 409.357 273.952 364.654 273.982Z" fill="#231F20"/>
<path d="M193.47 630.345C166.085 596.352 149.46 554.97 145.719 511.484C322.595 485.413 344.923 493.598 307.841 432.089C281.105 387.737 421.263 353.159 517.203 335.112C542.43 359.527 561.393 389.666 572.484 422.97C501.587 428.354 411.661 448.093 461.922 516.43C511.774 584.213 333.599 616.033 193.47 630.345Z" fill="white"/>
<path d="M193.469 631.074C193.36 631.073 193.252 631.047 193.154 630.999C193.055 630.951 192.969 630.882 192.9 630.797C165.374 596.721 148.687 555.186 144.989 511.543C144.968 511.359 145.021 511.175 145.136 511.03C145.251 510.885 145.418 510.792 145.602 510.77C171.141 507.005 193.279 503.971 212.82 501.301C282.608 491.759 314.466 487.412 321.004 473.771C325.134 465.134 319.34 452.587 307.213 432.468C305.282 429.554 304.126 426.196 303.855 422.711C303.584 419.226 304.208 415.73 305.666 412.553C314.247 393.426 357.882 364.408 517.056 334.397C517.171 334.372 517.29 334.375 517.402 334.409C517.515 334.442 517.617 334.503 517.698 334.587C542.973 359.116 561.991 389.351 573.155 422.751C573.192 422.855 573.203 422.966 573.188 423.076C573.173 423.185 573.131 423.289 573.067 423.379C573.005 423.471 572.923 423.548 572.827 423.603C572.731 423.659 572.623 423.692 572.513 423.7C524.514 427.347 464.446 437.895 450.845 467.468C444.715 480.817 448.626 497.143 462.52 515.978C471.407 528.043 473.494 539.613 468.722 550.336C448.51 595.899 307.928 619.388 193.542 631.074H193.469ZM146.506 512.112C150.282 555.083 166.739 595.965 193.79 629.572C400.015 608.475 456.39 574.526 467.379 549.767C471.903 539.555 469.875 528.481 461.337 516.853C447.138 497.566 443.168 480.744 449.546 466.87C457.193 450.238 484.571 429.039 571.491 422.314C560.394 389.607 541.705 359.994 516.954 335.9C445.255 349.41 323.062 377.334 307.009 413.151C305.648 416.112 305.068 419.372 305.323 422.62C305.579 425.868 306.661 428.997 308.468 431.709C320.858 452.266 326.739 465.163 322.317 474.398C315.444 488.754 283.352 493.145 213.025 502.745C193.659 505.401 171.739 508.391 146.506 512.112Z" fill="#231F20"/>
<path d="M161.246 986.488L179.153 911.338L159.218 923.55L155.044 986.488H161.246Z" fill="white"/>
<path d="M161.246 987.233H155.044C154.943 987.233 154.843 987.212 154.75 987.172C154.658 987.132 154.574 987.073 154.506 986.999C154.437 986.925 154.385 986.837 154.352 986.742C154.319 986.646 154.306 986.545 154.314 986.445L158.488 923.506C158.494 923.387 158.53 923.272 158.591 923.171C158.652 923.069 158.737 922.984 158.838 922.922L178.773 910.711C178.891 910.629 179.031 910.584 179.174 910.584C179.318 910.584 179.458 910.629 179.576 910.711C179.694 910.794 179.785 910.911 179.837 911.046C179.889 911.181 179.9 911.328 179.868 911.469L161.99 986.707C161.942 986.865 161.843 987.002 161.708 987.097C161.573 987.192 161.411 987.24 161.246 987.233ZM155.817 985.774H160.662L178.029 912.826L159.918 923.973L155.817 985.774Z" fill="#231F20"/>
<path d="M86.5266 986.488L84.498 875.04L108.476 876.163L93.3857 986.488H86.5266Z" fill="white"/>
<path d="M93.4005 987.233H86.5414C86.3491 987.229 86.1656 987.151 86.0296 987.015C85.8935 986.879 85.8155 986.695 85.8117 986.503L83.7832 875.054C83.7874 874.853 83.8653 874.661 84.0021 874.514C84.1526 874.376 84.3521 874.302 84.5567 874.31L108.534 875.433C108.636 875.439 108.735 875.465 108.825 875.51C108.916 875.556 108.996 875.62 109.061 875.698C109.125 875.776 109.173 875.867 109.2 875.965C109.228 876.062 109.234 876.165 109.22 876.265L94.1302 986.591C94.1057 986.767 94.0185 986.929 93.8846 987.047C93.7507 987.165 93.5789 987.231 93.4005 987.233ZM87.2711 985.774H92.773L107.659 876.878L85.2572 875.827L87.2711 985.774Z" fill="#231F20"/>
<path d="M136.174 603.865H122.179L137.706 571.987H151.702L136.174 603.865Z" fill="white"/>
<path d="M136.174 604.595H122.179C122.057 604.594 121.937 604.563 121.83 604.505C121.723 604.446 121.632 604.362 121.566 604.259C121.509 604.149 121.479 604.026 121.479 603.901C121.479 603.777 121.509 603.654 121.566 603.544L137.094 571.666C137.155 571.544 137.249 571.442 137.365 571.37C137.481 571.298 137.614 571.259 137.751 571.258H151.775C151.897 571.258 152.017 571.289 152.124 571.347C152.232 571.406 152.322 571.49 152.388 571.593C152.446 571.703 152.476 571.826 152.476 571.951C152.476 572.075 152.446 572.198 152.388 572.308L136.86 604.186C136.797 604.312 136.698 604.418 136.577 604.49C136.455 604.562 136.316 604.599 136.174 604.595ZM123.347 603.136H135.722L150.549 572.717H138.188L123.347 603.136Z" fill="#231F20"/>
<path d="M142.085 588.882C153.135 588.882 162.093 579.926 162.093 568.879C162.093 557.832 153.135 548.877 142.085 548.877C131.035 548.877 122.077 557.832 122.077 568.879C122.077 579.926 131.035 588.882 142.085 588.882Z" fill="white"/>
<path d="M142.084 589.611C137.983 589.611 133.973 588.395 130.563 586.117C127.153 583.839 124.495 580.601 122.925 576.813C121.356 573.025 120.945 568.856 121.745 564.835C122.545 560.813 124.52 557.119 127.421 554.22C130.321 551.32 134.016 549.346 138.039 548.546C142.061 547.746 146.231 548.157 150.02 549.726C153.81 551.295 157.048 553.952 159.327 557.361C161.606 560.771 162.822 564.779 162.822 568.879C162.814 574.375 160.627 579.644 156.74 583.53C152.852 587.417 147.582 589.603 142.084 589.611ZM142.084 549.621C138.271 549.621 134.543 550.752 131.372 552.87C128.202 554.989 125.731 558 124.272 561.522C122.813 565.044 122.433 568.92 123.178 572.659C123.923 576.398 125.76 579.832 128.458 582.527C131.155 585.222 134.592 587.056 138.332 587.798C142.073 588.54 145.95 588.156 149.472 586.695C152.994 585.235 156.004 582.762 158.121 579.591C160.237 576.419 161.366 572.692 161.363 568.879C161.359 563.77 159.326 558.872 155.711 555.261C152.096 551.65 147.195 549.621 142.084 549.621Z" fill="#231F20"/>
<path d="M195.498 848.589L177.665 953.429H150.36L163.99 851.463L130.585 719.501L116.254 849.581L106.681 953.429H82.4404L85.0673 853.812V690.672H175.782L195.498 848.589Z" fill="#231F20"/>
<path d="M175.782 638.865V690.672H85.0522V638.865C85.0028 627.241 89.4195 616.041 97.3906 607.578C105.362 599.115 116.279 594.034 127.888 593.385C139.498 592.735 150.914 596.566 159.78 604.088C168.646 611.609 174.285 622.245 175.533 633.803C175.712 635.484 175.795 637.174 175.782 638.865Z" fill="#F5CFCE"/>
<path d="M175.782 691.416H85.0524C84.8601 691.413 84.6766 691.335 84.5406 691.199C84.4045 691.063 84.3265 690.879 84.3227 690.687V638.865C84.2138 632.745 85.3255 626.664 87.5931 620.978C89.8606 615.292 93.2385 610.114 97.5296 605.747C101.821 601.38 106.939 597.912 112.585 595.544C118.232 593.176 124.294 591.957 130.417 591.957C136.54 591.957 142.602 593.176 148.249 595.544C153.895 597.912 159.014 601.38 163.305 605.747C167.596 610.114 170.974 615.292 173.241 620.978C175.509 626.664 176.62 632.745 176.511 638.865V690.687C176.511 690.88 176.435 691.066 176.298 691.203C176.161 691.34 175.975 691.416 175.782 691.416ZM85.7821 689.957H175.125V638.894C175.122 637.232 175.029 635.572 174.848 633.919C173.61 622.557 168.058 612.102 159.337 604.71C150.617 597.319 139.392 593.554 127.976 594.192C116.561 594.83 105.825 599.822 97.9831 608.139C90.1407 616.456 85.7893 627.464 85.8259 638.894L85.7821 689.957Z" fill="#231F20"/>
<path d="M120.135 993.973H85.9277L86.205 986.488H93.0641L120.135 993.973Z" fill="#231F20"/>
<path d="M120.136 994.702H85.9278C85.8298 994.705 85.7324 994.687 85.6419 994.649C85.5514 994.611 85.4698 994.555 85.4024 994.484C85.3312 994.414 85.276 994.329 85.2407 994.236C85.2054 994.143 85.1909 994.043 85.1981 993.944L85.4754 986.474C85.4828 986.284 85.5625 986.104 85.6981 985.972C85.8338 985.839 86.0152 985.763 86.2051 985.759H93.0641H93.2538L120.325 993.243C120.519 993.269 120.694 993.37 120.813 993.524C120.932 993.679 120.985 993.874 120.96 994.068C120.935 994.261 120.834 994.437 120.679 994.556C120.525 994.675 120.329 994.728 120.136 994.702ZM86.6866 993.243H114.75L92.962 987.233H86.9056L86.6866 993.243Z" fill="#231F20"/>
<path d="M191.339 993.973H154.329L155.044 986.488H161.247L191.339 993.973Z" fill="#231F20"/>
<path d="M191.339 994.702H154.329C154.228 994.702 154.128 994.681 154.035 994.641C153.942 994.601 153.858 994.543 153.789 994.469C153.719 994.396 153.666 994.308 153.633 994.213C153.601 994.117 153.589 994.015 153.599 993.915L154.314 986.43C154.329 986.247 154.412 986.076 154.548 985.952C154.683 985.827 154.86 985.758 155.044 985.759H161.246H161.422L191.514 993.243C191.685 993.285 191.835 993.389 191.935 993.534C192.034 993.679 192.077 993.857 192.054 994.031C192.043 994.213 191.962 994.384 191.83 994.509C191.697 994.633 191.521 994.703 191.339 994.702ZM155.132 993.243H185.341L161.13 987.233H155.672L155.132 993.243Z" fill="#231F20"/>
<path d="M171.725 545.318C168.12 537.352 159.262 544.967 159.262 544.967C159.262 544.967 173.943 525.388 157.803 524.017C151.746 523.492 147.587 526.453 144.26 530.655C141.939 533.573 139.531 536.345 136.963 539C140.13 534.623 141.837 530.349 137.284 529.896C129.476 529.109 127.915 541.801 127.594 547.258C126.835 547.798 126.061 548.338 125.273 548.834C104.565 561.964 118.458 587.073 132.016 589.29C148.55 591.989 149.528 583.119 149.528 583.119C149.528 583.119 142.611 587.598 142.027 580.653C141.516 574.569 149.178 577.327 149.178 577.327V577.02C148.851 572.586 149.92 568.16 152.237 564.363C154.553 560.567 157.999 557.59 162.093 555.851C167.566 553.502 173.666 549.68 171.725 545.318Z" fill="#231F20"/>
<path d="M137.896 590.53C135.91 590.515 133.929 590.339 131.971 590.005C124.12 588.721 116.458 580.332 114.532 570.893C113.452 565.567 113.364 555.545 124.952 548.221C125.633 547.783 126.304 547.331 126.966 546.864C127.257 542.151 128.425 534.142 132.351 530.815C133.04 530.213 133.849 529.762 134.723 529.491C135.598 529.219 136.52 529.134 137.429 529.24C138.076 529.229 138.714 529.396 139.272 529.723C139.831 530.049 140.289 530.523 140.596 531.093C140.947 532.033 140.947 533.07 140.596 534.01C141.588 532.858 142.625 531.603 143.719 530.261C146.361 526.993 150.695 522.718 157.89 523.346C161.815 523.681 164.384 525.111 165.493 527.591C167.463 531.968 164.223 538.562 161.888 542.399C163.735 541.284 165.911 540.84 168.047 541.145C169.04 541.395 169.958 541.883 170.72 542.567C171.483 543.25 172.068 544.109 172.425 545.069C172.697 545.654 172.847 546.289 172.864 546.933C172.882 547.578 172.767 548.22 172.527 548.819C171.214 552.203 166.325 554.903 162.458 556.58C158.509 558.262 155.184 561.134 152.947 564.796C150.71 568.457 149.673 572.726 149.98 577.006V577.312C149.989 577.435 149.968 577.558 149.917 577.671C149.866 577.783 149.787 577.88 149.688 577.954C149.592 578.028 149.478 578.076 149.358 578.094C149.238 578.112 149.116 578.099 149.002 578.056C147.981 577.691 145.018 576.976 143.632 578.056C143.285 578.383 143.029 578.794 142.888 579.249C142.747 579.704 142.727 580.188 142.829 580.653C142.96 582.229 143.442 583.235 144.288 583.571C145.748 584.33 148.36 583.06 149.206 582.506C149.325 582.434 149.461 582.396 149.6 582.396C149.739 582.396 149.876 582.434 149.994 582.506C150.109 582.58 150.202 582.685 150.261 582.809C150.32 582.932 150.344 583.07 150.33 583.206C150.161 584.165 149.805 585.081 149.281 585.902C148.758 586.723 148.078 587.433 147.28 587.992C144.516 589.846 141.218 590.739 137.896 590.53ZM136.656 530.596C135.42 530.586 134.225 531.033 133.299 531.851C129.49 535.105 128.6 543.742 128.396 547.301C128.391 547.411 128.36 547.518 128.307 547.614C128.254 547.711 128.179 547.793 128.089 547.856C127.316 548.396 126.542 548.95 125.74 549.446C114.882 556.318 114.955 565.64 115.962 570.601C117.742 579.354 125.025 587.393 132.205 588.56C138.582 589.611 143.486 589.013 146.361 586.81C147.161 586.22 147.823 585.464 148.302 584.592C147.583 584.962 146.796 585.179 145.99 585.229C145.184 585.28 144.376 585.162 143.617 584.884C142.898 584.458 142.308 583.844 141.91 583.11C141.511 582.375 141.32 581.546 141.355 580.711C141.227 580.001 141.286 579.27 141.527 578.589C141.767 577.909 142.181 577.303 142.727 576.831C144.361 575.576 146.988 575.97 148.433 576.334C148.263 571.866 149.455 567.45 151.85 563.673C154.244 559.896 157.73 556.934 161.845 555.18C166.952 552.977 170.251 550.511 171.126 548.235C171.299 547.817 171.382 547.367 171.369 546.914C171.357 546.462 171.249 546.017 171.053 545.609C170.789 544.866 170.35 544.198 169.773 543.66C169.197 543.121 168.5 542.729 167.74 542.516C164.209 541.743 159.787 545.434 159.743 545.521C159.609 545.642 159.435 545.709 159.254 545.709C159.074 545.709 158.899 545.642 158.765 545.521C158.637 545.395 158.558 545.228 158.542 545.049C158.526 544.87 158.574 544.691 158.678 544.544C158.765 544.442 166.69 533.748 164.165 528.131C163.289 526.176 161.144 525.038 157.773 524.761C152.782 524.323 148.783 526.22 144.872 531.136C142.187 534.448 139.866 537.118 137.575 539.525C137.436 539.648 137.257 539.716 137.072 539.716C136.886 539.716 136.707 539.648 136.568 539.525C136.426 539.406 136.335 539.237 136.313 539.052C136.292 538.868 136.341 538.682 136.451 538.533C139.633 534.083 139.575 532.26 139.268 531.574C138.962 530.888 138.349 530.684 137.283 530.582C137.074 530.573 136.864 530.577 136.656 530.596Z" fill="#231F20"/>
<path d="M170.339 954.158H170.207C170.113 954.142 170.022 954.108 169.941 954.056C169.86 954.005 169.79 953.938 169.736 953.859C169.682 953.78 169.644 953.691 169.624 953.597C169.605 953.503 169.605 953.406 169.624 953.312L188.158 849.566L157.438 690.818C157.401 690.625 157.443 690.425 157.554 690.262C157.664 690.099 157.835 689.987 158.029 689.95C158.222 689.913 158.423 689.955 158.585 690.066C158.748 690.177 158.86 690.348 158.897 690.541L189.646 849.435C189.668 849.526 189.668 849.621 189.646 849.712L171.068 953.56C171.04 953.731 170.951 953.886 170.816 953.996C170.682 954.107 170.512 954.164 170.339 954.158Z" fill="white"/>
<path d="M135.124 738.146C134.96 738.145 134.802 738.091 134.672 737.99C134.543 737.89 134.451 737.75 134.409 737.592L130.031 720.085L111.161 711.9C110.985 711.82 110.847 711.675 110.776 711.495C110.706 711.316 110.707 711.115 110.782 710.937C110.82 710.849 110.875 710.769 110.944 710.702C111.013 710.635 111.095 710.582 111.184 710.547C111.274 710.512 111.369 710.495 111.466 710.496C111.562 710.498 111.657 710.519 111.745 710.558L130.936 718.888C131.039 718.934 131.13 719.003 131.203 719.089C131.276 719.174 131.33 719.276 131.359 719.384L135.883 737.3C135.907 737.392 135.912 737.488 135.899 737.582C135.885 737.676 135.853 737.767 135.804 737.848C135.755 737.93 135.69 738.001 135.614 738.057C135.537 738.113 135.45 738.154 135.357 738.176C135.279 738.192 135.196 738.182 135.124 738.146Z" fill="#231F20"/>
<path d="M153.512 599.838L212.616 690.672L245.671 712.031L272.495 705.773L263.738 720.873L287.088 729.787C287.088 729.787 231.734 755.304 181.649 696.625C135.853 642.979 153.512 599.838 153.512 599.838Z" fill="white"/>
<path d="M257.376 735.9C236.609 735.9 207.976 728.605 181.079 697.092C157.306 669.24 150.885 644.234 149.674 628.171C148.375 610.664 152.592 599.999 152.826 599.561C152.875 599.436 152.959 599.327 153.067 599.247C153.176 599.166 153.304 599.119 153.439 599.109C153.571 599.1 153.703 599.125 153.823 599.181C153.943 599.238 154.047 599.323 154.125 599.43L213.142 690.147L245.817 711.258L272.32 705.13C272.459 705.096 272.606 705.104 272.741 705.152C272.876 705.201 272.994 705.288 273.08 705.404C273.166 705.519 273.215 705.657 273.223 705.8C273.23 705.944 273.195 706.086 273.122 706.21L264.818 720.566L287.337 729.174C287.469 729.231 287.583 729.324 287.666 729.443C287.749 729.561 287.796 729.701 287.803 729.845C287.804 729.988 287.765 730.127 287.69 730.249C287.616 730.37 287.508 730.468 287.38 730.531C277.818 734.237 267.63 736.06 257.376 735.9ZM153.76 601.487C151.323 609.248 141.808 648.771 182.247 696.143C226.524 748.053 275.457 733.39 285.104 729.801L263.549 721.558C263.449 721.52 263.359 721.461 263.283 721.386C263.208 721.311 263.149 721.22 263.111 721.121C263.068 721.024 263.046 720.92 263.046 720.814C263.046 720.709 263.068 720.604 263.111 720.508L270.992 706.867L245.832 712.702C245.735 712.725 245.635 712.728 245.537 712.71C245.439 712.692 245.346 712.655 245.263 712.6L212.208 691.241C212.118 691.193 212.043 691.123 211.989 691.037L153.76 601.487Z" fill="#231F20"/>
<path d="M775.074 616.85C775.074 616.85 767.938 733.463 696.895 748.549C696.895 748.549 671.809 753.378 670.524 727.409L689.715 728.284L731.264 690.731L750.629 631.074C757.299 614.238 775.074 616.85 775.074 616.85Z" fill="white"/>
<path d="M692.298 749.658C687.038 749.803 681.878 748.208 677.617 745.12C672.816 741.342 670.189 735.404 669.795 727.438V726.635L689.496 727.54L730.68 690.322L749.988 630.841C756.803 613.625 775.045 616.106 775.235 616.12L775.891 616.222V616.893C774.148 637.446 769.959 657.718 763.414 677.279C749.36 718.13 726.448 743.049 697.129 749.278C695.533 749.544 693.917 749.671 692.298 749.658ZM671.313 728.182C671.809 735.287 674.231 740.598 678.522 743.968C685.979 749.803 696.647 747.863 696.75 747.834C763.604 733.638 773.542 627.164 774.301 617.492C771.032 617.214 757.036 616.879 751.316 631.337L731.906 691.154L689.993 729.086L671.313 728.182Z" fill="#231F20"/>
<path d="M185.793 631.673L159.757 671.648C159.757 671.648 135.327 641.01 153.511 599.838L185.793 631.673Z" fill="#F5CFCE"/>
<path d="M159.758 672.377C159.649 672.38 159.541 672.359 159.442 672.313C159.343 672.267 159.257 672.199 159.189 672.114C158.941 671.793 134.686 640.616 152.84 599.532C152.889 599.424 152.962 599.329 153.055 599.256C153.148 599.183 153.258 599.133 153.374 599.112C153.49 599.09 153.61 599.097 153.723 599.132C153.836 599.167 153.939 599.229 154.022 599.313L186.318 631.147C186.433 631.272 186.504 631.431 186.52 631.599C186.536 631.768 186.496 631.937 186.406 632.081L160.371 672.056C160.306 672.152 160.219 672.231 160.118 672.287C160.016 672.343 159.903 672.374 159.787 672.377H159.758ZM153.76 601.108C148.827 612.216 146.786 624.392 147.827 636.501C148.868 648.61 152.957 660.26 159.714 670.364L184.859 631.775L153.76 601.108Z" fill="#231F20"/>
</g>
<defs>
<clipPath id="clip0_646_239">
<rect width="1448" height="1007" fill="white"/>
</clipPath>
</defs>
</svg>
