<svg width="694" height="795" viewBox="0 0 694 795" fill="none" xmlns="http://www.w3.org/2000/svg">
<path d="M692.54 370.78L58.4697 432.45V1.20996L692.54 124.54V370.78Z" fill="white"/>
<path d="M57.8799 433.11V0.47998L58.5899 0.61998L693.13 124.05V371.33H692.59L57.8799 433.11ZM59.0699 1.92998V431.79L691.94 370.24V125L59.0699 1.92998Z" fill="#231F20"/>
<path d="M635.13 231L596 483.64C603.13 455.45 706.71 291.64 652.12 121.31L636.32 223.31L654.6 231H635.13Z" fill="#2B4E47"/>
<path d="M595.59 483.79L594.42 483.55L633.62 230.41H650.62L634.62 223.68L650.88 118.68L651.65 121.09C696.83 262.09 633.6 399.09 606.6 457.58C600.94 470 596.81 479 595.59 483.79ZM634.65 231.61L596.65 477.19C598.65 472.14 601.79 465.4 605.65 457.12C632.44 399.12 694.96 263.62 651.41 123.92L636.07 222.92L656.63 231.59L634.65 231.61Z" fill="#2B4E47"/>
<path d="M543.13 126.1L588.79 134L545.41 142.07L552.47 191.42L588.79 187L554.35 204.63L594.63 486.12C594.63 486.12 676.11 87.8 525.49 2.80005L543.13 126.1Z" fill="#607A75"/>
<path d="M595.52 489.6L554.7 204.29L586.53 188L553 192.11L545.77 141.61L586.42 134L543.6 126.58L543.54 126.15L525.72 1.65002L526.78 2.24004C561.28 21.71 586.39 59.3 601.41 113.98C613.41 157.65 619.03 212.26 618.14 276.3C616.61 385.3 596.41 485.2 596.21 486.2L595.52 489.6ZM556 205L595.71 482.58C599.25 464.06 615.57 373.85 616.93 276.35C617.83 212.42 612.21 157.93 600.25 114.35C585.47 60.56 560.91 23.42 527.25 3.94003L544.66 125.61L593.16 134.02L547.08 142.6L553.98 190.8L593.05 186L556 205Z" fill="#607A75"/>
<path d="M498 331.14L516.84 321.21L502.76 338.79L594.66 486.12C594.66 486.12 577.37 292.5 468.66 284.19L498 331.14Z" fill="#95A6A3"/>
<path d="M596.44 488.56L503 338.75L515.56 323.07L498.75 331.93L468.55 283.5L469.73 283.59C494.67 285.5 516.85 297.36 535.65 318.85C550.65 336 563.54 359.29 573.96 388.07C591.69 437.02 596.18 485.58 596.22 486.07L596.44 488.56ZM504.44 338.83L594.75 483.61C593.56 472.97 588.17 430.85 572.81 388.45C562.44 359.82 549.63 336.66 534.72 319.63C516.46 298.73 495 287 470.82 284.88L499.18 330.35L520.07 319.35L504.44 338.83Z" fill="#231F20"/>
<path d="M524.2 416.91L544.35 438.12L524.2 728.19C524.195 732.753 524.668 737.305 525.61 741.77C526.047 743.846 526.587 745.898 527.23 747.92C530.523 758.342 536.367 767.778 544.23 775.37C539.506 780.33 536.873 786.92 536.88 793.77H642.88C642.882 786.861 640.208 780.22 635.42 775.24C643.232 767.678 649.037 758.288 652.31 747.92C652.95 745.92 653.49 743.86 653.94 741.77C654.878 737.304 655.351 732.753 655.35 728.19L635.23 438.12L655.38 416.91H524.2Z" fill="white"/>
<path d="M642.5 794.36H535.32V793.77C535.314 786.973 537.846 780.418 542.42 775.39C534.691 767.796 528.937 758.427 525.66 748.1C525 746 524.45 743.91 524.03 741.89C523.076 737.386 522.596 732.794 522.6 728.19L542.73 438.34L521.81 416.34H655.81L634.88 438.34L655 728.15C655.004 732.767 654.528 737.372 653.58 741.89C653.137 743.986 652.59 746.059 651.94 748.1C648.691 758.371 642.986 767.694 635.32 775.26C639.968 780.302 642.543 786.912 642.53 793.77L642.5 794.36ZM536.5 793.17H641.3C641.158 786.622 638.551 780.369 634 775.66L633.59 775.23L634.02 774.82C641.752 767.318 647.501 758.013 650.75 747.74C651.391 745.736 651.929 743.7 652.36 741.64C653.295 737.218 653.764 732.71 653.76 728.19L633.62 437.9L653 417.5H524.59L544 437.9V438.16L523.8 728.23C523.8 732.736 524.266 737.23 525.19 741.64C525.61 743.64 526.19 745.64 526.8 747.74C530.078 758.067 535.876 767.414 543.67 774.94L544.1 775.35L543.69 775.78C541.445 778.141 539.664 780.902 538.44 783.92C537.231 786.857 536.58 789.994 536.52 793.17H536.5Z" fill="#231F20"/>
<path d="M212.95 793.99H197.94L261.38 540.7H276.39L212.95 793.99Z" fill="white"/>
<path d="M213.42 794.58H197.18L197.36 793.84L260.92 540.1H277.15L276.97 540.84L213.42 794.58ZM198.71 793.39H212.49L275.63 541.29H261.85L198.71 793.39Z" fill="#231F20"/>
<path d="M304.56 793.99H291.29L315.2 130.77H328.46L304.56 793.99Z" fill="#231F20"/>
<path d="M305.14 794.58H290.68V793.96L314.6 130.18H329.06V130.8L305.14 794.58ZM291.91 793.39H304L327.86 131.39H315.77L291.91 793.39Z" fill="#231F20"/>
<path d="M518.9 793.99H503.9L453.15 540.7H468.15L518.9 793.99Z" fill="white"/>
<path d="M519.63 794.58H503.41L503.31 794.1L452.42 540.1H468.64L468.74 540.58L519.63 794.58ZM504.39 793.39H518.18L467.66 541.29H453.87L504.39 793.39Z" fill="#231F20"/>
<path d="M486.02 540.43H250.22L206.13 210.17H441.93L486.02 540.43Z" fill="white"/>
<path d="M486.7 541H249.7L249.63 540.49L205.45 209.57H442.45L442.52 210.09L486.7 541ZM250.7 539.81H485.3L441.41 210.77H206.81L250.7 539.81Z" fill="#231F20"/>
<path d="M425.8 309.45H246.69L236.21 230.94H415.31L425.8 309.45Z" fill="white"/>
<path d="M426.48 310.05H246.17L235.53 230.35H415.84L426.48 310.05ZM247.21 308.86H425.12L414.79 231.54H236.89L247.21 308.86Z" fill="#231F20"/>
<path d="M295.06 341.83H268.21L257.72 263.32H284.57L295.06 341.83Z" fill="white"/>
<path d="M295.74 342.43H267.68L257 262.72H285.1L295.74 342.43ZM268.74 341.23H294.39L284.06 263.92H258.4L268.74 341.23Z" fill="#231F20"/>
<path d="M497.21 529.93H224.18V551.46H497.21V529.93Z" fill="white"/>
<path d="M497.8 552.05H223.58V529.34H497.8V552.05ZM224.8 550.86H496.61V530.53H224.77L224.8 550.86Z" fill="#231F20"/>
<path d="M313.13 484.81C331.869 484.81 347.06 469.619 347.06 450.88C347.06 432.141 331.869 416.95 313.13 416.95C294.391 416.95 279.2 432.141 279.2 450.88C279.2 469.619 294.391 484.81 313.13 484.81Z" fill="white"/>
<path d="M313.13 485.41C306.3 485.41 299.624 483.385 293.946 479.591C288.267 475.797 283.842 470.404 281.228 464.094C278.615 457.785 277.931 450.842 279.263 444.144C280.595 437.445 283.884 431.293 288.713 426.464C293.542 421.635 299.695 418.346 306.393 417.014C313.091 415.681 320.034 416.365 326.344 418.979C332.653 421.592 338.046 426.018 341.84 431.696C345.634 437.375 347.66 444.051 347.66 450.88C347.649 460.035 344.008 468.811 337.534 475.285C331.061 481.758 322.284 485.399 313.13 485.41V485.41ZM313.13 417.54C306.536 417.54 300.09 419.495 294.607 423.159C289.124 426.822 284.851 432.029 282.327 438.121C279.804 444.214 279.144 450.917 280.43 457.384C281.717 463.852 284.892 469.792 289.555 474.455C294.217 479.118 300.158 482.293 306.625 483.58C313.093 484.866 319.796 484.206 325.888 481.682C331.98 479.159 337.187 474.886 340.851 469.403C344.514 463.92 346.47 457.474 346.47 450.88C346.459 442.041 342.943 433.567 336.693 427.317C330.443 421.067 321.969 417.551 313.13 417.54Z" fill="#231F20"/>
<path d="M412.74 383.49C419.948 383.49 425.79 377.647 425.79 370.44C425.79 363.233 419.948 357.39 412.74 357.39C405.533 357.39 399.69 363.233 399.69 370.44C399.69 377.647 405.533 383.49 412.74 383.49Z" fill="white"/>
<path d="M412.74 384.09C410.04 384.09 407.401 383.289 405.156 381.79C402.912 380.29 401.162 378.158 400.129 375.664C399.096 373.169 398.825 370.425 399.352 367.777C399.879 365.129 401.179 362.697 403.088 360.788C404.997 358.879 407.429 357.579 410.077 357.052C412.725 356.526 415.469 356.796 417.963 357.829C420.458 358.862 422.59 360.612 424.089 362.856C425.589 365.101 426.39 367.74 426.39 370.44C426.385 374.059 424.945 377.527 422.386 380.086C419.827 382.645 416.358 384.085 412.74 384.09V384.09ZM412.74 357.99C410.275 357.99 407.866 358.721 405.816 360.091C403.767 361.46 402.17 363.407 401.227 365.684C400.285 367.961 400.038 370.467 400.52 372.885C401.002 375.302 402.189 377.522 403.933 379.264C405.676 381.006 407.897 382.192 410.315 382.672C412.733 383.151 415.238 382.903 417.515 381.959C419.792 381.014 421.737 379.415 423.105 377.365C424.473 375.315 425.202 372.905 425.2 370.44C425.195 367.139 423.879 363.975 421.543 361.642C419.207 359.31 416.041 358 412.74 358V357.99Z" fill="#231F20"/>
<path d="M309.33 396.89C307.836 393.15 306.692 389.28 305.91 385.33L307.08 385.1C307.848 388.968 308.97 392.757 310.43 396.42L309.33 396.89ZM306 373.37H304.81C304.893 369.302 305.794 365.292 307.46 361.58L308.54 362.08C306.953 365.638 306.09 369.475 306 373.37V373.37ZM388 358C387 357.67 386 357.34 385 357L385.36 355.86L388.36 356.86L388 358ZM373.62 353.61C369.62 352.51 365.74 351.61 362.07 350.78L362.32 349.61C366.01 350.4 369.92 351.36 373.94 352.46L373.62 353.61ZM316 353.33L315.33 352.33C318.733 350.111 322.532 348.569 326.52 347.79L326.77 348.95C322.932 349.705 319.275 351.192 316 353.33V353.33ZM350.31 348.7C346.39 348.18 342.443 347.903 338.49 347.87V346.68C342.503 346.71 346.511 346.99 350.49 347.52L350.31 348.7Z" fill="#231F20"/>
<path d="M440.45 421.46H375.45V422.65H440.45V421.46Z" fill="#231F20"/>
<path d="M442.29 437.63H377.29V438.82H442.29V437.63Z" fill="#231F20"/>
<path d="M445.61 453.8H380.61V454.99H445.61V453.8Z" fill="#231F20"/>
<path d="M447.96 469.97H382.96V471.16H447.96V469.97Z" fill="#231F20"/>
<path d="M451.19 486.13H386.19V487.32H451.19V486.13Z" fill="#231F20"/>
<path d="M1.33008 724.59C37.8101 674.73 91.3301 709.99 147.27 724.93C203.21 739.87 208.07 715.56 208.07 715.56L87.3401 594.71L1.33008 724.59Z" fill="#231F20"/>
<path d="M178.8 730.36C170.68 730.36 160.32 729.03 147.11 725.51C135.29 722.35 123.52 718.27 112.11 714.32C70.0696 699.73 30.3396 686 1.80957 724.94C1.71748 725.065 1.58065 725.149 1.42778 725.175C1.2749 725.201 1.11785 725.167 0.989574 725.08C0.925147 725.037 0.869891 724.981 0.826968 724.917C0.784045 724.852 0.754299 724.779 0.739436 724.703C0.724574 724.627 0.724884 724.549 0.740352 724.473C0.755819 724.397 0.786142 724.324 0.829578 724.26L86.8296 594.38C86.8777 594.307 86.941 594.245 87.0152 594.198C87.0894 594.152 87.1727 594.121 87.2596 594.11C87.3486 594.102 87.4384 594.113 87.5229 594.142C87.6074 594.172 87.6846 594.219 87.7496 594.28L208.5 715.14C208.569 715.21 208.62 715.295 208.648 715.39C208.676 715.484 208.68 715.584 208.66 715.68C208.61 715.9 207.5 721.15 200.75 725.34C196.49 728 189.65 730.36 178.8 730.36ZM50.1596 698.29C69.5496 698.29 90.7296 705.63 112.53 713.19C123.89 717.13 135.64 721.19 147.42 724.35C177.87 732.48 192.88 728.83 200.12 724.35C205.54 720.98 207.12 716.88 207.41 715.76L87.4096 595.67L7.69957 716.05C20.2996 703 34.6596 698.29 50.1596 698.29Z" fill="#231F20"/>
<path d="M102.18 405.22L62.3799 792.37H108.11L70.3099 782.68L128.63 405.22H102.18Z" fill="white"/>
<path d="M108.11 793H62.3801C62.297 792.998 62.2151 792.98 62.1394 792.945C62.0638 792.911 61.996 792.861 61.9401 792.8C61.8845 792.738 61.8425 792.665 61.8167 792.586C61.7908 792.506 61.7818 792.423 61.7901 792.34L101.59 405.19C101.605 405.043 101.673 404.907 101.782 404.807C101.891 404.708 102.033 404.652 102.18 404.65H128.63C128.716 404.652 128.8 404.672 128.877 404.708C128.954 404.744 129.024 404.796 129.08 404.86C129.134 404.926 129.175 405.003 129.199 405.086C129.223 405.168 129.23 405.255 129.22 405.34L71.0001 782.23L108.28 791.79C108.421 791.827 108.543 791.914 108.624 792.035C108.705 792.155 108.74 792.301 108.722 792.446C108.703 792.59 108.633 792.722 108.524 792.819C108.416 792.915 108.276 792.969 108.13 792.97L108.11 793ZM63.0401 791.8H103.38L70.1601 783.28C70.019 783.242 69.8965 783.154 69.8155 783.033C69.7345 782.911 69.7006 782.765 69.7201 782.62L127.93 405.84H102.72L63.0401 791.8Z" fill="#231F20"/>
<path d="M115.93 405.22L120.57 792.37H166.31L128.5 782.68L142.38 405.22H115.93Z" fill="white"/>
<path d="M166.3 793H120.57C120.414 792.997 120.266 792.934 120.156 792.824C120.046 792.714 119.983 792.566 119.98 792.41L115.33 405.25C115.332 405.092 115.397 404.941 115.51 404.83C115.563 404.772 115.629 404.726 115.701 404.695C115.773 404.664 115.851 404.649 115.93 404.65H142.38C142.541 404.654 142.694 404.718 142.81 404.83C142.865 404.889 142.907 404.958 142.935 405.034C142.962 405.109 142.974 405.19 142.97 405.27L129.12 782.27L166.45 791.84C166.589 791.879 166.71 791.965 166.792 792.084C166.874 792.203 166.912 792.346 166.9 792.49C166.878 792.633 166.806 792.763 166.695 792.857C166.585 792.951 166.445 793.002 166.3 793V793ZM121.16 791.8H161.58L128.36 783.28C128.227 783.248 128.11 783.17 128.027 783.061C127.945 782.951 127.904 782.817 127.91 782.68L141.76 405.84H116.53L121.16 791.8Z" fill="#231F20"/>
<path d="M130.59 231C130.59 231 97.3601 228.12 96.3401 266.3C95.3201 304.48 60.7301 287.3 60.9601 336.09C61.3101 407.09 172.06 383.4 172.28 328.62C172.43 287.31 145.99 308.62 151.92 272.36C157.85 236.1 130.59 231 130.59 231Z" fill="#231F20"/>
<path d="M106.71 380.82C84.4004 380.82 60.5304 369.07 60.3704 336.09C60.2404 309.76 70.0704 302.47 79.5804 295.42C87.6504 289.42 95.2704 283.79 95.7404 266.27C96.0704 253.95 99.7404 244.55 106.74 238.35C116.86 229.35 130.53 230.35 130.67 230.35H130.73C131.01 230.35 158.49 236.01 152.54 272.35C149.65 290.02 154.54 293.69 160.24 297.94C166.24 302.41 172.98 307.47 172.9 328.52C172.78 359.27 137.9 380.72 106.77 380.73L106.71 380.82ZM129.11 231.54C125.43 231.54 115.34 232.24 107.49 239.25C100.81 245.25 97.2604 254.32 96.9404 266.3C96.4504 284.4 88.6004 290.22 80.2904 296.37C71.0204 303.25 61.4304 310.37 61.5604 336.08C61.6304 350.56 66.2404 361.78 75.2604 369.42C83.1404 376.1 94.0104 379.63 106.7 379.63C137.32 379.63 171.52 358.63 171.64 328.63C171.72 308.18 165.2 303.31 159.46 299.01C153.46 294.53 148.28 290.65 151.29 272.27C157 237.35 131.94 231.89 130.47 231.61C130.39 231.58 129.89 231.54 129.11 231.54V231.54Z" fill="#231F20"/>
<path d="M149 311.34L190.44 392.28L246.85 373L253 354.8L257 368.91L286.89 373.67C286.89 373.67 276.7 396.75 248.89 386.23L203.7 419.23C197.869 423.485 190.739 425.578 183.533 425.149C176.327 424.72 169.495 421.797 164.21 416.88L134.45 389.21L149 311.34Z" fill="white"/>
<path d="M185.39 425.75C177.381 425.757 169.667 422.731 163.8 417.28L134 389.61C133.925 389.542 133.869 389.455 133.838 389.359C133.806 389.262 133.8 389.159 133.82 389.06L148.34 311.24C148.363 311.118 148.423 311.006 148.513 310.919C148.602 310.833 148.717 310.776 148.84 310.758C148.963 310.739 149.088 310.759 149.2 310.815C149.311 310.871 149.402 310.96 149.46 311.07L190.66 391.55L246.34 372.55L252.34 354.64C252.376 354.517 252.454 354.41 252.559 354.337C252.665 354.265 252.792 354.23 252.92 354.24C253.047 354.242 253.17 354.285 253.271 354.362C253.372 354.44 253.445 354.548 253.48 354.67L257.48 368.41L287 373.11C287.089 373.125 287.174 373.16 287.249 373.211C287.323 373.263 287.385 373.331 287.43 373.41C287.472 373.492 287.494 373.583 287.494 373.675C287.494 373.767 287.472 373.858 287.43 373.94C287.33 374.17 276.77 397.25 248.93 386.94L204 419.71C198.591 423.641 192.076 425.756 185.39 425.75V425.75ZM135.09 389L164.62 416.45C169.809 421.261 176.509 424.121 183.573 424.54C190.637 424.96 197.627 422.913 203.35 418.75L248.54 385.75C248.619 385.691 248.712 385.652 248.81 385.639C248.908 385.625 249.007 385.635 249.1 385.67C273.35 394.83 284.03 377.86 286.03 374.13L257 369.5C256.887 369.483 256.781 369.433 256.696 369.356C256.611 369.28 256.55 369.181 256.52 369.07L252.97 356.8L247.46 373.18C247.432 373.267 247.384 373.346 247.32 373.41C247.256 373.474 247.177 373.522 247.09 373.55L190.65 392.85C190.514 392.896 190.366 392.891 190.233 392.836C190.101 392.781 189.993 392.679 189.93 392.55L149.28 313.17L135.09 389Z" fill="#231F20"/>
<path d="M160.15 412.83V348.83C160.15 346.72 160.07 344.64 159.89 342.59C157.48 314.59 139.1 292.84 116.78 292.84C104.78 292.84 93.9601 299.11 86.1001 309.24C83.5797 312.514 81.4267 316.055 79.6801 319.8C73.9962 332.225 72.6543 346.2 75.8701 359.48L88.2101 412.8L1.33008 724.59C1.33008 724.59 43.9001 730.67 94.9701 691.59C146.04 652.51 208.07 715.59 208.07 715.59L160.15 412.83Z" fill="#F5CFCE"/>
<path d="M7.73037 725.49C5.56615 725.514 3.40238 725.411 1.25037 725.18C1.16573 725.17 1.08436 725.141 1.01185 725.096C0.939345 725.051 0.87743 724.991 0.830371 724.92C0.78511 724.848 0.755491 724.767 0.743435 724.682C0.731378 724.598 0.73715 724.512 0.760372 724.43L87.6004 412.82L75.2904 359.65C72.0549 346.235 73.4105 332.123 79.1404 319.57C80.9064 315.786 83.0828 312.208 85.6304 308.9C93.9504 298.18 105.01 292.28 116.78 292.28C139.23 292.28 158.02 313.9 160.48 342.57C160.66 344.57 160.75 346.74 160.75 348.86V412.78L208.66 715.47C208.674 715.591 208.65 715.714 208.592 715.821C208.534 715.928 208.445 716.015 208.337 716.071C208.228 716.126 208.105 716.147 207.984 716.131C207.864 716.115 207.751 716.062 207.66 715.98C196.61 705.345 184.056 696.392 170.4 689.41C150.58 679.57 121.48 672.03 95.4004 692.03C56.1704 722 21.6104 725.49 7.73037 725.49ZM2.09037 724.07C7.74037 724.61 47.8204 726.92 94.6104 691.07C115.69 674.93 142.08 673.99 170.94 688.34C184.162 695.107 196.368 703.698 207.2 713.86L159.57 412.86C159.566 412.83 159.566 412.8 159.57 412.77V348.77C159.57 346.68 159.48 344.6 159.3 342.58C156.89 314.58 138.62 293.38 116.79 293.38C105.39 293.38 94.6704 299.12 86.5904 309.54C84.0916 312.778 81.9587 316.283 80.2304 319.99C74.6213 332.302 73.2941 346.137 76.4604 359.29L88.8004 412.61C88.8254 412.705 88.8254 412.805 88.8004 412.9L2.09037 724.07Z" fill="#231F20"/>
<path d="M118.93 309.1L111.57 300.47L119.38 267.08L136.22 263.26L128.52 296.18L129.92 303.89C130.166 305.252 129.956 306.657 129.323 307.888C128.69 309.119 127.67 310.108 126.419 310.701C125.168 311.293 123.757 311.458 122.404 311.169C121.05 310.879 119.829 310.152 118.93 309.1Z" fill="white"/>
<path d="M123.65 312C122.659 311.994 121.682 311.771 120.787 311.345C119.892 310.92 119.101 310.304 118.47 309.54L111.12 300.91C111.06 300.839 111.017 300.755 110.995 300.665C110.972 300.575 110.971 300.481 110.99 300.39L118.8 267C118.826 266.891 118.882 266.791 118.962 266.712C119.041 266.632 119.141 266.576 119.25 266.55L136.09 262.73C136.188 262.709 136.291 262.713 136.387 262.742C136.484 262.771 136.571 262.824 136.642 262.896C136.713 262.967 136.764 263.056 136.792 263.153C136.82 263.249 136.822 263.352 136.8 263.45L129.13 296.25L130.51 303.83C130.811 305.325 130.596 306.877 129.9 308.234C129.204 309.591 128.069 310.672 126.68 311.3C125.735 311.756 124.699 311.995 123.65 312V312ZM112.22 300.36L119.38 308.77C120.19 309.745 121.301 310.424 122.538 310.698C123.776 310.972 125.069 310.827 126.215 310.285C127.361 309.743 128.294 308.835 128.867 307.704C129.44 306.574 129.62 305.284 129.38 304.04L127.97 296.34C127.955 296.257 127.955 296.173 127.97 296.09L135.45 264.09L119.91 267.61L112.22 300.36Z" fill="#231F20"/>
<path d="M127.23 285.75C140.866 285.75 151.92 274.696 151.92 261.06C151.92 247.424 140.866 236.37 127.23 236.37C113.594 236.37 102.54 247.424 102.54 261.06C102.54 274.696 113.594 285.75 127.23 285.75Z" fill="white"/>
<path d="M127.23 286.34C122.228 286.34 117.338 284.857 113.179 282.077C109.02 279.298 105.778 275.347 103.865 270.726C101.951 266.104 101.45 261.019 102.427 256.113C103.404 251.206 105.813 246.7 109.351 243.164C112.889 239.627 117.396 237.219 122.303 236.245C127.209 235.27 132.294 235.772 136.915 237.688C141.536 239.604 145.485 242.847 148.263 247.007C151.041 251.167 152.522 256.058 152.52 261.06C152.512 267.764 149.845 274.191 145.104 278.93C140.362 283.67 133.934 286.335 127.23 286.34V286.34ZM127.23 236.96C122.463 236.958 117.803 238.37 113.838 241.017C109.874 243.664 106.783 247.427 104.958 251.83C103.132 256.234 102.654 261.08 103.582 265.756C104.511 270.431 106.806 274.726 110.176 278.098C113.546 281.469 117.84 283.766 122.515 284.696C127.19 285.627 132.037 285.15 136.441 283.326C140.845 281.503 144.61 278.414 147.258 274.45C149.907 270.487 151.32 265.827 151.32 261.06C151.305 254.679 148.76 248.564 144.245 244.054C139.73 239.544 133.612 237.008 127.23 237V236.96Z" fill="#231F20"/>
<path d="M127.23 255.36H132.23L134.29 245.16L135.93 255.36H142.63L146.07 245.16L146.51 255.36H155.24C155.24 255.36 153.52 233.66 127.19 236.36C100.86 239.06 102.5 261.05 102.5 261.05C102.5 261.05 100.39 266.78 111.86 280.39C109.855 276.269 108.238 271.971 107.03 267.55C106.843 266.752 106.957 265.913 107.35 265.193C107.743 264.473 108.388 263.924 109.161 263.65C109.933 263.377 110.78 263.398 111.538 263.71C112.297 264.021 112.913 264.602 113.27 265.34L117.8 274.89C117.8 274.89 117 255.36 127.23 255.36Z" fill="#231F20"/>
<path d="M111.9 281C111.812 280.999 111.725 280.978 111.646 280.94C111.567 280.902 111.496 280.848 111.44 280.78C100.68 268 101.68 262 101.94 261C101.87 259.24 101.57 238.43 127.17 235.79C135.99 234.89 143.05 236.58 148.17 240.79C152.457 244.494 155.207 249.665 155.88 255.29C155.888 255.373 155.879 255.457 155.853 255.536C155.828 255.615 155.786 255.688 155.73 255.75C155.614 255.869 155.456 255.937 155.29 255.94H146.56C146.407 255.94 146.26 255.881 146.15 255.774C146.04 255.668 145.975 255.523 145.97 255.37L145.66 248.37L143.24 255.54C143.201 255.658 143.126 255.761 143.025 255.834C142.925 255.908 142.804 255.948 142.68 255.95H136C135.858 255.947 135.721 255.895 135.613 255.802C135.505 255.708 135.433 255.58 135.41 255.44L134.29 248.49L132.88 255.49C132.853 255.624 132.78 255.745 132.675 255.832C132.569 255.92 132.437 255.968 132.3 255.97H127.3C126.433 255.962 125.574 256.135 124.778 256.48C123.982 256.824 123.267 257.332 122.68 257.97C118.04 262.81 118.5 274.78 118.51 274.9C118.514 275.036 118.472 275.17 118.39 275.279C118.309 275.388 118.192 275.466 118.06 275.5C117.926 275.533 117.784 275.519 117.659 275.461C117.534 275.403 117.432 275.304 117.37 275.18L112.84 265.62C112.552 265.007 112.045 264.522 111.42 264.262C110.794 264.001 110.094 263.982 109.455 264.209C108.816 264.436 108.285 264.893 107.964 265.49C107.644 266.087 107.557 266.782 107.72 267.44C108.923 271.817 110.523 276.074 112.5 280.16C112.566 280.289 112.582 280.438 112.545 280.578C112.508 280.718 112.421 280.84 112.3 280.92C112.178 280.988 112.038 281.016 111.9 281V281ZM131.63 236.73C130.24 236.73 128.79 236.81 127.29 236.96C116.59 238.06 109.29 242.44 105.55 249.96C103.87 253.378 103.043 257.152 103.14 260.96C103.155 261.043 103.155 261.127 103.14 261.21C103.14 261.26 101.73 265.83 109.46 276.27C108.272 273.473 107.293 270.592 106.53 267.65C106.3 266.707 106.427 265.712 106.888 264.857C107.349 264.003 108.111 263.35 109.026 263.025C109.941 262.7 110.944 262.727 111.841 263.099C112.737 263.471 113.464 264.163 113.88 265.04L117.29 272.21C117.42 268.21 118.17 260.85 121.79 257.07C122.488 256.315 123.336 255.715 124.28 255.309C125.224 254.902 126.242 254.698 127.27 254.71H131.82L133.82 244.99C133.846 244.853 133.919 244.73 134.027 244.642C134.135 244.554 134.271 244.508 134.41 244.51C134.549 244.515 134.683 244.567 134.788 244.658C134.894 244.749 134.965 244.873 134.99 245.01L136.55 254.71H142.31L145.62 244.92C145.668 244.792 145.758 244.685 145.875 244.615C145.992 244.545 146.129 244.517 146.264 244.536C146.399 244.554 146.524 244.618 146.618 244.717C146.711 244.816 146.769 244.944 146.78 245.08L147.19 254.71H154.67C153.855 249.667 151.301 245.067 147.45 241.71C143.39 238.4 138.1 236.73 131.63 236.73Z" fill="#231F20"/>
<path d="M121.15 414.93C105.63 414.93 94.4195 407.59 84.5795 399.31C84.4598 399.207 84.3853 399.062 84.3722 398.904C84.3591 398.747 84.4084 398.591 84.5095 398.47C84.5596 398.41 84.6213 398.36 84.6909 398.323C84.7605 398.287 84.8366 398.265 84.9148 398.258C84.9931 398.252 85.0718 398.261 85.1465 398.285C85.2211 398.31 85.2901 398.349 85.3495 398.4C97.4495 408.58 111.65 417.32 133.57 412.25C144.57 409.69 153.57 400.62 159.57 386C159.631 385.855 159.748 385.74 159.894 385.68C160.04 385.62 160.204 385.62 160.35 385.68C160.422 385.709 160.488 385.751 160.544 385.806C160.6 385.86 160.644 385.925 160.675 385.996C160.706 386.068 160.722 386.145 160.723 386.223C160.723 386.301 160.709 386.378 160.68 386.45C154.53 401.45 145.24 410.77 133.81 413.45C129.659 414.422 125.412 414.919 121.15 414.93V414.93Z" fill="#231F20"/>
<path d="M119.9 398.86H119.27C103.86 398.32 85.8397 377.58 74.8097 357.27C74.7348 357.131 74.7181 356.967 74.763 356.816C74.808 356.664 74.911 356.536 75.0497 356.46C75.1891 356.385 75.3524 356.368 75.5041 356.413C75.6558 356.458 75.7836 356.561 75.8597 356.7C90.9397 384.47 108.55 397.29 119.31 397.7C125.13 397.91 130.08 394.95 133.94 388.9C147.01 368.42 143.38 353.4 140.17 340.15C137.37 328.58 134.72 317.65 143.91 305.38C144.005 305.247 144.149 305.158 144.311 305.132C144.472 305.106 144.637 305.145 144.77 305.24C144.902 305.335 144.992 305.48 145.018 305.641C145.044 305.802 145.005 305.967 144.91 306.1C136.05 317.91 138.52 328.1 141.37 339.87C144.63 353.35 148.37 368.63 134.99 389.54C131 395.71 125.92 398.86 119.9 398.86Z" fill="#231F20"/>
<path d="M117.15 519.74C97.9364 519.731 79.0299 514.918 62.15 505.74C62.0602 505.647 62.0031 505.527 61.987 505.398C61.971 505.27 61.997 505.14 62.0612 505.027C62.1253 504.914 62.2241 504.826 62.3429 504.774C62.4617 504.722 62.594 504.71 62.72 504.74C105.67 527.84 149.61 518.31 174.18 503.13C174.311 503.077 174.456 503.071 174.59 503.114C174.725 503.157 174.84 503.246 174.915 503.366C174.99 503.485 175.021 503.627 175.002 503.767C174.982 503.907 174.915 504.035 174.81 504.13C160.69 512.85 140.19 519.74 117.15 519.74Z" fill="#231F20"/>
<path d="M113.05 490.55C110.835 490.64 108.64 490.088 106.73 488.96C103.51 486.9 101.89 482.96 101.79 476.85C101.44 455.42 129.4 450.71 154.07 446.55C157.95 445.9 161.62 445.28 165.16 444.6C165.238 444.586 165.317 444.587 165.395 444.603C165.472 444.619 165.545 444.65 165.61 444.695C165.675 444.74 165.73 444.797 165.773 444.863C165.816 444.929 165.846 445.003 165.86 445.08C165.875 445.156 165.874 445.234 165.858 445.31C165.843 445.386 165.812 445.458 165.768 445.522C165.725 445.587 165.669 445.641 165.604 445.684C165.539 445.726 165.467 445.756 165.39 445.77C161.83 446.45 158.16 447.07 154.26 447.77C130.07 451.85 102.65 456.47 102.98 476.87C103.08 482.53 104.51 486.17 107.37 487.99C114.05 492.27 127.91 486.14 142.58 479.66C151.46 475.74 160.58 471.66 169.06 469.5C169.138 469.475 169.22 469.467 169.301 469.475C169.382 469.483 169.461 469.507 169.533 469.547C169.604 469.586 169.667 469.64 169.717 469.704C169.767 469.769 169.803 469.843 169.823 469.921C169.844 470 169.848 470.083 169.835 470.163C169.823 470.244 169.794 470.321 169.751 470.39C169.708 470.46 169.651 470.519 169.583 470.565C169.516 470.612 169.44 470.644 169.36 470.66C161.03 472.81 151.89 476.85 143.06 480.75C131.69 485.74 120.8 490.55 113.05 490.55Z" fill="#231F20"/>
<path d="M77.5701 453.28H77.0901C77.0118 453.28 76.9342 453.265 76.862 453.234C76.7897 453.204 76.7242 453.16 76.6693 453.104C76.6144 453.048 76.5711 452.982 76.5421 452.909C76.513 452.836 76.4988 452.758 76.5001 452.68C76.5027 452.523 76.5671 452.373 76.6793 452.262C76.7916 452.152 76.9427 452.09 77.1001 452.09V452.09C85.5501 452.17 94.7101 449.45 104.4 443.92C126.77 431.18 146.4 420.23 160.4 415.37C160.549 415.317 160.712 415.325 160.855 415.393C160.997 415.46 161.107 415.582 161.16 415.73C161.213 415.879 161.205 416.042 161.137 416.185C161.07 416.327 160.949 416.437 160.8 416.49C146.93 421.32 127.32 432.24 105 445C95.3101 450.48 86.0801 453.28 77.5701 453.28Z" fill="#231F20"/>
<path d="M123.87 659.52C118.742 659.528 113.626 659.019 108.6 658C90.7999 654.37 81.0699 650 77.9799 644.24C75.5099 639.62 77.4499 634.84 79.4999 629.78C81.5499 624.72 83.7399 619.36 81.1099 614.05C77.6299 607.05 66.0299 600.86 45.6499 595.3C43.1499 594.61 40.6499 594.03 37.9199 593.53C37.8424 593.515 37.7685 593.486 37.7024 593.443C37.6364 593.4 37.5794 593.344 37.5348 593.279C37.4903 593.214 37.4589 593.141 37.4426 593.064C37.4264 592.987 37.4254 592.907 37.4399 592.83C37.453 592.753 37.4815 592.68 37.5236 592.614C37.5658 592.549 37.6207 592.492 37.6851 592.448C37.7495 592.404 37.822 592.374 37.8985 592.359C37.9749 592.344 38.0536 592.344 38.1299 592.36C40.8699 592.86 43.4399 593.45 45.9699 594.15C66.9699 599.89 78.4799 606.04 82.1799 613.52C85.0399 619.31 82.7899 624.86 80.6099 630.23C78.6099 635.02 76.8199 639.55 79.0299 643.68C81.9399 649.1 91.4099 653.28 108.84 656.83C138.15 662.83 169.74 650.83 193.33 624.76C193.385 624.704 193.45 624.66 193.522 624.63C193.594 624.6 193.672 624.584 193.75 624.584C193.828 624.584 193.905 624.6 193.978 624.63C194.05 624.66 194.115 624.704 194.17 624.76C194.28 624.874 194.342 625.026 194.342 625.185C194.342 625.344 194.28 625.496 194.17 625.61C174.39 647.44 149 659.52 123.87 659.52Z" fill="#231F20"/>
<path d="M132.55 614.64C131.75 614.585 130.97 614.368 130.256 614.002C129.543 613.636 128.911 613.128 128.4 612.51C121.27 605.08 125.29 590.38 128.83 577.4C131.65 567.07 134.32 557.3 130.31 554.21C125.98 550.87 113.64 555.15 92.6103 567.31C76.1703 576.81 59.5503 577.37 44.5603 568.94C44.4915 568.903 44.4309 568.852 44.3819 568.79C44.333 568.729 44.2968 568.659 44.2754 568.583C44.254 568.508 44.2478 568.429 44.2572 568.351C44.2667 568.273 44.2915 568.198 44.3303 568.13C44.41 567.992 44.5403 567.891 44.6935 567.848C44.8467 567.805 45.0106 567.824 45.1503 567.9C59.7503 576.11 75.9603 575.55 92.0103 566.28C114.11 553.51 126.15 549.49 131.01 553.28C135.65 556.85 133.01 566.53 129.95 577.73C126.49 590.39 122.57 604.73 129.23 611.73C130.59 613.14 131.87 613.73 133.13 613.43C138.13 612.43 142.81 599.57 148.29 584.72C155.62 564.87 164.73 540.16 178.83 532.33C178.969 532.258 179.13 532.244 179.28 532.289C179.429 532.334 179.555 532.436 179.631 532.573C179.707 532.71 179.726 532.871 179.685 533.021C179.643 533.172 179.545 533.301 179.41 533.38C165.7 540.99 156.67 565.47 149.41 585.13C143.58 600.94 138.97 613.43 133.41 614.6C133.126 614.643 132.838 614.656 132.55 614.64V614.64Z" fill="#231F20"/>
<path d="M103.93 686.38C103.8 686.38 103.673 686.338 103.57 686.26C85.9996 673.14 63.7996 670 37.6196 677C29.2596 679.24 21.4096 679.62 14.3096 678.13C14.2333 678.115 14.1608 678.084 14.0963 678.041C14.0318 677.997 13.9766 677.941 13.9338 677.876C13.8911 677.811 13.8616 677.738 13.8472 677.661C13.8327 677.585 13.8335 677.506 13.8496 677.43C13.8651 677.353 13.8958 677.279 13.94 677.213C13.9841 677.147 14.0408 677.091 14.1068 677.047C14.1728 677.004 14.2468 676.973 14.3245 676.959C14.4022 676.944 14.4821 676.944 14.5596 676.96C21.4696 678.41 29.1296 678.04 37.3096 675.85C63.8596 668.75 86.3896 671.92 104.31 685.27C104.413 685.344 104.489 685.448 104.528 685.569C104.567 685.689 104.566 685.819 104.526 685.939C104.486 686.058 104.408 686.162 104.304 686.235C104.2 686.307 104.076 686.344 103.95 686.34L103.93 686.38Z" fill="#231F20"/>
<path d="M183.61 696.85C183.512 696.851 183.415 696.827 183.329 696.779C183.243 696.732 183.171 696.663 183.12 696.58C183.075 696.516 183.044 696.444 183.027 696.368C183.011 696.291 183.01 696.213 183.025 696.136C183.04 696.06 183.071 695.987 183.114 695.922C183.158 695.858 183.214 695.802 183.28 695.76C190.163 691.302 196.467 686.008 202.05 680C202.162 679.89 202.313 679.829 202.47 679.829C202.627 679.829 202.778 679.89 202.89 680C202.947 680.054 202.992 680.119 203.023 680.192C203.054 680.264 203.07 680.342 203.07 680.42C203.07 680.499 203.054 680.576 203.023 680.649C202.992 680.721 202.947 680.786 202.89 680.84C197.244 686.94 190.862 692.315 183.89 696.84C183.799 696.867 183.702 696.871 183.61 696.85V696.85Z" fill="#231F20"/>
<path d="M111.47 360.14C106.92 360.14 102.84 350.29 97.6803 337.84C93.8003 328.47 89.4103 317.84 84.4303 311.25C84.3337 311.124 84.2911 310.965 84.3117 310.807C84.3323 310.65 84.4145 310.507 84.5403 310.41C84.6685 310.317 84.8278 310.278 84.9846 310.3C85.1413 310.322 85.2833 310.405 85.3803 310.53C90.4503 317.27 94.8803 327.95 98.7803 337.38C103.37 348.47 107.71 358.94 111.47 358.94C113.04 358.94 114.64 356.94 116.22 353.03C123.22 335.68 108.67 314.8 95.2203 300.35C95.1634 300.296 95.1181 300.231 95.0872 300.158C95.0563 300.086 95.0403 300.009 95.0403 299.93C95.0403 299.851 95.0563 299.774 95.0872 299.702C95.1181 299.629 95.1634 299.564 95.2203 299.51C95.2752 299.454 95.3406 299.41 95.4127 299.38C95.4848 299.35 95.5622 299.334 95.6403 299.334C95.7185 299.334 95.7958 299.35 95.8679 299.38C95.94 299.41 96.0054 299.454 96.0603 299.51C109.73 314.21 124.5 335.51 117.28 353.45C115.47 357.92 113.56 360.1 111.43 360.11L111.47 360.14Z" fill="#231F20"/>
<path d="M128.5 782.68L120.57 792.37H166.31L128.5 782.68Z" fill="#231F20"/>
<path d="M166.3 793H120.57C120.456 792.998 120.345 792.964 120.25 792.902C120.154 792.84 120.078 792.753 120.03 792.65C119.986 792.547 119.97 792.435 119.985 792.324C119.999 792.214 120.042 792.109 120.11 792.02L128.04 782.33C128.112 782.242 128.208 782.177 128.316 782.142C128.424 782.106 128.54 782.102 128.65 782.13L166.45 791.82C166.589 791.859 166.71 791.945 166.792 792.064C166.874 792.183 166.912 792.326 166.9 792.47C166.882 792.617 166.812 792.752 166.701 792.85C166.59 792.948 166.447 793.001 166.3 793V793ZM121.83 791.8H161.58L128.72 783.38L121.83 791.8Z" fill="#231F20"/>
<path d="M70.3099 782.68L62.3799 792.37H108.11L70.3099 782.68Z" fill="#231F20"/>
<path d="M108.11 793H62.3802C62.2666 792.998 62.1558 792.964 62.0603 792.902C61.9649 792.84 61.8887 792.753 61.8402 792.65C61.7966 792.547 61.781 792.435 61.7951 792.324C61.8091 792.214 61.8523 792.109 61.9202 792.02L69.8503 782.33C69.9225 782.242 70.0183 782.177 70.1263 782.142C70.2342 782.106 70.3501 782.102 70.4603 782.13L108.26 791.82C108.401 791.857 108.523 791.944 108.604 792.065C108.686 792.186 108.72 792.332 108.702 792.476C108.684 792.62 108.613 792.753 108.505 792.849C108.396 792.946 108.256 792.999 108.11 793V793ZM63.6402 791.8H103.38L70.5302 783.38L63.6402 791.8Z" fill="#231F20"/>
<path d="M89.25 305.59C89.25 305.59 116.62 324.47 92.34 359.54L80.66 380.23L151.92 362.81L154.04 345.91L158.36 362.81L191.15 371.87C191.15 371.87 174.2 389.13 155.28 383.09L62.09 414.25C44.47 420.15 29.19 400.67 39.09 384.96L89.25 305.59Z" fill="white"/>
<path d="M55.5696 415.94C51.9451 415.884 48.4007 414.866 45.2997 412.988C42.1987 411.111 39.6527 408.443 37.9226 405.258C36.1926 402.073 35.3407 398.485 35.4544 394.861C35.5681 391.238 36.6432 387.711 38.5696 384.64L88.7096 305.27C88.7528 305.201 88.8097 305.141 88.8767 305.095C88.9438 305.048 89.0196 305.016 89.0996 305C89.1768 304.984 89.2564 304.984 89.3337 304.999C89.411 305.015 89.4844 305.046 89.5496 305.09C96.2575 310.202 100.838 317.614 102.41 325.9C104.33 336.45 101.1 347.9 92.7896 359.9L81.7896 379.34L151.31 362.34L153.38 345.84C153.4 345.703 153.466 345.576 153.568 345.481C153.67 345.387 153.801 345.33 153.94 345.32C154.078 345.309 154.216 345.349 154.328 345.432C154.44 345.514 154.519 345.634 154.55 345.77L158.78 362.34L191.24 371.34C191.339 371.37 191.429 371.424 191.502 371.497C191.575 371.571 191.63 371.661 191.66 371.76C191.684 371.862 191.683 371.968 191.657 372.069C191.63 372.17 191.58 372.263 191.51 372.34C191.34 372.51 174.18 389.67 155.21 383.76L62.2096 414.87C60.0676 415.579 57.8258 415.94 55.5696 415.94V415.94ZM89.4096 306.45L39.6196 385.28C37.5047 388.623 36.4765 392.539 36.6763 396.49C36.876 400.441 38.2938 404.234 40.7351 407.347C43.1764 410.459 46.5214 412.74 50.3109 413.876C54.1004 415.012 58.1485 414.947 61.8996 413.69L155.09 382.52C155.21 382.48 155.339 382.48 155.46 382.52C171.61 387.67 186.46 375.32 189.97 372.16L158.2 363.38C158.098 363.354 158.006 363.302 157.932 363.228C157.858 363.154 157.805 363.061 157.78 362.96L154.24 349.1L152.51 362.88C152.495 363.001 152.444 363.114 152.364 363.205C152.283 363.296 152.177 363.361 152.06 363.39L80.8096 380.81C80.696 380.838 80.5769 380.832 80.4667 380.793C80.3566 380.753 80.2603 380.683 80.1896 380.59C80.1208 380.496 80.0797 380.384 80.0709 380.267C80.0621 380.151 80.0858 380.034 80.1396 379.93L91.8196 359.25C101.64 345.06 104.24 331.4 99.3696 319.69C97.1874 314.526 93.7666 309.978 89.4096 306.45Z" fill="#231F20"/>
<path d="M67.7301 383.38C67.5876 383.371 67.4531 383.311 67.3507 383.211C67.2483 383.112 67.1848 382.979 67.1715 382.837C67.1583 382.695 67.1962 382.552 67.2784 382.436C67.3606 382.319 67.4818 382.235 67.6201 382.2L80.5502 379.64C80.6971 379.628 80.8433 379.67 80.9609 379.759C81.0785 379.848 81.1593 379.977 81.1877 380.122C81.2161 380.267 81.1903 380.417 81.1151 380.544C81.04 380.671 80.9207 380.765 80.7801 380.81L67.8502 383.37L67.7301 383.38Z" fill="#231F20"/>
</svg>
