<svg width="631" height="796" viewBox="0 0 631 796" fill="none" xmlns="http://www.w3.org/2000/svg">
<path d="M167.25 229.52L128.12 482.16C135.25 453.97 238.83 290.16 184.24 119.83L168.44 221.83L186.72 229.52H167.25Z" fill="#2B4E47"/>
<path d="M128.71 482.31L127.54 482.07L166.74 228.93H183.74L167.74 222.2L184 117.2L184.77 119.61C229.95 260.61 166.72 397.61 139.72 456.1C134.06 468.52 129.93 477.52 128.71 482.31ZM167.77 230.13L129.77 475.71C131.77 470.66 134.91 463.92 138.77 455.64C165.56 397.64 228.08 262.14 184.53 122.44L169.19 221.44L189.75 230.11L167.77 230.13Z" fill="#2B4E47"/>
<path d="M76.2504 124.62L121.91 132.52L78.5303 140.59L85.5903 189.94L121.91 185.52L87.4703 203.15L127.75 484.64C127.75 484.64 209.23 86.3201 58.6104 1.32007L76.2504 124.62Z" fill="#607A75"/>
<path d="M127.64 488.12L86.8199 202.81L118.65 186.52L85.1199 190.63L77.8899 140.13L118.54 132.52L75.7198 125.1L75.6599 124.67L57.8398 0.170044L58.8999 0.760056C93.3999 20.2301 118.51 57.8201 133.53 112.5C145.53 156.17 151.15 210.78 150.26 274.82C148.73 383.82 128.53 483.72 128.33 484.72L127.64 488.12ZM88.1199 203.52L127.83 481.1C131.37 462.58 147.69 372.37 149.05 274.87C149.95 210.94 144.33 156.45 132.37 112.87C117.59 59.0801 93.0299 21.9401 59.3699 2.46005L76.7798 124.13L125.28 132.54L79.1999 141.12L86.0999 189.32L125.17 184.52L88.1199 203.52Z" fill="#607A75"/>
<path d="M31.1203 329.66L49.9603 319.73L35.8803 337.31L127.78 484.64C127.78 484.64 110.49 291.02 1.78027 282.71L31.1203 329.66Z" fill="#95A6A3"/>
<path d="M128.56 487.08L35.1199 337.27L47.6799 321.59L30.8699 330.45L0.669922 282.02L1.84991 282.11C26.7899 284.02 48.97 295.88 67.77 317.37C82.77 334.52 95.66 357.81 106.08 386.59C123.81 435.54 128.3 484.1 128.34 484.59L128.56 487.08ZM36.5599 337.35L126.87 482.13C125.68 471.49 120.29 429.37 104.93 386.97C94.5599 358.34 81.7499 335.18 66.8399 318.15C48.5799 297.25 27.1199 285.52 2.93994 283.4L31.2999 328.87L52.1899 317.87L36.5599 337.35Z" fill="#231F20"/>
<path d="M56.3204 415.43L76.4703 436.64L56.3204 726.71C56.3151 731.273 56.7877 735.825 57.7303 740.29C58.1666 742.366 58.7073 744.418 59.3503 746.44C62.6435 756.862 68.4869 766.298 76.3503 773.89C71.6258 778.85 68.9935 785.44 69.0003 792.29H175C175.002 785.381 172.328 778.74 167.54 773.76C175.352 766.198 181.157 756.808 184.43 746.44C185.07 744.44 185.61 742.38 186.06 740.29C186.999 735.824 187.471 731.273 187.47 726.71L167.35 436.64L187.5 415.43H56.3204Z" fill="white"/>
<path d="M175.62 792.88H68.4397V792.29C68.4339 785.493 70.9658 778.938 75.5397 773.91C67.8111 766.316 62.0572 756.947 58.7797 746.62C58.1197 744.52 57.5697 742.43 57.1497 740.41C56.1957 735.906 55.7164 731.314 55.7197 726.71L75.8497 436.86L54.9297 414.86H188.93L168 436.86L188.12 726.67C188.124 731.287 187.649 735.892 186.7 740.41C186.258 742.506 185.71 744.579 185.06 746.62C181.812 756.891 176.107 766.214 168.44 773.78C173.088 778.822 175.663 785.432 175.65 792.29L175.62 792.88ZM69.6197 791.69H174.42C174.279 785.142 171.672 778.889 167.12 774.18L166.71 773.75L167.14 773.34C174.873 765.838 180.621 756.533 183.87 746.26C184.511 744.256 185.049 742.22 185.48 740.16C186.415 735.738 186.884 731.23 186.88 726.71L166.74 436.42L186.12 416.02H57.7097L77.1197 436.42V436.68L56.9197 726.75C56.92 731.256 57.3858 735.75 58.3097 740.16C58.7297 742.16 59.3097 744.16 59.9197 746.26C63.198 756.587 68.9957 765.934 76.7897 773.46L77.2197 773.87L76.8097 774.3C74.5653 776.661 72.7844 779.422 71.5597 782.44C70.3509 785.377 69.6999 788.514 69.6397 791.69H69.6197Z" fill="#231F20"/>
<path d="M352.97 425.1C352.97 425.1 309.63 443.4 309.63 536.52L347.78 535.52L352.97 425.1Z" fill="#F5CFCE"/>
<path d="M309.04 537.08V536.52C309.04 509.9 312.81 472.52 330.81 445.6C341.61 429.43 352.29 424.79 352.74 424.6L353.61 424.23V425.17L348.39 536.12L309.04 537.08ZM352.33 426.08C349.55 427.55 340.59 433.01 331.74 446.31C314.12 472.77 310.29 509.52 310.23 535.86L347.23 534.86L352.33 426.08Z" fill="#231F20"/>
<path d="M442.46 783.64L428.07 782.28L389.09 791.39L444.72 791.72L442.46 783.64Z" fill="#231F20"/>
<path d="M445.51 792.32L384.04 791.96L428.04 781.68L442.93 783.08L445.51 792.32ZM394.12 790.82L443.91 791.12L441.97 784.19L428.09 782.89L394.12 790.82Z" fill="#231F20"/>
<path d="M287.651 784.24L278.85 781.66L235.48 790.75L287.37 791.05L287.651 784.24Z" fill="#231F20"/>
<path d="M287.94 791.65L229.88 791.31L278.88 781.05L288.28 783.8L287.94 791.65ZM241.12 790.18L286.83 790.45L287.07 784.68L278.87 782.28L241.12 790.18Z" fill="#231F20"/>
<path d="M472.88 795.11L414.02 582.82C409.8 569.82 401.02 561.82 391.09 562.02C380.84 562.26 372.09 571.02 368.29 584.92L320.34 790.3L315.69 789.22L363.69 583.75C368.09 567.65 378.56 557.53 391.01 557.25C403.01 556.98 413.69 566.25 418.61 581.45L477.5 793.83L472.88 795.11Z" fill="#231F20"/>
<path d="M446.68 457.57H385.84C367.228 457.57 352.14 472.658 352.14 491.27V522.5C352.14 541.112 367.228 556.2 385.84 556.2H446.68C465.292 556.2 480.38 541.112 480.38 522.5V491.27C480.38 472.658 465.292 457.57 446.68 457.57Z" fill="white"/>
<path d="M440.17 556.8H392.35C381.531 556.787 371.158 552.483 363.508 544.832C355.857 537.182 351.553 526.809 351.54 515.99V497.78C351.553 486.961 355.857 476.588 363.508 468.938C371.158 461.287 381.531 456.983 392.35 456.97H440.17C450.989 456.983 461.362 461.287 469.012 468.938C476.663 476.588 480.967 486.961 480.98 497.78V515.99C480.967 526.809 476.663 537.182 469.012 544.832C461.362 552.483 450.989 556.787 440.17 556.8ZM392.35 458.17C381.847 458.181 371.777 462.357 364.35 469.783C356.922 477.208 352.743 487.277 352.73 497.78V515.99C352.743 526.494 356.922 536.564 364.349 543.991C371.776 551.418 381.846 555.597 392.35 555.61H440.17C450.673 555.597 460.742 551.418 468.167 543.99C475.593 536.563 479.769 526.493 479.78 515.99V497.78C479.767 487.279 475.589 477.212 468.164 469.786C460.738 462.361 450.671 458.183 440.17 458.17H392.35Z" fill="#231F20"/>
<path d="M144.57 792.26L136.62 792.29L211.36 537.18L219.31 537.15L144.57 792.26Z" fill="#231F20"/>
<path d="M135.82 792.89L210.91 536.58H220.11L145.02 792.88L135.82 792.89ZM211.82 537.77L137.42 791.69H144.13L218.51 537.78L211.82 537.77Z" fill="#231F20"/>
<path d="M508.57 791.27H500.61L576.53 536.47H584.49L508.57 791.27Z" fill="#231F20"/>
<path d="M509.011 791.86H499.811L576.091 535.86H585.291L509.011 791.86ZM501.411 790.67H508.121L583.69 537.07H576.981L501.411 790.67Z" fill="#231F20"/>
<path d="M622.09 791.27H630.04L554.12 536.47H546.17L622.09 791.27Z" fill="white"/>
<path d="M630.84 791.86H621.64L545.36 535.86H554.57L630.84 791.86ZM622.53 790.67H629.24L553.67 537.07H546.97L622.53 790.67Z" fill="#231F20"/>
<path d="M258.09 791.78L266.04 791.75L188.94 537.27L180.99 537.3L258.09 791.78Z" fill="white"/>
<path d="M257.65 792.38L257.52 791.96L180.18 536.71H189.38L189.51 537.14L266.85 792.38H257.65ZM181.79 537.9L258.53 791.19H265.24L188.5 537.87L181.79 537.9Z" fill="#231F20"/>
<path d="M475.18 599.57C475.18 612.57 436.77 623.12 389.38 623.12C341.99 623.12 303.58 612.58 303.58 599.57C303.58 586.56 341.99 606.37 389.38 606.37C436.77 606.37 475.18 586.52 475.18 599.57Z" fill="white"/>
<path d="M389.38 623.72C340.93 623.72 302.98 613.11 302.98 599.57C302.94 598.888 303.059 598.205 303.328 597.577C303.597 596.949 304.009 596.392 304.53 595.95C308.13 593.04 317.53 595.06 331.7 598.13C346.7 601.35 367.18 605.78 389.38 605.78C411.58 605.78 432.08 601.35 447.05 598.13C461.25 595.06 470.62 593.04 474.22 595.95C474.744 596.391 475.158 596.947 475.428 597.576C475.699 598.204 475.82 598.887 475.78 599.57C475.78 613.11 437.83 623.72 389.38 623.72ZM310.15 595.72C307.93 595.72 306.28 596.06 305.28 596.87C304.898 597.201 304.599 597.616 304.406 598.083C304.214 598.55 304.133 599.056 304.17 599.56C304.17 612.22 342.4 622.56 389.38 622.56C436.36 622.56 474.58 612.26 474.58 599.56C474.62 599.057 474.541 598.551 474.35 598.084C474.159 597.617 473.861 597.201 473.48 596.87C470.32 594.32 460.67 596.4 447.31 599.28C432.31 602.52 411.71 606.96 389.38 606.96C367.05 606.96 346.47 602.52 331.45 599.28C322.32 597.32 314.93 595.73 310.12 595.73L310.15 595.72Z" fill="#231F20"/>
<path d="M278.851 781.66L284.511 559.63L426.381 553.12L367.541 605.77L322.651 599.43L287.651 784.24L278.851 781.66Z" fill="white"/>
<path d="M288.12 785L278.25 782.11L283.93 559.06L428.03 552.45L367.75 606.45L323.12 600.1L288.12 785ZM279.47 781.22L287.2 783.48L322.2 598.76L367.38 605.14L424.76 553.8L285.12 560.2L279.47 781.22Z" fill="#231F20"/>
<path d="M347.78 602.04L428.12 782.28L442.51 783.64L392.18 616.97L394.06 616.25C404.869 612.135 414.004 604.545 420.028 594.672C426.053 584.799 428.625 573.204 427.34 561.71L426.34 553.12L347.78 602.04Z" fill="white"/>
<path d="M443.28 784.32L427.67 782.85L427.53 782.53L347.03 601.81L426.86 552.12L427.93 561.65C429.232 573.275 426.631 585.003 420.537 594.989C414.444 604.974 405.204 612.65 394.27 616.81L392.92 617.33L443.28 784.32ZM428.48 781.72L441.63 782.96L391.45 616.61L393.85 615.7C404.536 611.632 413.566 604.128 419.52 594.367C425.474 584.606 428.014 573.142 426.74 561.78L425.89 554.13L348.54 602.27L428.48 781.72Z" fill="#231F20"/>
<path d="M399.36 762.59H433.88L392.18 616.97L410.95 609.82C416.926 607.548 421.976 603.354 425.307 597.898C428.638 592.442 430.06 586.033 429.35 579.68L426.35 553.12L284.48 559.63L272.03 762.63H292.53L322.62 599.47L347.75 602.08L399.36 762.59Z" fill="#231F20"/>
<path d="M434.68 763.18H398.93L398.8 762.77L347.33 602.6L323.12 600.08L293.04 763.18H271.42V762.55L283.9 559.06L426.9 552.5L429.9 579.61C430.626 586.094 429.176 592.636 425.779 598.206C422.381 603.776 417.228 608.059 411.13 610.38L392.87 617.33L434.68 763.18ZM399.8 761.99H433.12L391.46 616.61L410.74 609.26C416.59 607.037 421.535 602.931 424.794 597.588C428.053 592.245 429.441 585.969 428.74 579.75L425.83 553.75L285.12 560.2L272.69 761.99H292.06L322.12 598.78L348.23 601.52L348.35 601.89L399.8 761.99Z" fill="#231F20"/>
<path d="M448.73 535.03L426.38 529.91V553.13L338.69 556.2L331.27 469.2C331.15 467.82 331.09 466.46 331.09 465.1C331.1 453.35 335.454 442.019 343.315 433.286C351.175 424.553 361.986 419.034 373.67 417.79C387.38 416.32 404.19 418.9 413.78 427.14C418.03 430.59 423.92 437.14 430.31 445.06C437.13 453.44 444.5 463.27 451.11 472.36C462.49 487.99 471.58 501.42 471.58 501.42C482.18 517.81 467.87 538.86 448.73 535.03Z" fill="#F5CFCE"/>
<path d="M338.121 556.82V556.26L330.701 469.26C330.581 467.85 330.521 466.49 330.521 465.11C330.508 453.205 334.909 441.718 342.874 432.869C350.838 424.02 361.8 418.437 373.641 417.2C385.751 415.91 403.641 417.62 414.191 426.7C418.091 429.85 423.681 435.91 430.811 444.7C436.751 452.01 443.751 461.2 451.621 472.02C462.881 487.48 472.021 500.96 472.111 501.09C474.532 504.829 475.797 509.199 475.747 513.653C475.697 518.107 474.335 522.448 471.832 526.132C469.328 529.817 465.793 532.681 461.67 534.366C457.547 536.052 453.018 536.485 448.651 535.61L427.021 530.61V553.61H426.451L338.121 556.82ZM381.04 418.01C378.596 418.008 376.152 418.135 373.72 418.39C362.182 419.607 351.504 425.055 343.747 433.683C335.991 442.312 331.706 453.508 331.72 465.11C331.72 466.45 331.721 467.78 331.891 469.11L339.271 555.54L425.811 552.54V529.16L448.891 534.44C453.028 535.271 457.318 534.864 461.225 533.269C465.132 531.674 468.481 528.962 470.854 525.472C473.227 521.983 474.518 517.871 474.565 513.651C474.613 509.432 473.414 505.292 471.121 501.75C471.041 501.63 461.91 488.17 450.67 472.75C442.81 461.95 435.821 452.75 429.891 445.48C422.821 436.76 417.281 430.76 413.441 427.65C405.121 420.46 392.031 418.01 381.061 418.01H381.04Z" fill="#231F20"/>
<path d="M451.121 472.37C449.45 474.508 447.311 476.233 444.869 477.415C442.427 478.596 439.747 479.202 437.034 479.185C434.321 479.169 431.648 478.53 429.221 477.318C426.794 476.107 424.676 474.355 423.032 472.197C421.388 470.039 420.261 467.533 419.737 464.871C419.213 462.209 419.307 459.463 420.011 456.843C420.715 454.223 422.01 451.799 423.798 449.758C425.585 447.717 427.816 446.113 430.321 445.07C437.121 453.45 444.501 463.28 451.121 472.37Z" fill="#F5CFCE"/>
<path d="M437.12 479.78C432.889 479.763 428.794 478.283 425.529 475.591C422.264 472.899 420.03 469.162 419.207 465.011C418.383 460.861 419.019 456.554 421.008 452.819C422.997 449.085 426.216 446.153 430.12 444.52L430.53 444.35L430.82 444.7C436.76 452.01 443.76 461.2 451.63 472.02L451.9 472.39L451.62 472.74C449.909 474.951 447.709 476.737 445.194 477.958C442.679 479.179 439.916 479.803 437.12 479.78ZM430.12 445.78C427.765 446.838 425.68 448.414 424.019 450.39C422.359 452.366 421.167 454.692 420.531 457.194C419.895 459.696 419.833 462.309 420.348 464.838C420.863 467.367 421.943 469.747 423.508 471.801C425.072 473.854 427.079 475.528 429.381 476.697C431.682 477.866 434.218 478.5 436.799 478.552C439.379 478.604 441.938 478.072 444.285 476.996C446.631 475.921 448.705 474.329 450.35 472.34C442.74 461.88 435.94 452.95 430.12 445.8V445.78Z" fill="#231F20"/>
<path d="M347.78 602.64C347.665 602.641 347.552 602.607 347.455 602.543C347.359 602.478 347.284 602.387 347.24 602.28L338.65 582.75L380.76 563.52C380.831 563.488 380.908 563.47 380.986 563.467C381.063 563.465 381.141 563.478 381.214 563.505C381.287 563.532 381.354 563.574 381.411 563.627C381.467 563.68 381.513 563.744 381.545 563.815C381.578 563.886 381.595 563.963 381.598 564.04C381.601 564.118 381.588 564.196 381.56 564.269C381.533 564.342 381.492 564.408 381.438 564.465C381.385 564.522 381.321 564.568 381.25 564.6L340.25 583.35L348.36 601.8C348.392 601.872 348.409 601.95 348.41 602.029C348.412 602.108 348.398 602.186 348.369 602.259C348.34 602.333 348.297 602.4 348.243 602.456C348.188 602.513 348.123 602.559 348.05 602.59C347.965 602.626 347.873 602.643 347.78 602.64Z" fill="white"/>
<path d="M373.231 431.93L379.831 425.87L374.191 388.76L360.061 384.36L361.361 425.04C361.022 426.534 361.169 428.097 361.781 429.502C362.394 430.906 363.438 432.079 364.763 432.848C366.088 433.617 367.624 433.943 369.147 433.778C370.671 433.612 372.101 432.965 373.231 431.93Z" fill="white"/>
<path d="M368.4 434.46C367.014 434.454 365.653 434.078 364.46 433.37C363.022 432.56 361.884 431.305 361.217 429.795C360.551 428.285 360.39 426.599 360.76 424.99L359.44 383.52L374.73 388.29L380.46 426.07L373.64 432.35C372.223 433.69 370.351 434.444 368.4 434.46ZM360.69 385.18L361.96 425.1V425.17C361.642 426.541 361.771 427.977 362.328 429.269C362.885 430.561 363.841 431.641 365.056 432.35C366.27 433.06 367.681 433.362 369.079 433.213C370.478 433.063 371.793 432.47 372.83 431.52L379.19 425.67L373.66 389.25L360.69 385.18Z" fill="#231F20"/>
<path d="M359.98 414.47C371.667 414.47 381.14 404.996 381.14 393.31C381.14 381.624 371.667 372.15 359.98 372.15C348.294 372.15 338.82 381.624 338.82 393.31C338.82 404.996 348.294 414.47 359.98 414.47Z" fill="white"/>
<path d="M360 415.08C356.586 415.081 353.219 414.278 350.172 412.738C347.125 411.198 344.482 408.963 342.458 406.214C340.434 403.464 339.084 400.277 338.518 396.91C337.952 393.543 338.186 390.09 339.2 386.83C340.401 382.995 342.642 379.567 345.673 376.927C348.704 374.288 352.407 372.54 356.371 371.878C360.335 371.215 364.405 371.664 368.13 373.174C371.854 374.685 375.088 377.198 377.471 380.434C379.854 383.671 381.293 387.504 381.63 391.509C381.966 395.515 381.186 399.534 379.376 403.123C377.567 406.712 374.798 409.729 371.378 411.84C367.957 413.95 364.019 415.072 360 415.08ZM360 372.74C355.619 372.749 351.356 374.155 347.829 376.754C344.302 379.353 341.696 383.009 340.39 387.19C339.107 391.322 339.162 395.753 340.546 399.852C341.93 403.951 344.574 407.508 348.099 410.016C351.624 412.524 355.851 413.855 360.177 413.819C364.504 413.783 368.708 412.382 372.191 409.816C375.674 407.249 378.258 403.649 379.573 399.527C380.889 395.406 380.87 390.974 379.519 386.864C378.167 382.754 375.553 379.176 372.048 376.64C368.543 374.103 364.326 372.739 360 372.74Z" fill="#231F20"/>
<path d="M395.12 489.85V517.94L379.23 512.88L362.51 535.52C362.51 535.52 330.43 481.73 379.11 486.89L395.12 489.85Z" fill="white"/>
<path d="M362.451 536.52L361.99 535.75C359.121 530.733 356.698 525.472 354.75 520.03C350.64 508.35 350.461 499.46 354.201 493.61C358.201 487.38 366.591 484.9 379.201 486.23L395.74 489.31V518.72L379.48 513.54L362.451 536.52ZM372.93 487.07C364.22 487.07 358.261 489.47 355.201 494.25C347.541 506.25 360.001 529.77 362.571 534.36L379 512.14L394.521 517.08V490.35L379 487.45C376.985 487.229 374.958 487.116 372.93 487.11V487.07Z" fill="#231F20"/>
<path d="M629.49 548.91L147 550.92L146.93 536.32L629.41 534.32L629.49 548.91Z" fill="white"/>
<path d="M146.41 551.52L146.33 535.74H146.93L630 533.74L630.12 549.52H629.52L146.41 551.52ZM147.53 536.93L147.6 550.33L628.89 548.33L628.82 534.93L147.53 536.93Z" fill="#231F20"/>
<path d="M378.73 529.27H250.69V535.49H378.73V529.27Z" fill="white"/>
<path d="M379.33 536.09H250.12V528.67H379.33V536.09ZM251.33 534.89H378.12V529.89H251.29L251.33 534.89Z" fill="#231F20"/>
<path d="M347.78 535.49H247.18L232 468.75H332.6L347.78 535.49Z" fill="white"/>
<path d="M348.53 536.09H246.7L246.6 535.62L231.25 468.15H333.12L333.22 468.61L348.53 536.09ZM247.66 534.89H347.04L332.12 469.34H232.74L247.66 534.89Z" fill="#231F20"/>
<path d="M426.31 530.5L394.521 527.04V517.94H395.72V525.97L426.44 529.31L426.31 530.5Z" fill="#231F20"/>
<path d="M432.421 494.79H432.351L395.051 490.44C394.894 490.421 394.751 490.341 394.654 490.218C394.556 490.094 394.512 489.936 394.531 489.78C394.549 489.624 394.629 489.481 394.753 489.383C394.877 489.286 395.034 489.241 395.191 489.26L432.491 493.6C432.568 493.609 432.643 493.633 432.712 493.671C432.78 493.709 432.84 493.76 432.889 493.821C432.937 493.883 432.973 493.953 432.994 494.028C433.015 494.104 433.02 494.182 433.011 494.26C432.996 494.406 432.927 494.541 432.818 494.639C432.709 494.737 432.567 494.791 432.421 494.79Z" fill="#231F20"/>
<path d="M410.75 492.27C410.616 492.267 410.487 492.221 410.38 492.14C410.2 492 392.21 477.81 396.02 461.33C396.029 461.246 396.056 461.164 396.099 461.091C396.141 461.017 396.2 460.954 396.269 460.905C396.338 460.855 396.417 460.821 396.5 460.805C396.584 460.789 396.67 460.79 396.752 460.809C396.835 460.829 396.913 460.865 396.981 460.917C397.048 460.968 397.104 461.034 397.144 461.108C397.185 461.183 397.209 461.266 397.215 461.35C397.221 461.435 397.209 461.52 397.18 461.6C393.74 476.46 409.12 489.52 410.93 491.05L429.02 489.26C429.176 489.244 429.333 489.291 429.455 489.39C429.576 489.49 429.654 489.634 429.67 489.79C429.686 489.947 429.639 490.103 429.539 490.225C429.44 490.347 429.296 490.424 429.14 490.44L410.81 492.26L410.75 492.27Z" fill="#231F20"/>
<path d="M362.84 361.12C358.98 350.12 352.02 336.64 342.78 345.52C338.11 350.02 338.86 354.46 342.03 358.43C327.36 351.23 311.03 346.83 308.4 361.22C306.61 371.13 314 375.35 324.04 376.73C322.899 377.632 321.993 378.798 321.401 380.127C320.809 381.455 320.548 382.908 320.64 384.36C321.29 398.85 347.74 384.52 360.06 377.04C357.41 386.43 369.94 387.44 369.94 387.44L372.77 399.08C373.09 392.79 377.77 390.59 379.83 394.68C381.89 398.77 376.83 406.12 376.83 406.12C414.12 381.44 362.94 361.16 362.84 361.12Z" fill="#231F20"/>
<path d="M374.62 408.29L376.331 405.78C376.331 405.71 381.141 398.67 379.331 394.95C378.691 393.65 377.731 393.03 376.691 393.24C375.231 393.55 373.59 395.51 373.41 399.11L373.12 403.22L369.42 387.99C367.88 387.79 362.661 386.9 360.261 383.45C359.231 381.93 358.833 380.069 359.151 378.26C348.331 384.74 330.42 394.12 323.22 390.26C321.22 389.19 320.131 387.26 320.011 384.37C319.92 383.042 320.112 381.711 320.574 380.463C321.036 379.215 321.757 378.079 322.691 377.13C316.311 376.07 311.881 373.9 309.521 370.65C307.681 368.1 307.091 364.89 307.771 361.1C308.531 356.92 310.471 354.01 313.561 352.45C319.031 349.69 328 351.19 340.23 356.92C337.85 352.77 338.551 348.71 342.331 345.08C344.961 342.55 347.62 341.59 350.24 342.21C354.97 343.34 359.35 349.55 363.24 360.66C365.97 361.79 389.401 371.88 390.901 386.13C391.641 393.13 386.99 400.06 377.09 406.61L374.62 408.29ZM377.061 392.01C377.784 392.053 378.479 392.303 379.064 392.731C379.649 393.158 380.099 393.744 380.36 394.42C381.78 397.28 380.1 401.47 378.73 404.08C386.73 398.28 390.41 392.29 389.73 386.27C388.24 371.96 362.831 361.78 362.571 361.68L362.321 361.58L362.23 361.32C359.61 353.85 355.361 344.67 349.951 343.38C347.761 342.86 345.461 343.72 343.151 345.95C339.151 349.74 338.971 353.71 342.441 358.06L344.1 360.14L341.711 358.97C328.981 352.71 319.431 350.83 314.081 353.53C311.351 354.91 309.621 357.53 308.941 361.32C308.311 364.78 308.83 367.68 310.48 369.96C312.79 373.14 317.361 375.22 324.071 376.14L325.41 376.32L324.41 377.19C323.335 378.027 322.482 379.117 321.927 380.362C321.373 381.608 321.133 382.97 321.23 384.33C321.34 386.75 322.231 388.33 323.811 389.22C328.811 391.92 341.811 387.36 359.461 376.71L359.79 376.55L360.081 377.08H360.651V377.25C360.325 378.164 360.214 379.14 360.325 380.104C360.436 381.068 360.766 381.994 361.29 382.81C363.74 386.34 369.941 386.88 370.001 386.88H370.431L372.68 396.15C373.45 393.73 374.96 392.38 376.41 392.08C376.624 392.033 376.842 392.01 377.061 392.01Z" fill="#231F20"/>
<path d="M284.681 511C287.9 511 290.511 508.39 290.511 505.17C290.511 501.95 287.9 499.34 284.681 499.34C281.461 499.34 278.851 501.95 278.851 505.17C278.851 508.39 281.461 511 284.681 511Z" fill="white"/>
<path d="M284.68 511.6C283.408 511.602 282.164 511.227 281.105 510.521C280.047 509.816 279.221 508.812 278.733 507.638C278.244 506.463 278.116 505.17 278.363 503.922C278.61 502.674 279.221 501.527 280.12 500.627C281.019 499.727 282.165 499.113 283.412 498.864C284.66 498.615 285.953 498.742 287.129 499.228C288.304 499.715 289.309 500.539 290.016 501.597C290.723 502.654 291.1 503.898 291.1 505.17C291.098 506.873 290.421 508.505 289.218 509.71C288.014 510.915 286.383 511.595 284.68 511.6ZM284.68 499.94C283.646 499.94 282.635 500.247 281.775 500.821C280.915 501.396 280.244 502.213 279.848 503.169C279.453 504.124 279.349 505.176 279.551 506.19C279.753 507.205 280.251 508.137 280.982 508.868C281.714 509.6 282.645 510.098 283.66 510.299C284.674 510.501 285.726 510.398 286.682 510.002C287.637 509.606 288.454 508.936 289.029 508.076C289.604 507.216 289.91 506.204 289.91 505.17C289.91 503.783 289.359 502.453 288.378 501.472C287.398 500.491 286.067 499.94 284.68 499.94Z" fill="#231F20"/>
<path d="M526.99 532.66H502.55V534.32H526.99V532.66Z" fill="white"/>
<path d="M527.59 534.92H501.95V532.07H527.59V534.92ZM503.12 533.73H526.37V533.26H503.12V533.73Z" fill="#231F20"/>
<path d="M542.551 512.29C542.551 515.518 541.268 518.613 538.986 520.895C536.704 523.178 533.608 524.46 530.38 524.46H527.19V519H530.38C532.015 519.001 533.594 518.405 534.82 517.325C536.047 516.244 536.837 514.753 537.042 513.131C537.247 511.51 536.853 509.869 535.934 508.517C535.015 507.165 533.634 506.196 532.051 505.79C531.509 505.649 530.951 505.578 530.391 505.58H527.2V500.12H530.391C533.616 500.125 536.707 501.409 538.987 503.691C541.266 505.972 542.548 509.065 542.551 512.29Z" fill="white"/>
<path d="M530.38 525.06H526.59V518.4H530.38C531.855 518.389 533.276 517.846 534.381 516.869C535.486 515.893 536.201 514.55 536.393 513.088C536.586 511.626 536.243 510.143 535.428 508.914C534.613 507.685 533.381 506.792 531.96 506.4H531.89C531.397 506.269 530.89 506.201 530.38 506.2H526.59V499.52H530.38C533.767 499.52 537.015 500.865 539.41 503.26C541.805 505.655 543.15 508.903 543.15 512.29C543.15 515.677 541.805 518.925 539.41 521.32C537.015 523.715 533.767 525.06 530.38 525.06ZM527.78 523.86H530.38C533.391 523.772 536.249 522.513 538.347 520.352C540.446 518.191 541.62 515.297 541.62 512.285C541.62 509.273 540.446 506.379 538.347 504.218C536.249 502.057 533.391 500.799 530.38 500.71H527.78V504.98H530.38C530.963 504.979 531.544 505.05 532.11 505.19H532.19C533.913 505.633 535.416 506.689 536.416 508.16C537.416 509.631 537.846 511.417 537.624 513.182C537.402 514.948 536.543 516.571 535.21 517.749C533.876 518.927 532.159 519.578 530.38 519.58H527.78V523.86Z" fill="#231F20"/>
<path d="M532.651 498.18V526.71C532.651 528.452 531.958 530.123 530.726 531.356C529.494 532.588 527.823 533.28 526.08 533.28H502.55C500.808 533.28 499.137 532.588 497.905 531.356C496.673 530.123 495.98 528.452 495.98 526.71V498.18C495.98 497.506 496.248 496.86 496.724 496.384C497.201 495.908 497.847 495.64 498.521 495.64H530.12C530.792 495.643 531.436 495.911 531.91 496.387C532.384 496.863 532.651 497.508 532.651 498.18Z" fill="white"/>
<path d="M526.12 533.87H502.59C500.69 533.87 498.868 533.116 497.523 531.773C496.179 530.431 495.423 528.61 495.42 526.71V498.18C495.423 497.348 495.754 496.551 496.343 495.963C496.931 495.374 497.728 495.043 498.56 495.04H530.12C530.951 495.043 531.747 495.375 532.334 495.963C532.921 496.552 533.25 497.349 533.25 498.18V526.71C533.247 528.603 532.496 530.418 531.161 531.759C529.825 533.101 528.013 533.859 526.12 533.87ZM498.56 496.24C498.305 496.24 498.053 496.29 497.818 496.388C497.582 496.485 497.368 496.628 497.188 496.808C497.008 496.988 496.865 497.202 496.768 497.438C496.67 497.673 496.62 497.925 496.62 498.18V526.71C496.62 528.301 497.252 529.827 498.377 530.953C499.503 532.078 501.029 532.71 502.62 532.71H526.12C527.711 532.71 529.237 532.078 530.363 530.953C531.488 529.827 532.12 528.301 532.12 526.71V498.18C532.12 497.925 532.07 497.673 531.972 497.438C531.875 497.202 531.732 496.988 531.552 496.808C531.372 496.628 531.158 496.485 530.922 496.388C530.687 496.29 530.435 496.24 530.18 496.24H498.56Z" fill="#231F20"/>
<path d="M457.8 167.52H352V306.27H457.8V167.52Z" fill="white"/>
<path d="M458.4 306.86H351.4V166.92H458.4V306.86ZM352.6 305.67H457.2V168.12H352.6V305.67Z" fill="#231F20"/>
<path d="M352.38 268.6L351.61 267.7L405.02 222.37L429.22 258.08L457.44 236.42L458.16 237.37L428.94 259.8L404.78 224.14L352.38 268.6Z" fill="#231F20"/>
<path d="M383.76 223.25C391.387 223.25 397.57 217.067 397.57 209.44C397.57 201.813 391.387 195.63 383.76 195.63C376.133 195.63 369.95 201.813 369.95 209.44C369.95 217.067 376.133 223.25 383.76 223.25Z" fill="white"/>
<path d="M383.761 223.85C380.911 223.85 378.125 223.005 375.755 221.422C373.385 219.838 371.538 217.588 370.447 214.955C369.357 212.321 369.071 209.424 369.627 206.629C370.183 203.833 371.556 201.266 373.571 199.251C375.586 197.235 378.154 195.863 380.949 195.307C383.745 194.751 386.642 195.036 389.275 196.127C391.908 197.218 394.159 199.065 395.742 201.434C397.325 203.804 398.171 206.59 398.171 209.44C398.168 213.261 396.649 216.925 393.947 219.627C391.245 222.328 387.582 223.847 383.761 223.85ZM383.761 196.22C381.146 196.22 378.59 196.995 376.416 198.448C374.242 199.901 372.548 201.965 371.547 204.381C370.546 206.797 370.284 209.455 370.795 212.019C371.305 214.584 372.564 216.939 374.413 218.788C376.261 220.637 378.617 221.896 381.181 222.406C383.746 222.916 386.404 222.654 388.82 221.654C391.235 220.653 393.3 218.959 394.753 216.785C396.205 214.611 396.981 212.055 396.981 209.44C396.978 205.935 395.584 202.574 393.106 200.095C390.627 197.616 387.266 196.223 383.761 196.22Z" fill="#231F20"/>
<path d="M585.55 287.93H479.75V371.79H585.55V287.93Z" fill="white"/>
<path d="M586.12 372.38H479.12V287.33H586.12V372.38ZM480.32 371.19H584.93V288.52H480.34L480.32 371.19Z" fill="#231F20"/>
<path d="M586.12 372.38H500.76V371.76C501.158 361.575 503.803 351.604 508.507 342.562C513.211 333.519 519.856 325.629 527.967 319.456C536.078 313.284 545.454 308.981 555.423 306.857C565.392 304.733 575.707 304.84 585.63 307.17L586.09 307.27L586.12 372.38ZM502.01 371.19H584.93V308.19C575.25 305.99 565.205 305.938 555.502 308.037C545.8 310.137 536.675 314.338 528.771 320.343C520.866 326.349 514.374 334.014 509.75 342.798C505.127 351.583 502.485 361.274 502.01 371.19Z" fill="#607A75"/>
<path d="M534.87 243.08C549.616 243.08 561.57 231.126 561.57 216.38C561.57 201.634 549.616 189.68 534.87 189.68C520.124 189.68 508.17 201.634 508.17 216.38C508.17 231.126 520.124 243.08 534.87 243.08Z" fill="white"/>
<path d="M534.871 243.67C529.469 243.68 524.185 242.087 519.689 239.093C515.193 236.099 511.686 231.838 509.612 226.85C507.538 221.862 506.991 216.37 508.04 211.071C509.088 205.772 511.685 200.903 515.502 197.08C519.319 193.258 524.185 190.653 529.482 189.597C534.78 188.541 540.272 189.08 545.263 191.146C550.254 193.213 554.52 196.713 557.521 201.205C560.522 205.697 562.123 210.978 562.121 216.38C562.113 223.608 559.24 230.539 554.133 235.654C549.025 240.769 542.099 243.652 534.871 243.67ZM534.871 190.28C529.708 190.28 524.662 191.811 520.37 194.679C516.078 197.547 512.733 201.623 510.757 206.392C508.782 211.161 508.265 216.409 509.272 221.472C510.279 226.535 512.765 231.185 516.415 234.836C520.065 238.486 524.716 240.971 529.779 241.979C534.842 242.986 540.089 242.469 544.859 240.493C549.628 238.518 553.704 235.173 556.572 230.88C559.44 226.588 560.971 221.542 560.971 216.38C560.963 209.46 558.21 202.826 553.317 197.933C548.424 193.04 541.79 190.288 534.871 190.28Z" fill="#231F20"/>
<path d="M543.01 208.53L534.87 216.38L525.12 199.69" fill="white"/>
<path d="M534.74 217.33L524.61 199.98L525.64 199.38L535 215.42L542.6 208.1L543.43 208.96L534.74 217.33Z" fill="#231F20"/>
</svg>
